ISO-10303-21;
HEADER;
/* Generated by software containing ST-Developer
 * from STEP Tools, Inc. (www.steptools.com) 
 */
/* OPTION: using custom renumber hook */

FILE_DESCRIPTION(
/* description */ ('STEP AP242 Edition 2',
'CAx-IF Rec.Pracs.---Representation and Presentation of Product Manufa
cturing Information (PMI)---4.0---2014-10-13',
'CAx-IF Rec.Pracs.---3D Tessellated Geometry---0.4---2014-09-14','2;1',
'CAx-IF Rec.Pracs.---User Defined Attributes---1.5---2016-08-15'),
/* implementation_level */ '2;1');

FILE_NAME(
/* name */ 'brew75 full assembly parts - top shell left half-1__Body1',

/* time_stamp */ '2026-08-25T10:32:41Z',
/* author */ (''),
/* organization */ (''),
/* preprocessor_version */ 'ST-DEVELOPER v20',
/* originating_system */ 'ONSHAPE BY PTC INC, 1.219',
/* authorisation */ '  ');

FILE_SCHEMA (('AP242_MANAGED_MODEL_BASED_3D_ENGINEERING_MIM_LF { 1 0 10303 442 3 1 4 }'));
ENDSEC;

DATA;
#10=SHAPE_REPRESENTATION_RELATIONSHIP('','',#824,#11);
#11=ADVANCED_BREP_SHAPE_REPRESENTATION('',(#822),#1566);
#12=TOROIDAL_SURFACE('',#866,0.01016,0.00127);
#13=TOROIDAL_SURFACE('',#871,0.01016,0.00127);
#14=CYLINDRICAL_SURFACE('',#849,0.0020955);
#15=CYLINDRICAL_SURFACE('',#852,0.0020955);
#16=CYLINDRICAL_SURFACE('',#855,0.0020955);
#17=CYLINDRICAL_SURFACE('',#858,0.0020955);
#18=CYLINDRICAL_SURFACE('',#863,0.004286);
#19=CYLINDRICAL_SURFACE('',#864,0.00127);
#20=CYLINDRICAL_SURFACE('',#869,0.00127);
#21=CYLINDRICAL_SURFACE('',#874,0.00127);
#22=CYLINDRICAL_SURFACE('',#884,0.01143);
#23=CYLINDRICAL_SURFACE('',#886,0.01143);
#24=B_SPLINE_SURFACE_WITH_KNOTS('',3,1,((#1162,#1163),(#1164,#1165),(#1166,
#1167),(#1168,#1169),(#1170,#1171),(#1172,#1173)),
 .SURF_OF_LINEAR_EXTRUSION.,.F.,.F.,.F.,(4,1,1,4),(2,2),(-0.00600003885512563,
0.245499970858656,0.496999980572437,1.),(0.,1.),.UNSPECIFIED.);
#25=B_SPLINE_SURFACE_WITH_KNOTS('',3,1,((#1198,#1199),(#1200,#1201),(#1202,
#1203),(#1204,#1205),(#1206,#1207),(#1208,#1209)),
 .SURF_OF_LINEAR_EXTRUSION.,.F.,.F.,.F.,(4,1,1,4),(2,2),(-0.00600003885516445,
0.245499970858627,0.496999980572418,1.),(0.,1.),.UNSPECIFIED.);
#26=B_SPLINE_SURFACE_WITH_KNOTS('',3,1,((#1354,#1355),(#1356,#1357),(#1358,
#1359),(#1360,#1361),(#1362,#1363),(#1364,#1365)),
 .SURF_OF_LINEAR_EXTRUSION.,.F.,.F.,.F.,(4,1,1,4),(2,2),(-0.0060000116234779,
0.496999994188261,0.748499997094131,1.),(0.,1.),.UNSPECIFIED.);
#27=B_SPLINE_SURFACE_WITH_KNOTS('',3,1,((#1380,#1381),(#1382,#1383),(#1384,
#1385),(#1386,#1387),(#1388,#1389),(#1390,#1391)),
 .SURF_OF_LINEAR_EXTRUSION.,.F.,.F.,.F.,(4,1,1,4),(2,2),(-1.23259516440783E-32,
0.499999999784552,0.749999999676829,0.999999999569105),(0.,1.),
 .UNSPECIFIED.);
#28=B_SPLINE_SURFACE_WITH_KNOTS('',3,1,((#1399,#1400),(#1401,#1402),(#1403,
#1404),(#1405,#1406),(#1407,#1408),(#1409,#1410)),
 .SURF_OF_LINEAR_EXTRUSION.,.F.,.F.,.F.,(4,1,1,4),(2,2),(-4.62223186652937E-33,
0.499999999024691,0.749999998537036,0.999999998049381),(0.,1.),
 .UNSPECIFIED.);
#29=B_SPLINE_SURFACE_WITH_KNOTS('',3,1,((#1436,#1437),(#1438,#1439),(#1440,
#1441),(#1442,#1443),(#1444,#1445),(#1446,#1447)),
 .SURF_OF_LINEAR_EXTRUSION.,.F.,.F.,.F.,(4,1,1,4),(2,2),(2.15966129539951E-15,
0.250000000000002,0.500000000000001,1.),(0.,1.),.UNSPECIFIED.);
#30=B_SPLINE_SURFACE_WITH_KNOTS('',3,1,((#1473,#1474),(#1475,#1476),(#1477,
#1478),(#1479,#1480),(#1481,#1482),(#1483,#1484)),
 .SURF_OF_LINEAR_EXTRUSION.,.F.,.F.,.F.,(4,1,1,4),(2,2),(0.,0.499999999001603,
0.749999998502404,0.999999998003205),(0.,1.),.UNSPECIFIED.);
#31=B_SPLINE_SURFACE_WITH_KNOTS('',3,1,((#1489,#1490),(#1491,#1492),(#1493,
#1494),(#1495,#1496),(#1497,#1498),(#1499,#1500)),
 .SURF_OF_LINEAR_EXTRUSION.,.F.,.F.,.F.,(4,1,1,4),(2,2),(-4.82927060372462E-14,
0.249999999999964,0.499999999999976,1.),(0.,1.),.UNSPECIFIED.);
#32=B_SPLINE_SURFACE_WITH_KNOTS('',3,1,((#1510,#1511),(#1512,#1513),(#1514,
#1515),(#1516,#1517),(#1518,#1519),(#1520,#1521)),
 .SURF_OF_LINEAR_EXTRUSION.,.F.,.F.,.F.,(4,1,1,4),(2,2),(-0.00600001162348032,
0.49699999418826,0.74849999709413,1.),(0.,1.),.UNSPECIFIED.);
#33=B_SPLINE_SURFACE_WITH_KNOTS('',3,1,((#1536,#1537),(#1538,#1539),(#1540,
#1541),(#1542,#1543),(#1544,#1545),(#1546,#1547)),
 .SURF_OF_LINEAR_EXTRUSION.,.F.,.F.,.F.,(4,1,1,4),(2,2),(-3.38963670212154E-32,
0.499999999024703,0.749999998537054,0.999999998049406),(0.,1.),
 .UNSPECIFIED.);
#34=B_SPLINE_CURVE_WITH_KNOTS('',3,(#1089,#1090,#1091,#1092,#1093,#1094),
 .UNSPECIFIED.,.F.,.F.,(4,1,1,4),(-0.295317861417889,-0.221488396063417,
-0.147658930708945,0.),.UNSPECIFIED.);
#35=B_SPLINE_CURVE_WITH_KNOTS('',3,(#1103,#1104,#1105,#1106,#1107,#1108),
 .UNSPECIFIED.,.F.,.F.,(4,1,1,4),(-0.300940451905917,-0.150470225952959,
-0.0752351129764793,0.),.UNSPECIFIED.);
#36=B_SPLINE_CURVE_WITH_KNOTS('',3,(#1112,#1113,#1114,#1115,#1116,#1117),
 .UNSPECIFIED.,.F.,.F.,(4,1,1,4),(-0.295317861415626,-0.221488396061719,
-0.147658930707813,0.),.UNSPECIFIED.);
#37=B_SPLINE_CURVE_WITH_KNOTS('',3,(#1126,#1127,#1128,#1129,#1130,#1131),
 .UNSPECIFIED.,.F.,.F.,(4,1,1,4),(-0.300940451906618,-0.150470225953309,
-0.0752351129766545,0.),.UNSPECIFIED.);
#38=B_SPLINE_CURVE_WITH_KNOTS('',3,(#1174,#1175,#1176,#1177),
 .UNSPECIFIED.,.F.,.F.,(4,4),(5.64123968238656E-10,0.999999998883065),
 .UNSPECIFIED.);
#39=B_SPLINE_CURVE_WITH_KNOTS('',3,(#1179,#1180,#1181,#1182,#1183,#1184,
#1185,#1186,#1187,#1188),.UNSPECIFIED.,.F.,.F.,(4,1,1,1,1,1,1,4),(0.,0.25,
0.375,0.5,0.625,0.75,0.875,1.),.UNSPECIFIED.);
#40=B_SPLINE_CURVE_WITH_KNOTS('',3,(#1190,#1191,#1192,#1193),
 .UNSPECIFIED.,.F.,.F.,(4,4),(0.,0.999999999251284),.UNSPECIFIED.);
#41=B_SPLINE_CURVE_WITH_KNOTS('',3,(#1210,#1211,#1212,#1213),
 .UNSPECIFIED.,.F.,.F.,(4,4),(4.63495071253442E-10,0.999999999082304),
 .UNSPECIFIED.);
#42=B_SPLINE_CURVE_WITH_KNOTS('',3,(#1215,#1216,#1217,#1218,#1219,#1220,
#1221,#1222,#1223,#1224),.UNSPECIFIED.,.F.,.F.,(4,1,1,1,1,1,1,4),(0.,0.25,
0.375,0.5,0.625,0.75,0.875,1.),.UNSPECIFIED.);
#43=B_SPLINE_CURVE_WITH_KNOTS('',3,(#1226,#1227,#1228,#1229),
 .UNSPECIFIED.,.F.,.F.,(4,4),(0.,0.999999999384098),.UNSPECIFIED.);
#44=B_SPLINE_CURVE_WITH_KNOTS('',3,(#1279,#1280,#1281,#1282),
 .UNSPECIFIED.,.F.,.F.,(4,4),(8.61879935969874E-10,0.999999999138121),
 .UNSPECIFIED.);
#45=B_SPLINE_CURVE_WITH_KNOTS('',3,(#1284,#1285,#1286,#1287),
 .UNSPECIFIED.,.F.,.F.,(4,4),(6.15902339194432E-10,1.),.UNSPECIFIED.);
#46=B_SPLINE_CURVE_WITH_KNOTS('',3,(#1288,#1289,#1290,#1291),
 .UNSPECIFIED.,.F.,.F.,(4,4),(3.90123812319225E-9,0.999999996098763),
 .UNSPECIFIED.);
#47=B_SPLINE_CURVE_WITH_KNOTS('',3,(#1293,#1294,#1295,#1296),
 .UNSPECIFIED.,.F.,.F.,(4,4),(7.48715697601418E-10,1.),.UNSPECIFIED.);
#48=B_SPLINE_CURVE_WITH_KNOTS('',3,(#1297,#1298,#1299,#1300),
 .UNSPECIFIED.,.F.,.F.,(4,4),(3.901236839499E-9,0.999999996098761),
 .UNSPECIFIED.);
#49=B_SPLINE_CURVE_WITH_KNOTS('',3,(#1303,#1304,#1305,#1306),
 .UNSPECIFIED.,.F.,.F.,(4,4),(3.99359022550945E-9,0.999999996006412),
 .UNSPECIFIED.);
#50=B_SPLINE_CURVE_WITH_KNOTS('',3,(#1308,#1309,#1310,#1311),
 .UNSPECIFIED.,.F.,.F.,(4,4),(3.90123812319225E-9,0.999999996098763),
 .UNSPECIFIED.);
#51=B_SPLINE_CURVE_WITH_KNOTS('',3,(#1313,#1314,#1315,#1316),
 .UNSPECIFIED.,.F.,.F.,(4,4),(3.99358912188646E-9,0.999999996006411),
 .UNSPECIFIED.);
#52=B_SPLINE_CURVE_WITH_KNOTS('',3,(#1366,#1367,#1368,#1369,#1370,#1371,
#1372,#1373,#1374),.UNSPECIFIED.,.F.,.F.,(4,1,1,1,1,1,4),(0.,0.125,0.25,
0.375,0.5,0.75,1.),.UNSPECIFIED.);
#53=B_SPLINE_CURVE_WITH_KNOTS('',3,(#1376,#1377,#1378,#1379),
 .UNSPECIFIED.,.F.,.F.,(4,4),(0.,0.999999999536505),.UNSPECIFIED.);
#54=B_SPLINE_CURVE_WITH_KNOTS('',3,(#1392,#1393,#1394,#1395),
 .UNSPECIFIED.,.F.,.F.,(4,4),(6.55197639829991E-10,0.999999999344802),
 .UNSPECIFIED.);
#55=B_SPLINE_CURVE_WITH_KNOTS('',3,(#1411,#1412,#1413,#1414,#1415,#1416,
#1417,#1418,#1419),.UNSPECIFIED.,.F.,.F.,(4,1,1,1,1,1,4),(0.,0.125,0.25,
0.375,0.5,0.75,1.),.UNSPECIFIED.);
#56=B_SPLINE_CURVE_WITH_KNOTS('',3,(#1421,#1422,#1423,#1424),
 .UNSPECIFIED.,.F.,.F.,(4,4),(3.14091323533644E-9,0.999999996859086),
 .UNSPECIFIED.);
#57=B_SPLINE_CURVE_WITH_KNOTS('',3,(#1426,#1427,#1428,#1429,#1430,#1431,
#1432,#1433,#1434,#1435),.UNSPECIFIED.,.F.,.F.,(4,1,1,1,1,1,1,4),(0.,0.25,
0.375,0.5,0.625,0.75,0.875,1.),.UNSPECIFIED.);
#58=B_SPLINE_CURVE_WITH_KNOTS('',3,(#1448,#1449,#1450,#1451,#1452,#1453,
#1454,#1455,#1456),.UNSPECIFIED.,.F.,.F.,(4,1,1,1,1,1,4),(0.,0.125,0.25,
0.375,0.5,0.75,1.),.UNSPECIFIED.);
#59=B_SPLINE_CURVE_WITH_KNOTS('',3,(#1458,#1459,#1460,#1461),
 .UNSPECIFIED.,.F.,.F.,(4,4),(3.14091323533644E-9,0.999999996859087),
 .UNSPECIFIED.);
#60=B_SPLINE_CURVE_WITH_KNOTS('',3,(#1463,#1464,#1465,#1466,#1467,#1468,
#1469,#1470,#1471,#1472),.UNSPECIFIED.,.F.,.F.,(4,1,1,1,1,1,1,4),(0.,0.25,
0.375,0.5,0.625,0.75,0.875,1.),.UNSPECIFIED.);
#61=B_SPLINE_CURVE_WITH_KNOTS('',3,(#1485,#1486,#1487,#1488),
 .UNSPECIFIED.,.F.,.F.,(4,4),(3.22104850459319E-9,0.999999996778952),
 .UNSPECIFIED.);
#62=B_SPLINE_CURVE_WITH_KNOTS('',3,(#1501,#1502,#1503,#1504),
 .UNSPECIFIED.,.F.,.F.,(4,4),(3.2210480049569E-9,0.999999996778952),
 .UNSPECIFIED.);
#63=B_SPLINE_CURVE_WITH_KNOTS('',3,(#1522,#1523,#1524,#1525,#1526,#1527,
#1528,#1529,#1530),.UNSPECIFIED.,.F.,.F.,(4,1,1,1,1,1,4),(0.,0.125,0.25,
0.375,0.5,0.75,1.),.UNSPECIFIED.);
#64=B_SPLINE_CURVE_WITH_KNOTS('',3,(#1532,#1533,#1534,#1535),
 .UNSPECIFIED.,.F.,.F.,(4,4),(0.,0.999999999435876),.UNSPECIFIED.);
#65=B_SPLINE_CURVE_WITH_KNOTS('',3,(#1548,#1549,#1550,#1551),
 .UNSPECIFIED.,.F.,.F.,(4,4),(3.14091271744817E-9,0.999999996859086),
 .UNSPECIFIED.);
#66=CIRCLE('',#827,0.00127);
#67=CIRCLE('',#830,0.00127);
#68=CIRCLE('',#834,0.004286);
#69=CIRCLE('',#839,0.004286);
#70=CIRCLE('',#840,0.01143);
#71=CIRCLE('',#841,0.01143);
#72=CIRCLE('',#842,0.0020955);
#73=CIRCLE('',#843,0.0020955);
#74=CIRCLE('',#844,0.0020955);
#75=CIRCLE('',#845,0.0020955);
#76=CIRCLE('',#847,0.01016);
#77=CIRCLE('',#848,0.01016);
#78=CIRCLE('',#850,0.0020955);
#79=CIRCLE('',#853,0.0020955);
#80=CIRCLE('',#856,0.0020955);
#81=CIRCLE('',#859,0.0020955);
#82=CIRCLE('',#865,0.00127);
#83=CIRCLE('',#867,0.00127);
#84=CIRCLE('',#868,0.01143);
#85=CIRCLE('',#870,0.00127);
#86=CIRCLE('',#872,0.00127);
#87=CIRCLE('',#873,0.01143);
#88=ORIENTED_EDGE('',*,*,#314,.F.);
#89=ORIENTED_EDGE('',*,*,#315,.F.);
#90=ORIENTED_EDGE('',*,*,#316,.F.);
#91=ORIENTED_EDGE('',*,*,#317,.F.);
#92=ORIENTED_EDGE('',*,*,#318,.F.);
#93=ORIENTED_EDGE('',*,*,#319,.F.);
#94=ORIENTED_EDGE('',*,*,#320,.F.);
#95=ORIENTED_EDGE('',*,*,#321,.F.);
#96=ORIENTED_EDGE('',*,*,#322,.F.);
#97=ORIENTED_EDGE('',*,*,#323,.F.);
#98=ORIENTED_EDGE('',*,*,#324,.F.);
#99=ORIENTED_EDGE('',*,*,#325,.F.);
#100=ORIENTED_EDGE('',*,*,#326,.F.);
#101=ORIENTED_EDGE('',*,*,#327,.F.);
#102=ORIENTED_EDGE('',*,*,#328,.F.);
#103=ORIENTED_EDGE('',*,*,#329,.F.);
#104=ORIENTED_EDGE('',*,*,#330,.F.);
#105=ORIENTED_EDGE('',*,*,#331,.F.);
#106=ORIENTED_EDGE('',*,*,#332,.F.);
#107=ORIENTED_EDGE('',*,*,#333,.F.);
#108=ORIENTED_EDGE('',*,*,#334,.F.);
#109=ORIENTED_EDGE('',*,*,#335,.F.);
#110=ORIENTED_EDGE('',*,*,#319,.T.);
#111=ORIENTED_EDGE('',*,*,#336,.F.);
#112=ORIENTED_EDGE('',*,*,#337,.T.);
#113=ORIENTED_EDGE('',*,*,#338,.F.);
#114=ORIENTED_EDGE('',*,*,#317,.T.);
#115=ORIENTED_EDGE('',*,*,#339,.T.);
#116=ORIENTED_EDGE('',*,*,#340,.F.);
#117=ORIENTED_EDGE('',*,*,#341,.F.);
#118=ORIENTED_EDGE('',*,*,#316,.T.);
#119=ORIENTED_EDGE('',*,*,#342,.F.);
#120=ORIENTED_EDGE('',*,*,#343,.F.);
#121=ORIENTED_EDGE('',*,*,#344,.F.);
#122=ORIENTED_EDGE('',*,*,#345,.F.);
#123=ORIENTED_EDGE('',*,*,#339,.F.);
#124=ORIENTED_EDGE('',*,*,#315,.T.);
#125=ORIENTED_EDGE('',*,*,#346,.F.);
#126=ORIENTED_EDGE('',*,*,#347,.T.);
#127=ORIENTED_EDGE('',*,*,#342,.T.);
#128=ORIENTED_EDGE('',*,*,#326,.T.);
#129=ORIENTED_EDGE('',*,*,#348,.T.);
#130=ORIENTED_EDGE('',*,*,#349,.F.);
#131=ORIENTED_EDGE('',*,*,#350,.T.);
#132=ORIENTED_EDGE('',*,*,#325,.T.);
#133=ORIENTED_EDGE('',*,*,#351,.F.);
#134=ORIENTED_EDGE('',*,*,#352,.F.);
#135=ORIENTED_EDGE('',*,*,#348,.F.);
#136=ORIENTED_EDGE('',*,*,#332,.T.);
#137=ORIENTED_EDGE('',*,*,#353,.T.);
#138=ORIENTED_EDGE('',*,*,#354,.F.);
#139=ORIENTED_EDGE('',*,*,#355,.T.);
#140=ORIENTED_EDGE('',*,*,#331,.T.);
#141=ORIENTED_EDGE('',*,*,#356,.F.);
#142=ORIENTED_EDGE('',*,*,#357,.F.);
#143=ORIENTED_EDGE('',*,*,#353,.F.);
#144=ORIENTED_EDGE('',*,*,#318,.T.);
#145=ORIENTED_EDGE('',*,*,#341,.T.);
#146=ORIENTED_EDGE('',*,*,#358,.T.);
#147=ORIENTED_EDGE('',*,*,#359,.T.);
#148=ORIENTED_EDGE('',*,*,#360,.T.);
#149=ORIENTED_EDGE('',*,*,#346,.T.);
#150=ORIENTED_EDGE('',*,*,#314,.T.);
#151=ORIENTED_EDGE('',*,*,#361,.T.);
#152=ORIENTED_EDGE('',*,*,#362,.T.);
#153=ORIENTED_EDGE('',*,*,#351,.T.);
#154=ORIENTED_EDGE('',*,*,#324,.T.);
#155=ORIENTED_EDGE('',*,*,#363,.T.);
#156=ORIENTED_EDGE('',*,*,#364,.T.);
#157=ORIENTED_EDGE('',*,*,#356,.T.);
#158=ORIENTED_EDGE('',*,*,#330,.T.);
#159=ORIENTED_EDGE('',*,*,#365,.T.);
#160=ORIENTED_EDGE('',*,*,#366,.F.);
#161=ORIENTED_EDGE('',*,*,#367,.T.);
#162=ORIENTED_EDGE('',*,*,#368,.F.);
#163=ORIENTED_EDGE('',*,*,#336,.T.);
#164=ORIENTED_EDGE('',*,*,#369,.T.);
#165=ORIENTED_EDGE('',*,*,#370,.T.);
#166=ORIENTED_EDGE('',*,*,#371,.T.);
#167=ORIENTED_EDGE('',*,*,#372,.T.);
#168=ORIENTED_EDGE('',*,*,#373,.T.);
#169=ORIENTED_EDGE('',*,*,#374,.T.);
#170=ORIENTED_EDGE('',*,*,#375,.T.);
#171=ORIENTED_EDGE('',*,*,#376,.T.);
#172=ORIENTED_EDGE('',*,*,#321,.T.);
#173=ORIENTED_EDGE('',*,*,#377,.F.);
#174=ORIENTED_EDGE('',*,*,#378,.F.);
#175=ORIENTED_EDGE('',*,*,#379,.F.);
#176=ORIENTED_EDGE('',*,*,#380,.F.);
#177=ORIENTED_EDGE('',*,*,#381,.F.);
#178=ORIENTED_EDGE('',*,*,#333,.T.);
#179=ORIENTED_EDGE('',*,*,#355,.F.);
#180=ORIENTED_EDGE('',*,*,#382,.F.);
#181=ORIENTED_EDGE('',*,*,#383,.F.);
#182=ORIENTED_EDGE('',*,*,#327,.T.);
#183=ORIENTED_EDGE('',*,*,#350,.F.);
#184=ORIENTED_EDGE('',*,*,#384,.F.);
#185=ORIENTED_EDGE('',*,*,#385,.F.);
#186=ORIENTED_EDGE('',*,*,#386,.F.);
#187=ORIENTED_EDGE('',*,*,#387,.F.);
#188=ORIENTED_EDGE('',*,*,#388,.F.);
#189=ORIENTED_EDGE('',*,*,#389,.F.);
#190=ORIENTED_EDGE('',*,*,#390,.T.);
#191=ORIENTED_EDGE('',*,*,#369,.F.);
#192=ORIENTED_EDGE('',*,*,#390,.F.);
#193=ORIENTED_EDGE('',*,*,#391,.T.);
#194=ORIENTED_EDGE('',*,*,#370,.F.);
#195=ORIENTED_EDGE('',*,*,#391,.F.);
#196=ORIENTED_EDGE('',*,*,#392,.T.);
#197=ORIENTED_EDGE('',*,*,#371,.F.);
#198=ORIENTED_EDGE('',*,*,#392,.F.);
#199=ORIENTED_EDGE('',*,*,#393,.T.);
#200=ORIENTED_EDGE('',*,*,#372,.F.);
#201=ORIENTED_EDGE('',*,*,#393,.F.);
#202=ORIENTED_EDGE('',*,*,#360,.F.);
#203=ORIENTED_EDGE('',*,*,#394,.T.);
#204=ORIENTED_EDGE('',*,*,#343,.T.);
#205=ORIENTED_EDGE('',*,*,#347,.F.);
#206=ORIENTED_EDGE('',*,*,#359,.F.);
#207=ORIENTED_EDGE('',*,*,#395,.T.);
#208=ORIENTED_EDGE('',*,*,#344,.T.);
#209=ORIENTED_EDGE('',*,*,#394,.F.);
#210=ORIENTED_EDGE('',*,*,#358,.F.);
#211=ORIENTED_EDGE('',*,*,#340,.T.);
#212=ORIENTED_EDGE('',*,*,#345,.T.);
#213=ORIENTED_EDGE('',*,*,#395,.F.);
#214=ORIENTED_EDGE('',*,*,#334,.T.);
#215=ORIENTED_EDGE('',*,*,#381,.T.);
#216=ORIENTED_EDGE('',*,*,#396,.T.);
#217=ORIENTED_EDGE('',*,*,#397,.T.);
#218=ORIENTED_EDGE('',*,*,#398,.T.);
#219=ORIENTED_EDGE('',*,*,#399,.T.);
#220=ORIENTED_EDGE('',*,*,#396,.F.);
#221=ORIENTED_EDGE('',*,*,#380,.T.);
#222=ORIENTED_EDGE('',*,*,#400,.T.);
#223=ORIENTED_EDGE('',*,*,#401,.T.);
#224=ORIENTED_EDGE('',*,*,#398,.F.);
#225=ORIENTED_EDGE('',*,*,#379,.T.);
#226=ORIENTED_EDGE('',*,*,#402,.T.);
#227=ORIENTED_EDGE('',*,*,#403,.T.);
#228=ORIENTED_EDGE('',*,*,#400,.F.);
#229=ORIENTED_EDGE('',*,*,#378,.T.);
#230=ORIENTED_EDGE('',*,*,#320,.T.);
#231=ORIENTED_EDGE('',*,*,#338,.T.);
#232=ORIENTED_EDGE('',*,*,#402,.F.);
#233=ORIENTED_EDGE('',*,*,#377,.T.);
#234=ORIENTED_EDGE('',*,*,#328,.T.);
#235=ORIENTED_EDGE('',*,*,#383,.T.);
#236=ORIENTED_EDGE('',*,*,#404,.T.);
#237=ORIENTED_EDGE('',*,*,#405,.T.);
#238=ORIENTED_EDGE('',*,*,#382,.T.);
#239=ORIENTED_EDGE('',*,*,#354,.T.);
#240=ORIENTED_EDGE('',*,*,#406,.T.);
#241=ORIENTED_EDGE('',*,*,#404,.F.);
#242=ORIENTED_EDGE('',*,*,#329,.T.);
#243=ORIENTED_EDGE('',*,*,#405,.F.);
#244=ORIENTED_EDGE('',*,*,#407,.T.);
#245=ORIENTED_EDGE('',*,*,#363,.F.);
#246=ORIENTED_EDGE('',*,*,#406,.F.);
#247=ORIENTED_EDGE('',*,*,#357,.T.);
#248=ORIENTED_EDGE('',*,*,#364,.F.);
#249=ORIENTED_EDGE('',*,*,#407,.F.);
#250=ORIENTED_EDGE('',*,*,#388,.T.);
#251=ORIENTED_EDGE('',*,*,#408,.T.);
#252=ORIENTED_EDGE('',*,*,#409,.T.);
#253=ORIENTED_EDGE('',*,*,#410,.F.);
#254=ORIENTED_EDGE('',*,*,#386,.T.);
#255=ORIENTED_EDGE('',*,*,#411,.T.);
#256=ORIENTED_EDGE('',*,*,#412,.T.);
#257=ORIENTED_EDGE('',*,*,#413,.T.);
#258=ORIENTED_EDGE('',*,*,#414,.T.);
#259=ORIENTED_EDGE('',*,*,#411,.F.);
#260=ORIENTED_EDGE('',*,*,#389,.T.);
#261=ORIENTED_EDGE('',*,*,#410,.T.);
#262=ORIENTED_EDGE('',*,*,#387,.T.);
#263=ORIENTED_EDGE('',*,*,#413,.F.);
#264=ORIENTED_EDGE('',*,*,#415,.T.);
#265=ORIENTED_EDGE('',*,*,#408,.F.);
#266=ORIENTED_EDGE('',*,*,#415,.F.);
#267=ORIENTED_EDGE('',*,*,#416,.T.);
#268=ORIENTED_EDGE('',*,*,#376,.F.);
#269=ORIENTED_EDGE('',*,*,#417,.F.);
#270=ORIENTED_EDGE('',*,*,#412,.F.);
#271=ORIENTED_EDGE('',*,*,#418,.T.);
#272=ORIENTED_EDGE('',*,*,#373,.F.);
#273=ORIENTED_EDGE('',*,*,#416,.F.);
#274=ORIENTED_EDGE('',*,*,#322,.T.);
#275=ORIENTED_EDGE('',*,*,#385,.T.);
#276=ORIENTED_EDGE('',*,*,#419,.T.);
#277=ORIENTED_EDGE('',*,*,#420,.T.);
#278=ORIENTED_EDGE('',*,*,#421,.T.);
#279=ORIENTED_EDGE('',*,*,#419,.F.);
#280=ORIENTED_EDGE('',*,*,#384,.T.);
#281=ORIENTED_EDGE('',*,*,#349,.T.);
#282=ORIENTED_EDGE('',*,*,#323,.T.);
#283=ORIENTED_EDGE('',*,*,#420,.F.);
#284=ORIENTED_EDGE('',*,*,#422,.T.);
#285=ORIENTED_EDGE('',*,*,#361,.F.);
#286=ORIENTED_EDGE('',*,*,#421,.F.);
#287=ORIENTED_EDGE('',*,*,#352,.T.);
#288=ORIENTED_EDGE('',*,*,#362,.F.);
#289=ORIENTED_EDGE('',*,*,#422,.F.);
#290=ORIENTED_EDGE('',*,*,#409,.F.);
#291=ORIENTED_EDGE('',*,*,#417,.T.);
#292=ORIENTED_EDGE('',*,*,#375,.F.);
#293=ORIENTED_EDGE('',*,*,#423,.F.);
#294=ORIENTED_EDGE('',*,*,#414,.F.);
#295=ORIENTED_EDGE('',*,*,#423,.T.);
#296=ORIENTED_EDGE('',*,*,#374,.F.);
#297=ORIENTED_EDGE('',*,*,#418,.F.);
#298=ORIENTED_EDGE('',*,*,#335,.T.);
#299=ORIENTED_EDGE('',*,*,#397,.F.);
#300=ORIENTED_EDGE('',*,*,#424,.F.);
#301=ORIENTED_EDGE('',*,*,#365,.F.);
#302=ORIENTED_EDGE('',*,*,#399,.F.);
#303=ORIENTED_EDGE('',*,*,#425,.F.);
#304=ORIENTED_EDGE('',*,*,#366,.T.);
#305=ORIENTED_EDGE('',*,*,#424,.T.);
#306=ORIENTED_EDGE('',*,*,#401,.F.);
#307=ORIENTED_EDGE('',*,*,#426,.F.);
#308=ORIENTED_EDGE('',*,*,#367,.F.);
#309=ORIENTED_EDGE('',*,*,#425,.T.);
#310=ORIENTED_EDGE('',*,*,#403,.F.);
#311=ORIENTED_EDGE('',*,*,#337,.F.);
#312=ORIENTED_EDGE('',*,*,#368,.T.);
#313=ORIENTED_EDGE('',*,*,#426,.T.);
#314=EDGE_CURVE('',#427,#428,#501,.T.);
#315=EDGE_CURVE('',#429,#427,#502,.F.);
#316=EDGE_CURVE('',#430,#429,#503,.T.);
#317=EDGE_CURVE('',#431,#430,#504,.T.);
#318=EDGE_CURVE('',#432,#431,#505,.T.);
#319=EDGE_CURVE('',#433,#432,#506,.F.);
#320=EDGE_CURVE('',#434,#433,#66,.T.);
#321=EDGE_CURVE('',#435,#434,#507,.F.);
#322=EDGE_CURVE('',#436,#435,#34,.F.);
#323=EDGE_CURVE('',#428,#436,#508,.F.);
#324=EDGE_CURVE('',#437,#438,#509,.T.);
#325=EDGE_CURVE('',#439,#437,#510,.T.);
#326=EDGE_CURVE('',#440,#439,#35,.F.);
#327=EDGE_CURVE('',#441,#440,#511,.F.);
#328=EDGE_CURVE('',#442,#441,#36,.F.);
#329=EDGE_CURVE('',#438,#442,#512,.F.);
#330=EDGE_CURVE('',#443,#444,#513,.T.);
#331=EDGE_CURVE('',#445,#443,#514,.T.);
#332=EDGE_CURVE('',#446,#445,#37,.F.);
#333=EDGE_CURVE('',#447,#446,#515,.F.);
#334=EDGE_CURVE('',#448,#447,#67,.F.);
#335=EDGE_CURVE('',#444,#448,#516,.T.);
#336=EDGE_CURVE('',#449,#432,#517,.F.);
#337=EDGE_CURVE('',#449,#450,#518,.T.);
#338=EDGE_CURVE('',#433,#450,#519,.T.);
#339=EDGE_CURVE('',#430,#451,#520,.T.);
#340=EDGE_CURVE('',#452,#451,#521,.T.);
#341=EDGE_CURVE('',#431,#452,#522,.T.);
#342=EDGE_CURVE('',#453,#429,#523,.T.);
#343=EDGE_CURVE('',#454,#453,#524,.T.);
#344=EDGE_CURVE('',#455,#454,#525,.T.);
#345=EDGE_CURVE('',#451,#455,#68,.F.);
#346=EDGE_CURVE('',#456,#427,#526,.F.);
#347=EDGE_CURVE('',#456,#453,#527,.T.);
#348=EDGE_CURVE('',#439,#457,#38,.F.);
#349=EDGE_CURVE('',#458,#457,#39,.F.);
#350=EDGE_CURVE('',#458,#440,#40,.F.);
#351=EDGE_CURVE('',#459,#437,#528,.F.);
#352=EDGE_CURVE('',#457,#459,#529,.T.);
#353=EDGE_CURVE('',#445,#460,#41,.F.);
#354=EDGE_CURVE('',#461,#460,#42,.F.);
#355=EDGE_CURVE('',#461,#446,#43,.F.);
#356=EDGE_CURVE('',#462,#443,#530,.F.);
#357=EDGE_CURVE('',#460,#462,#531,.T.);
#358=EDGE_CURVE('',#452,#463,#69,.F.);
#359=EDGE_CURVE('',#463,#464,#532,.T.);
#360=EDGE_CURVE('',#464,#456,#533,.T.);
#361=EDGE_CURVE('',#428,#465,#534,.T.);
#362=EDGE_CURVE('',#465,#459,#535,.T.);
#363=EDGE_CURVE('',#438,#466,#536,.T.);
#364=EDGE_CURVE('',#466,#462,#537,.T.);
#365=EDGE_CURVE('',#444,#467,#538,.T.);
#366=EDGE_CURVE('',#468,#467,#70,.T.);
#367=EDGE_CURVE('',#468,#469,#539,.F.);
#368=EDGE_CURVE('',#449,#469,#71,.T.);
#369=EDGE_CURVE('',#470,#470,#72,.T.);
#370=EDGE_CURVE('',#471,#471,#73,.T.);
#371=EDGE_CURVE('',#472,#472,#74,.T.);
#372=EDGE_CURVE('',#473,#473,#75,.T.);
#373=EDGE_CURVE('',#474,#475,#540,.F.);
#374=EDGE_CURVE('',#475,#476,#541,.T.);
#375=EDGE_CURVE('',#476,#477,#542,.T.);
#376=EDGE_CURVE('',#477,#474,#543,.F.);
#377=EDGE_CURVE('',#478,#434,#544,.F.);
#378=EDGE_CURVE('',#479,#478,#76,.F.);
#379=EDGE_CURVE('',#480,#479,#545,.F.);
#380=EDGE_CURVE('',#481,#480,#77,.F.);
#381=EDGE_CURVE('',#447,#481,#546,.F.);
#382=EDGE_CURVE('',#482,#461,#44,.F.);
#383=EDGE_CURVE('',#441,#482,#45,.F.);
#384=EDGE_CURVE('',#483,#458,#46,.F.);
#385=EDGE_CURVE('',#435,#483,#47,.F.);
#386=EDGE_CURVE('',#484,#485,#48,.F.);
#387=EDGE_CURVE('',#486,#484,#49,.F.);
#388=EDGE_CURVE('',#487,#486,#50,.F.);
#389=EDGE_CURVE('',#485,#487,#51,.F.);
#390=EDGE_CURVE('',#488,#488,#78,.T.);
#391=EDGE_CURVE('',#489,#489,#79,.T.);
#392=EDGE_CURVE('',#490,#490,#80,.T.);
#393=EDGE_CURVE('',#491,#491,#81,.T.);
#394=EDGE_CURVE('',#464,#454,#547,.T.);
#395=EDGE_CURVE('',#463,#455,#548,.T.);
#396=EDGE_CURVE('',#481,#492,#82,.T.);
#397=EDGE_CURVE('',#492,#448,#549,.T.);
#398=EDGE_CURVE('',#480,#493,#83,.F.);
#399=EDGE_CURVE('',#493,#492,#84,.T.);
#400=EDGE_CURVE('',#479,#494,#85,.T.);
#401=EDGE_CURVE('',#494,#493,#550,.T.);
#402=EDGE_CURVE('',#478,#450,#86,.F.);
#403=EDGE_CURVE('',#450,#494,#87,.T.);
#404=EDGE_CURVE('',#482,#495,#52,.T.);
#405=EDGE_CURVE('',#495,#442,#53,.F.);
#406=EDGE_CURVE('',#460,#495,#54,.F.);
#407=EDGE_CURVE('',#495,#466,#551,.T.);
#408=EDGE_CURVE('',#486,#496,#55,.T.);
#409=EDGE_CURVE('',#496,#497,#56,.F.);
#410=EDGE_CURVE('',#487,#497,#57,.F.);
#411=EDGE_CURVE('',#485,#498,#58,.T.);
#412=EDGE_CURVE('',#498,#499,#59,.F.);
#413=EDGE_CURVE('',#499,#484,#60,.T.);
#414=EDGE_CURVE('',#497,#498,#61,.F.);
#415=EDGE_CURVE('',#499,#496,#62,.F.);
#416=EDGE_CURVE('',#499,#474,#552,.T.);
#417=EDGE_CURVE('',#496,#477,#553,.T.);
#418=EDGE_CURVE('',#498,#475,#554,.T.);
#419=EDGE_CURVE('',#483,#500,#63,.T.);
#420=EDGE_CURVE('',#500,#436,#64,.F.);
#421=EDGE_CURVE('',#457,#500,#65,.F.);
#422=EDGE_CURVE('',#500,#465,#555,.T.);
#423=EDGE_CURVE('',#497,#476,#556,.T.);
#424=EDGE_CURVE('',#467,#492,#557,.T.);
#425=EDGE_CURVE('',#468,#493,#558,.T.);
#426=EDGE_CURVE('',#469,#494,#559,.T.);
#427=VERTEX_POINT('',#1073);
#428=VERTEX_POINT('',#1074);
#429=VERTEX_POINT('',#1076);
#430=VERTEX_POINT('',#1078);
#431=VERTEX_POINT('',#1080);
#432=VERTEX_POINT('',#1082);
#433=VERTEX_POINT('',#1084);
#434=VERTEX_POINT('',#1086);
#435=VERTEX_POINT('',#1088);
#436=VERTEX_POINT('',#1095);
#437=VERTEX_POINT('',#1099);
#438=VERTEX_POINT('',#1100);
#439=VERTEX_POINT('',#1102);
#440=VERTEX_POINT('',#1109);
#441=VERTEX_POINT('',#1111);
#442=VERTEX_POINT('',#1118);
#443=VERTEX_POINT('',#1122);
#444=VERTEX_POINT('',#1123);
#445=VERTEX_POINT('',#1125);
#446=VERTEX_POINT('',#1132);
#447=VERTEX_POINT('',#1134);
#448=VERTEX_POINT('',#1136);
#449=VERTEX_POINT('',#1140);
#450=VERTEX_POINT('',#1142);
#451=VERTEX_POINT('',#1146);
#452=VERTEX_POINT('',#1148);
#453=VERTEX_POINT('',#1152);
#454=VERTEX_POINT('',#1154);
#455=VERTEX_POINT('',#1156);
#456=VERTEX_POINT('',#1160);
#457=VERTEX_POINT('',#1178);
#458=VERTEX_POINT('',#1189);
#459=VERTEX_POINT('',#1196);
#460=VERTEX_POINT('',#1214);
#461=VERTEX_POINT('',#1225);
#462=VERTEX_POINT('',#1232);
#463=VERTEX_POINT('',#1236);
#464=VERTEX_POINT('',#1238);
#465=VERTEX_POINT('',#1241);
#466=VERTEX_POINT('',#1244);
#467=VERTEX_POINT('',#1247);
#468=VERTEX_POINT('',#1249);
#469=VERTEX_POINT('',#1251);
#470=VERTEX_POINT('',#1254);
#471=VERTEX_POINT('',#1256);
#472=VERTEX_POINT('',#1258);
#473=VERTEX_POINT('',#1260);
#474=VERTEX_POINT('',#1262);
#475=VERTEX_POINT('',#1263);
#476=VERTEX_POINT('',#1265);
#477=VERTEX_POINT('',#1267);
#478=VERTEX_POINT('',#1271);
#479=VERTEX_POINT('',#1273);
#480=VERTEX_POINT('',#1275);
#481=VERTEX_POINT('',#1277);
#482=VERTEX_POINT('',#1283);
#483=VERTEX_POINT('',#1292);
#484=VERTEX_POINT('',#1301);
#485=VERTEX_POINT('',#1302);
#486=VERTEX_POINT('',#1307);
#487=VERTEX_POINT('',#1312);
#488=VERTEX_POINT('',#1319);
#489=VERTEX_POINT('',#1323);
#490=VERTEX_POINT('',#1327);
#491=VERTEX_POINT('',#1331);
#492=VERTEX_POINT('',#1340);
#493=VERTEX_POINT('',#1344);
#494=VERTEX_POINT('',#1348);
#495=VERTEX_POINT('',#1375);
#496=VERTEX_POINT('',#1420);
#497=VERTEX_POINT('',#1425);
#498=VERTEX_POINT('',#1457);
#499=VERTEX_POINT('',#1462);
#500=VERTEX_POINT('',#1531);
#501=LINE('',#1072,#560);
#502=LINE('',#1075,#561);
#503=LINE('',#1077,#562);
#504=LINE('',#1079,#563);
#505=LINE('',#1081,#564);
#506=LINE('',#1083,#565);
#507=LINE('',#1087,#566);
#508=LINE('',#1096,#567);
#509=LINE('',#1098,#568);
#510=LINE('',#1101,#569);
#511=LINE('',#1110,#570);
#512=LINE('',#1119,#571);
#513=LINE('',#1121,#572);
#514=LINE('',#1124,#573);
#515=LINE('',#1133,#574);
#516=LINE('',#1137,#575);
#517=LINE('',#1139,#576);
#518=LINE('',#1141,#577);
#519=LINE('',#1143,#578);
#520=LINE('',#1145,#579);
#521=LINE('',#1147,#580);
#522=LINE('',#1149,#581);
#523=LINE('',#1151,#582);
#524=LINE('',#1153,#583);
#525=LINE('',#1155,#584);
#526=LINE('',#1159,#585);
#527=LINE('',#1161,#586);
#528=LINE('',#1195,#587);
#529=LINE('',#1197,#588);
#530=LINE('',#1231,#589);
#531=LINE('',#1233,#590);
#532=LINE('',#1237,#591);
#533=LINE('',#1239,#592);
#534=LINE('',#1240,#593);
#535=LINE('',#1242,#594);
#536=LINE('',#1243,#595);
#537=LINE('',#1245,#596);
#538=LINE('',#1246,#597);
#539=LINE('',#1250,#598);
#540=LINE('',#1261,#599);
#541=LINE('',#1264,#600);
#542=LINE('',#1266,#601);
#543=LINE('',#1268,#602);
#544=LINE('',#1270,#603);
#545=LINE('',#1274,#604);
#546=LINE('',#1278,#605);
#547=LINE('',#1334,#606);
#548=LINE('',#1336,#607);
#549=LINE('',#1341,#608);
#550=LINE('',#1349,#609);
#551=LINE('',#1397,#610);
#552=LINE('',#1506,#611);
#553=LINE('',#1507,#612);
#554=LINE('',#1509,#613);
#555=LINE('',#1553,#614);
#556=LINE('',#1556,#615);
#557=LINE('',#1559,#616);
#558=LINE('',#1561,#617);
#559=LINE('',#1563,#618);
#560=VECTOR('',#891,1.);
#561=VECTOR('',#892,1.);
#562=VECTOR('',#893,1.);
#563=VECTOR('',#894,1.);
#564=VECTOR('',#895,1.);
#565=VECTOR('',#896,1.);
#566=VECTOR('',#899,1.);
#567=VECTOR('',#900,1.);
#568=VECTOR('',#903,1.);
#569=VECTOR('',#904,1.);
#570=VECTOR('',#905,1.);
#571=VECTOR('',#906,1.);
#572=VECTOR('',#909,1.);
#573=VECTOR('',#910,1.);
#574=VECTOR('',#911,1.);
#575=VECTOR('',#914,1.);
#576=VECTOR('',#917,1.);
#577=VECTOR('',#918,1.);
#578=VECTOR('',#919,1.);
#579=VECTOR('',#922,1.);
#580=VECTOR('',#923,1.);
#581=VECTOR('',#924,1.);
#582=VECTOR('',#927,1.);
#583=VECTOR('',#928,1.);
#584=VECTOR('',#929,1.);
#585=VECTOR('',#934,1.);
#586=VECTOR('',#935,1.);
#587=VECTOR('',#938,1.);
#588=VECTOR('',#939,1.);
#589=VECTOR('',#942,1.);
#590=VECTOR('',#943,1.);
#591=VECTOR('',#948,1.);
#592=VECTOR('',#949,1.);
#593=VECTOR('',#950,1.);
#594=VECTOR('',#951,1.);
#595=VECTOR('',#952,1.);
#596=VECTOR('',#953,1.);
#597=VECTOR('',#954,1.);
#598=VECTOR('',#957,1.);
#599=VECTOR('',#968,1.);
#600=VECTOR('',#969,1.);
#601=VECTOR('',#970,1.);
#602=VECTOR('',#971,1.);
#603=VECTOR('',#974,1.);
#604=VECTOR('',#977,1.);
#605=VECTOR('',#980,1.);
#606=VECTOR('',#1007,1.);
#607=VECTOR('',#1010,1.);
#608=VECTOR('',#1017,1.);
#609=VECTOR('',#1028,1.);
#610=VECTOR('',#1039,1.);
#611=VECTOR('',#1044,1.);
#612=VECTOR('',#1045,1.);
#613=VECTOR('',#1048,1.);
#614=VECTOR('',#1051,1.);
#615=VECTOR('',#1056,1.);
#616=VECTOR('',#1061,1.);
#617=VECTOR('',#1064,1.);
#618=VECTOR('',#1067,1.);
#619=EDGE_LOOP('',(#88,#89,#90,#91,#92,#93,#94,#95,#96,#97));
#620=EDGE_LOOP('',(#98,#99,#100,#101,#102,#103));
#621=EDGE_LOOP('',(#104,#105,#106,#107,#108,#109));
#622=EDGE_LOOP('',(#110,#111,#112,#113));
#623=EDGE_LOOP('',(#114,#115,#116,#117));
#624=EDGE_LOOP('',(#118,#119,#120,#121,#122,#123));
#625=EDGE_LOOP('',(#124,#125,#126,#127));
#626=EDGE_LOOP('',(#128,#129,#130,#131));
#627=EDGE_LOOP('',(#132,#133,#134,#135));
#628=EDGE_LOOP('',(#136,#137,#138,#139));
#629=EDGE_LOOP('',(#140,#141,#142,#143));
#630=EDGE_LOOP('',(#144,#145,#146,#147,#148,#149,#150,#151,#152,#153,#154,
#155,#156,#157,#158,#159,#160,#161,#162,#163));
#631=EDGE_LOOP('',(#164));
#632=EDGE_LOOP('',(#165));
#633=EDGE_LOOP('',(#166));
#634=EDGE_LOOP('',(#167));
#635=EDGE_LOOP('',(#168,#169,#170,#171));
#636=EDGE_LOOP('',(#172,#173,#174,#175,#176,#177,#178,#179,#180,#181,#182,
#183,#184,#185));
#637=EDGE_LOOP('',(#186,#187,#188,#189));
#638=EDGE_LOOP('',(#190));
#639=EDGE_LOOP('',(#191));
#640=EDGE_LOOP('',(#192));
#641=EDGE_LOOP('',(#193));
#642=EDGE_LOOP('',(#194));
#643=EDGE_LOOP('',(#195));
#644=EDGE_LOOP('',(#196));
#645=EDGE_LOOP('',(#197));
#646=EDGE_LOOP('',(#198));
#647=EDGE_LOOP('',(#199));
#648=EDGE_LOOP('',(#200));
#649=EDGE_LOOP('',(#201));
#650=EDGE_LOOP('',(#202,#203,#204,#205));
#651=EDGE_LOOP('',(#206,#207,#208,#209));
#652=EDGE_LOOP('',(#210,#211,#212,#213));
#653=EDGE_LOOP('',(#214,#215,#216,#217));
#654=EDGE_LOOP('',(#218,#219,#220,#221));
#655=EDGE_LOOP('',(#222,#223,#224,#225));
#656=EDGE_LOOP('',(#226,#227,#228,#229));
#657=EDGE_LOOP('',(#230,#231,#232,#233));
#658=EDGE_LOOP('',(#234,#235,#236,#237));
#659=EDGE_LOOP('',(#238,#239,#240,#241));
#660=EDGE_LOOP('',(#242,#243,#244,#245));
#661=EDGE_LOOP('',(#246,#247,#248,#249));
#662=EDGE_LOOP('',(#250,#251,#252,#253));
#663=EDGE_LOOP('',(#254,#255,#256,#257));
#664=EDGE_LOOP('',(#258,#259,#260,#261));
#665=EDGE_LOOP('',(#262,#263,#264,#265));
#666=EDGE_LOOP('',(#266,#267,#268,#269));
#667=EDGE_LOOP('',(#270,#271,#272,#273));
#668=EDGE_LOOP('',(#274,#275,#276,#277));
#669=EDGE_LOOP('',(#278,#279,#280,#281));
#670=EDGE_LOOP('',(#282,#283,#284,#285));
#671=EDGE_LOOP('',(#286,#287,#288,#289));
#672=EDGE_LOOP('',(#290,#291,#292,#293));
#673=EDGE_LOOP('',(#294,#295,#296,#297));
#674=EDGE_LOOP('',(#298,#299,#300,#301));
#675=EDGE_LOOP('',(#302,#303,#304,#305));
#676=EDGE_LOOP('',(#306,#307,#308,#309));
#677=EDGE_LOOP('',(#310,#311,#312,#313));
#678=FACE_BOUND('',#619,.T.);
#679=FACE_BOUND('',#620,.T.);
#680=FACE_BOUND('',#621,.T.);
#681=FACE_BOUND('',#622,.T.);
#682=FACE_BOUND('',#623,.T.);
#683=FACE_BOUND('',#624,.T.);
#684=FACE_BOUND('',#625,.T.);
#685=FACE_BOUND('',#626,.T.);
#686=FACE_BOUND('',#627,.T.);
#687=FACE_BOUND('',#628,.T.);
#688=FACE_BOUND('',#629,.T.);
#689=FACE_BOUND('',#630,.T.);
#690=FACE_BOUND('',#631,.T.);
#691=FACE_BOUND('',#632,.T.);
#692=FACE_BOUND('',#633,.T.);
#693=FACE_BOUND('',#634,.T.);
#694=FACE_BOUND('',#635,.T.);
#695=FACE_BOUND('',#636,.T.);
#696=FACE_BOUND('',#637,.T.);
#697=FACE_BOUND('',#638,.T.);
#698=FACE_BOUND('',#639,.T.);
#699=FACE_BOUND('',#640,.T.);
#700=FACE_BOUND('',#641,.T.);
#701=FACE_BOUND('',#642,.T.);
#702=FACE_BOUND('',#643,.T.);
#703=FACE_BOUND('',#644,.T.);
#704=FACE_BOUND('',#645,.T.);
#705=FACE_BOUND('',#646,.T.);
#706=FACE_BOUND('',#647,.T.);
#707=FACE_BOUND('',#648,.T.);
#708=FACE_BOUND('',#649,.T.);
#709=FACE_BOUND('',#650,.T.);
#710=FACE_BOUND('',#651,.T.);
#711=FACE_BOUND('',#652,.T.);
#712=FACE_BOUND('',#653,.T.);
#713=FACE_BOUND('',#654,.T.);
#714=FACE_BOUND('',#655,.T.);
#715=FACE_BOUND('',#656,.T.);
#716=FACE_BOUND('',#657,.T.);
#717=FACE_BOUND('',#658,.T.);
#718=FACE_BOUND('',#659,.T.);
#719=FACE_BOUND('',#660,.T.);
#720=FACE_BOUND('',#661,.T.);
#721=FACE_BOUND('',#662,.T.);
#722=FACE_BOUND('',#663,.T.);
#723=FACE_BOUND('',#664,.T.);
#724=FACE_BOUND('',#665,.T.);
#725=FACE_BOUND('',#666,.T.);
#726=FACE_BOUND('',#667,.T.);
#727=FACE_BOUND('',#668,.T.);
#728=FACE_BOUND('',#669,.T.);
#729=FACE_BOUND('',#670,.T.);
#730=FACE_BOUND('',#671,.T.);
#731=FACE_BOUND('',#672,.T.);
#732=FACE_BOUND('',#673,.T.);
#733=FACE_BOUND('',#674,.T.);
#734=FACE_BOUND('',#675,.T.);
#735=FACE_BOUND('',#676,.T.);
#736=FACE_BOUND('',#677,.T.);
#737=PLANE('',#826);
#738=PLANE('',#828);
#739=PLANE('',#829);
#740=PLANE('',#831);
#741=PLANE('',#832);
#742=PLANE('',#833);
#743=PLANE('',#835);
#744=PLANE('',#836);
#745=PLANE('',#837);
#746=PLANE('',#838);
#747=PLANE('',#846);
#748=PLANE('',#851);
#749=PLANE('',#854);
#750=PLANE('',#857);
#751=PLANE('',#860);
#752=PLANE('',#861);
#753=PLANE('',#862);
#754=PLANE('',#875);
#755=PLANE('',#876);
#756=PLANE('',#877);
#757=PLANE('',#878);
#758=PLANE('',#879);
#759=PLANE('',#880);
#760=PLANE('',#881);
#761=PLANE('',#882);
#762=PLANE('',#883);
#763=PLANE('',#885);
#764=ADVANCED_FACE('',(#678),#737,.F.);
#765=ADVANCED_FACE('',(#679),#738,.F.);
#766=ADVANCED_FACE('',(#680),#739,.F.);
#767=ADVANCED_FACE('',(#681),#740,.T.);
#768=ADVANCED_FACE('',(#682),#741,.F.);
#769=ADVANCED_FACE('',(#683),#742,.T.);
#770=ADVANCED_FACE('',(#684),#743,.F.);
#771=ADVANCED_FACE('',(#685),#24,.T.);
#772=ADVANCED_FACE('',(#686),#744,.F.);
#773=ADVANCED_FACE('',(#687),#25,.T.);
#774=ADVANCED_FACE('',(#688),#745,.F.);
#775=ADVANCED_FACE('',(#689,#690,#691,#692,#693,#694),#746,.F.);
#776=ADVANCED_FACE('',(#695,#696),#747,.T.);
#777=ADVANCED_FACE('',(#697,#698),#14,.F.);
#778=ADVANCED_FACE('',(#699),#748,.T.);
#779=ADVANCED_FACE('',(#700,#701),#15,.F.);
#780=ADVANCED_FACE('',(#702),#749,.T.);
#781=ADVANCED_FACE('',(#703,#704),#16,.F.);
#782=ADVANCED_FACE('',(#705),#750,.T.);
#783=ADVANCED_FACE('',(#706,#707),#17,.F.);
#784=ADVANCED_FACE('',(#708),#751,.T.);
#785=ADVANCED_FACE('',(#709),#752,.F.);
#786=ADVANCED_FACE('',(#710),#753,.F.);
#787=ADVANCED_FACE('',(#711),#18,.T.);
#788=ADVANCED_FACE('',(#712),#19,.T.);
#789=ADVANCED_FACE('',(#713),#12,.T.);
#790=ADVANCED_FACE('',(#714),#20,.T.);
#791=ADVANCED_FACE('',(#715),#13,.T.);
#792=ADVANCED_FACE('',(#716),#21,.T.);
#793=ADVANCED_FACE('',(#717),#26,.T.);
#794=ADVANCED_FACE('',(#718),#27,.T.);
#795=ADVANCED_FACE('',(#719),#754,.F.);
#796=ADVANCED_FACE('',(#720),#755,.F.);
#797=ADVANCED_FACE('',(#721),#28,.T.);
#798=ADVANCED_FACE('',(#722),#29,.T.);
#799=ADVANCED_FACE('',(#723),#30,.T.);
#800=ADVANCED_FACE('',(#724),#31,.T.);
#801=ADVANCED_FACE('',(#725),#756,.F.);
#802=ADVANCED_FACE('',(#726),#757,.F.);
#803=ADVANCED_FACE('',(#727),#32,.T.);
#804=ADVANCED_FACE('',(#728),#33,.T.);
#805=ADVANCED_FACE('',(#729),#758,.F.);
#806=ADVANCED_FACE('',(#730),#759,.F.);
#807=ADVANCED_FACE('',(#731),#760,.F.);
#808=ADVANCED_FACE('',(#732),#761,.F.);
#809=ADVANCED_FACE('',(#733),#762,.T.);
#810=ADVANCED_FACE('',(#734),#22,.T.);
#811=ADVANCED_FACE('',(#735),#763,.T.);
#812=ADVANCED_FACE('',(#736),#23,.T.);
#813=CLOSED_SHELL('',(#764,#765,#766,#767,#768,#769,#770,#771,#772,#773,
#774,#775,#776,#777,#778,#779,#780,#781,#782,#783,#784,#785,#786,#787,#788,
#789,#790,#791,#792,#793,#794,#795,#796,#797,#798,#799,#800,#801,#802,#803,
#804,#805,#806,#807,#808,#809,#810,#811,#812));
#814=STYLED_ITEM('',(#815),#822);
#815=PRESENTATION_STYLE_ASSIGNMENT((#816));
#816=SURFACE_STYLE_USAGE(.BOTH.,#817);
#817=SURFACE_SIDE_STYLE('',(#818));
#818=SURFACE_STYLE_FILL_AREA(#819);
#819=FILL_AREA_STYLE('',(#820));
#820=FILL_AREA_STYLE_COLOUR('',#821);
#821=COLOUR_RGB('',0.282352941176471,0.137254901960784,0.0941176470588235);
#822=MANIFOLD_SOLID_BREP('top shell left half:1__Body1',#813);
#823=SHAPE_DEFINITION_REPRESENTATION(#1571,#824);
#824=SHAPE_REPRESENTATION('top shell left half:1__Body1',(#825),#1566);
#825=AXIS2_PLACEMENT_3D('',#1070,#887,#888);
#826=AXIS2_PLACEMENT_3D('',#1071,#889,#890);
#827=AXIS2_PLACEMENT_3D('',#1085,#897,#898);
#828=AXIS2_PLACEMENT_3D('',#1097,#901,#902);
#829=AXIS2_PLACEMENT_3D('',#1120,#907,#908);
#830=AXIS2_PLACEMENT_3D('',#1135,#912,#913);
#831=AXIS2_PLACEMENT_3D('',#1138,#915,#916);
#832=AXIS2_PLACEMENT_3D('',#1144,#920,#921);
#833=AXIS2_PLACEMENT_3D('',#1150,#925,#926);
#834=AXIS2_PLACEMENT_3D('',#1157,#930,#931);
#835=AXIS2_PLACEMENT_3D('',#1158,#932,#933);
#836=AXIS2_PLACEMENT_3D('',#1194,#936,#937);
#837=AXIS2_PLACEMENT_3D('',#1230,#940,#941);
#838=AXIS2_PLACEMENT_3D('',#1234,#944,#945);
#839=AXIS2_PLACEMENT_3D('',#1235,#946,#947);
#840=AXIS2_PLACEMENT_3D('',#1248,#955,#956);
#841=AXIS2_PLACEMENT_3D('',#1252,#958,#959);
#842=AXIS2_PLACEMENT_3D('',#1253,#960,#961);
#843=AXIS2_PLACEMENT_3D('',#1255,#962,#963);
#844=AXIS2_PLACEMENT_3D('',#1257,#964,#965);
#845=AXIS2_PLACEMENT_3D('',#1259,#966,#967);
#846=AXIS2_PLACEMENT_3D('',#1269,#972,#973);
#847=AXIS2_PLACEMENT_3D('',#1272,#975,#976);
#848=AXIS2_PLACEMENT_3D('',#1276,#978,#979);
#849=AXIS2_PLACEMENT_3D('',#1317,#981,#982);
#850=AXIS2_PLACEMENT_3D('',#1318,#983,#984);
#851=AXIS2_PLACEMENT_3D('',#1320,#985,#986);
#852=AXIS2_PLACEMENT_3D('',#1321,#987,#988);
#853=AXIS2_PLACEMENT_3D('',#1322,#989,#990);
#854=AXIS2_PLACEMENT_3D('',#1324,#991,#992);
#855=AXIS2_PLACEMENT_3D('',#1325,#993,#994);
#856=AXIS2_PLACEMENT_3D('',#1326,#995,#996);
#857=AXIS2_PLACEMENT_3D('',#1328,#997,#998);
#858=AXIS2_PLACEMENT_3D('',#1329,#999,#1000);
#859=AXIS2_PLACEMENT_3D('',#1330,#1001,#1002);
#860=AXIS2_PLACEMENT_3D('',#1332,#1003,#1004);
#861=AXIS2_PLACEMENT_3D('',#1333,#1005,#1006);
#862=AXIS2_PLACEMENT_3D('',#1335,#1008,#1009);
#863=AXIS2_PLACEMENT_3D('',#1337,#1011,#1012);
#864=AXIS2_PLACEMENT_3D('',#1338,#1013,#1014);
#865=AXIS2_PLACEMENT_3D('',#1339,#1015,#1016);
#866=AXIS2_PLACEMENT_3D('',#1342,#1018,#1019);
#867=AXIS2_PLACEMENT_3D('',#1343,#1020,#1021);
#868=AXIS2_PLACEMENT_3D('',#1345,#1022,#1023);
#869=AXIS2_PLACEMENT_3D('',#1346,#1024,#1025);
#870=AXIS2_PLACEMENT_3D('',#1347,#1026,#1027);
#871=AXIS2_PLACEMENT_3D('',#1350,#1029,#1030);
#872=AXIS2_PLACEMENT_3D('',#1351,#1031,#1032);
#873=AXIS2_PLACEMENT_3D('',#1352,#1033,#1034);
#874=AXIS2_PLACEMENT_3D('',#1353,#1035,#1036);
#875=AXIS2_PLACEMENT_3D('',#1396,#1037,#1038);
#876=AXIS2_PLACEMENT_3D('',#1398,#1040,#1041);
#877=AXIS2_PLACEMENT_3D('',#1505,#1042,#1043);
#878=AXIS2_PLACEMENT_3D('',#1508,#1046,#1047);
#879=AXIS2_PLACEMENT_3D('',#1552,#1049,#1050);
#880=AXIS2_PLACEMENT_3D('',#1554,#1052,#1053);
#881=AXIS2_PLACEMENT_3D('',#1555,#1054,#1055);
#882=AXIS2_PLACEMENT_3D('',#1557,#1057,#1058);
#883=AXIS2_PLACEMENT_3D('',#1558,#1059,#1060);
#884=AXIS2_PLACEMENT_3D('',#1560,#1062,#1063);
#885=AXIS2_PLACEMENT_3D('',#1562,#1065,#1066);
#886=AXIS2_PLACEMENT_3D('',#1564,#1068,#1069);
#887=DIRECTION('',(0.,0.,1.));
#888=DIRECTION('',(1.,0.,0.));
#889=DIRECTION('',(-1.,-1.0980076890841E-16,6.12323399573677E-17));
#890=DIRECTION('',(6.12323399573677E-17,0.,1.));
#891=DIRECTION('',(0.,-1.,0.));
#892=DIRECTION('',(0.,0.,1.));
#893=DIRECTION('',(0.,-1.,0.));
#894=DIRECTION('',(0.,0.,1.));
#895=DIRECTION('',(0.,-1.,0.));
#896=DIRECTION('',(0.,0.,1.));
#897=DIRECTION('',(-1.,0.,0.));
#898=DIRECTION('',(0.,0.,1.));
#899=DIRECTION('',(0.,-1.,0.));
#900=DIRECTION('',(0.,0.,-1.));
#901=DIRECTION('',(-1.,-1.0980076890841E-16,6.12323399573677E-17));
#902=DIRECTION('',(6.12323399573677E-17,0.,1.));
#903=DIRECTION('',(0.,-1.,0.));
#904=DIRECTION('',(0.,0.,-1.));
#905=DIRECTION('',(0.,-1.,0.));
#906=DIRECTION('',(0.,0.,-1.));
#907=DIRECTION('',(-1.,-1.0980076890841E-16,6.12323399573677E-17));
#908=DIRECTION('',(6.12323399573677E-17,0.,1.));
#909=DIRECTION('',(0.,-1.,0.));
#910=DIRECTION('',(0.,0.,-1.));
#911=DIRECTION('',(0.,-1.,0.));
#912=DIRECTION('',(1.,5.2169070173282E-17,-3.08148791101957E-33));
#913=DIRECTION('',(-5.2169070173282E-17,1.,0.));
#914=DIRECTION('',(0.,0.,1.));
#915=DIRECTION('',(0.,1.,0.));
#916=DIRECTION('',(-1.,0.,0.));
#917=DIRECTION('',(-1.,0.,0.));
#918=DIRECTION('',(0.,0.,1.));
#919=DIRECTION('',(-1.,0.,0.));
#920=DIRECTION('',(1.19940322006742E-16,1.,0.));
#921=DIRECTION('',(-1.,1.19940322006742E-16,0.));
#922=DIRECTION('',(-1.,1.19940322006742E-16,0.));
#923=DIRECTION('',(0.,0.,1.));
#924=DIRECTION('',(-1.,0.,0.));
#925=DIRECTION('',(0.,0.,-1.));
#926=DIRECTION('',(1.,0.,0.));
#927=DIRECTION('',(1.,0.,0.));
#928=DIRECTION('',(0.,-1.,0.));
#929=DIRECTION('',(-1.,4.85926655822381E-17,0.));
#930=DIRECTION('',(0.,0.,1.));
#931=DIRECTION('',(1.,0.,0.));
#932=DIRECTION('',(0.,-1.,0.));
#933=DIRECTION('',(1.,0.,0.));
#934=DIRECTION('',(-1.,0.,0.));
#935=DIRECTION('',(0.,0.,1.));
#936=DIRECTION('',(0.,-1.,0.));
#937=DIRECTION('',(-1.,0.,0.));
#938=DIRECTION('',(-1.,0.,0.));
#939=DIRECTION('',(0.,0.,-1.));
#940=DIRECTION('',(0.,-1.,0.));
#941=DIRECTION('',(-1.,0.,0.));
#942=DIRECTION('',(-1.,0.,0.));
#943=DIRECTION('',(0.,0.,-1.));
#944=DIRECTION('',(0.,0.,1.));
#945=DIRECTION('',(-1.,0.,0.));
#946=DIRECTION('',(0.,0.,1.));
#947=DIRECTION('',(1.,0.,0.));
#948=DIRECTION('',(-1.,0.,0.));
#949=DIRECTION('',(0.,-1.,0.));
#950=DIRECTION('',(-1.,0.,0.));
#951=DIRECTION('',(0.,-1.,0.));
#952=DIRECTION('',(-1.,0.,0.));
#953=DIRECTION('',(0.,-1.,0.));
#954=DIRECTION('',(-1.,0.,0.));
#955=DIRECTION('',(0.,0.,1.));
#956=DIRECTION('',(1.,0.,0.));
#957=DIRECTION('',(0.,-1.,0.));
#958=DIRECTION('',(0.,0.,1.));
#959=DIRECTION('',(1.,0.,0.));
#960=DIRECTION('',(0.,0.,1.));
#961=DIRECTION('',(1.,0.,0.));
#962=DIRECTION('',(0.,0.,1.));
#963=DIRECTION('',(1.,0.,0.));
#964=DIRECTION('',(0.,0.,1.));
#965=DIRECTION('',(1.,0.,0.));
#966=DIRECTION('',(0.,0.,1.));
#967=DIRECTION('',(1.,0.,0.));
#968=DIRECTION('',(0.,-1.,0.));
#969=DIRECTION('',(-1.,0.,0.));
#970=DIRECTION('',(0.,-1.,0.));
#971=DIRECTION('',(-1.,0.,0.));
#972=DIRECTION('',(0.,0.,1.));
#973=DIRECTION('',(-1.,0.,0.));
#974=DIRECTION('',(-1.,0.,0.));
#975=DIRECTION('',(0.,0.,1.));
#976=DIRECTION('',(1.,0.,0.));
#977=DIRECTION('',(-4.79508936636262E-17,-1.,-6.16297582203916E-33));
#978=DIRECTION('',(0.,0.,1.));
#979=DIRECTION('',(1.,0.,0.));
#980=DIRECTION('',(1.,5.2169070173282E-17,-3.08148791101957E-33));
#981=DIRECTION('',(0.,0.,1.));
#982=DIRECTION('',(1.,0.,0.));
#983=DIRECTION('',(0.,0.,1.));
#984=DIRECTION('',(1.,0.,0.));
#985=DIRECTION('',(0.,0.,-1.));
#986=DIRECTION('',(1.,0.,0.));
#987=DIRECTION('',(0.,0.,1.));
#988=DIRECTION('',(1.,0.,0.));
#989=DIRECTION('',(0.,0.,1.));
#990=DIRECTION('',(1.,0.,0.));
#991=DIRECTION('',(0.,0.,-1.));
#992=DIRECTION('',(1.,0.,0.));
#993=DIRECTION('',(0.,0.,1.));
#994=DIRECTION('',(1.,0.,0.));
#995=DIRECTION('',(0.,0.,1.));
#996=DIRECTION('',(1.,0.,0.));
#997=DIRECTION('',(0.,0.,-1.));
#998=DIRECTION('',(1.,0.,0.));
#999=DIRECTION('',(0.,0.,1.));
#1000=DIRECTION('',(1.,0.,0.));
#1001=DIRECTION('',(0.,0.,1.));
#1002=DIRECTION('',(1.,0.,0.));
#1003=DIRECTION('',(0.,0.,-1.));
#1004=DIRECTION('',(1.,0.,0.));
#1005=DIRECTION('',(-1.,0.,0.));
#1006=DIRECTION('',(0.,-1.,0.));
#1007=DIRECTION('',(0.,0.,1.));
#1008=DIRECTION('',(4.85926655822381E-17,1.,0.));
#1009=DIRECTION('',(-1.,4.85926655822381E-17,0.));
#1010=DIRECTION('',(0.,0.,1.));
#1011=DIRECTION('',(0.,0.,1.));
#1012=DIRECTION('',(0.97350835982596,-0.228651423238452,0.));
#1013=DIRECTION('',(1.,5.2169070173282E-17,-3.08148791101957E-33));
#1014=DIRECTION('',(3.68891032877243E-17,-0.707106781186544,0.707106781186551));
#1015=DIRECTION('',(1.,5.2169070173282E-17,-3.08148791101957E-33));
#1016=DIRECTION('',(-5.2169070173282E-17,1.,0.));
#1017=DIRECTION('',(1.,5.2169070173282E-17,-3.08148791101957E-33));
#1018=DIRECTION('',(0.,0.,1.));
#1019=DIRECTION('',(1.,0.,0.));
#1020=DIRECTION('',(-2.09798136933558E-15,1.,0.));
#1021=DIRECTION('',(-1.,-2.09798136933558E-15,0.));
#1022=DIRECTION('',(0.,0.,1.));
#1023=DIRECTION('',(1.,0.,0.));
#1024=DIRECTION('',(-4.79508936636262E-17,-1.,-6.16297582203916E-33));
#1025=DIRECTION('',(-0.707106781186546,3.3906402073505E-17,0.707106781186549));
#1026=DIRECTION('',(-4.79508936636262E-17,-1.,-6.16297582203916E-33));
#1027=DIRECTION('',(1.,-4.79508936636262E-17,0.));
#1028=DIRECTION('',(-4.79508936636262E-17,-1.,-6.16297582203916E-33));
#1029=DIRECTION('',(0.,0.,1.));
#1030=DIRECTION('',(1.,0.,0.));
#1031=DIRECTION('',(1.,1.27103528959282E-15,0.));
#1032=DIRECTION('',(-1.27103528959282E-15,1.,0.));
#1033=DIRECTION('',(0.,0.,1.));
#1034=DIRECTION('',(1.,0.,0.));
#1035=DIRECTION('',(-1.,0.,0.));
#1036=DIRECTION('',(0.,0.707106781186547,0.707106781186548));
#1037=DIRECTION('',(3.78877495313772E-15,1.,0.));
#1038=DIRECTION('',(1.,-3.78877495313772E-15,0.));
#1039=DIRECTION('',(0.,0.,-1.));
#1040=DIRECTION('',(-1.,-6.45637806890091E-15,0.));
#1041=DIRECTION('',(-6.45637806890091E-15,1.,0.));
#1042=DIRECTION('',(0.,-1.,0.));
#1043=DIRECTION('',(-1.,0.,0.));
#1044=DIRECTION('',(0.,0.,-1.));
#1045=DIRECTION('',(0.,0.,-1.));
#1046=DIRECTION('',(1.,0.,0.));
#1047=DIRECTION('',(0.,-1.,0.));
#1048=DIRECTION('',(0.,0.,-1.));
#1049=DIRECTION('',(0.,1.,0.));
#1050=DIRECTION('',(1.,0.,0.));
#1051=DIRECTION('',(0.,0.,-1.));
#1052=DIRECTION('',(-1.,0.,0.));
#1053=DIRECTION('',(0.,1.,0.));
#1054=DIRECTION('',(-1.,0.,0.));
#1055=DIRECTION('',(0.,1.,0.));
#1056=DIRECTION('',(0.,0.,-1.));
#1057=DIRECTION('',(0.,1.,0.));
#1058=DIRECTION('',(1.,0.,0.));
#1059=DIRECTION('',(5.2169070173282E-17,-1.,0.));
#1060=DIRECTION('',(1.,5.2169070173282E-17,0.));
#1061=DIRECTION('',(0.,0.,1.));
#1062=DIRECTION('',(0.,0.,1.));
#1063=DIRECTION('',(-1.,1.554117969729E-15,0.));
#1064=DIRECTION('',(0.,0.,1.));
#1065=DIRECTION('',(-1.,4.79508936636262E-17,0.));
#1066=DIRECTION('',(-4.79508936636262E-17,-1.,0.));
#1067=DIRECTION('',(0.,0.,1.));
#1068=DIRECTION('',(0.,0.,1.));
#1069=DIRECTION('',(-2.23689025647884E-15,1.,0.));
#1070=CARTESIAN_POINT('',(0.,0.,0.));
#1071=CARTESIAN_POINT('',(0.135730471383383,-0.07451,0.00955880273915273));
#1072=CARTESIAN_POINT('',(0.135730471383383,-0.07451,0.006223));
#1073=CARTESIAN_POINT('',(0.135730471383383,-0.01374,0.006223));
#1074=CARTESIAN_POINT('',(0.135730471383383,-0.0198081848288371,0.006223));
#1075=CARTESIAN_POINT('',(0.135730471383383,-0.01374,0.006223));
#1076=CARTESIAN_POINT('',(0.135730471383383,-0.01374,0.008763));
#1077=CARTESIAN_POINT('',(0.135730471383383,-0.00947,0.008763));
#1078=CARTESIAN_POINT('',(0.135730471383383,-0.00519999999999992,0.008763));
#1079=CARTESIAN_POINT('',(0.135730471383383,-0.00519999999999992,0.006223));
#1080=CARTESIAN_POINT('',(0.135730471383383,-0.00519999999999993,0.006223));
#1081=CARTESIAN_POINT('',(0.135730471383383,-0.07451,0.006223));
#1082=CARTESIAN_POINT('',(0.135730471383383,0.00638000000000008,0.006223));
#1083=CARTESIAN_POINT('',(0.135730471383383,0.00638000000000008,0.006223));
#1084=CARTESIAN_POINT('',(0.135730471383383,0.00638000000000008,0.010033));
#1085=CARTESIAN_POINT('',(0.135730471383383,0.00511000000000008,0.010033));
#1086=CARTESIAN_POINT('',(0.135730471383383,0.00511000000000008,0.011303));
#1087=CARTESIAN_POINT('',(0.135730471383383,-0.07451,0.011303));
#1088=CARTESIAN_POINT('',(0.1357304713413,-0.0190461848288371,0.011303));
#1089=CARTESIAN_POINT('',(0.135730471383383,-0.0190461848288372,0.011303));
#1090=CARTESIAN_POINT('',(0.135730471383383,-0.0191359873900479,0.011303));
#1091=CARTESIAN_POINT('',(0.135730471383383,-0.0193289999181879,0.0111976033070349));
#1092=CARTESIAN_POINT('',(0.135730471383383,-0.0196932467066791,0.010415834060687));
#1093=CARTESIAN_POINT('',(0.135730471383383,-0.0198081848288372,0.0093616837414046));
#1094=CARTESIAN_POINT('',(0.135730471383383,-0.0198081848288372,0.008763));
#1095=CARTESIAN_POINT('',(0.1357304713413,-0.0198081848288371,0.00876299995849629));
#1096=CARTESIAN_POINT('',(0.135730471383383,-0.0198081848288371,0.011303));
#1097=CARTESIAN_POINT('',(0.135730471383383,-0.07451,0.00955880273915273));
#1098=CARTESIAN_POINT('',(0.135730471383383,-0.07451,0.006223));
#1099=CARTESIAN_POINT('',(0.135730471383383,-0.0399058422788782,0.006223));
#1100=CARTESIAN_POINT('',(0.135730471383383,-0.0437000488683744,0.006223));
#1101=CARTESIAN_POINT('',(0.135730471383383,-0.0399058422788782,0.011303));
#1102=CARTESIAN_POINT('',(0.135730471258399,-0.0399058422788782,0.008763));
#1103=CARTESIAN_POINT('',(0.135730471383383,-0.0399058422788783,0.008763));
#1104=CARTESIAN_POINT('',(0.135730471383383,-0.0399058422788783,0.0093616837414046));
#1105=CARTESIAN_POINT('',(0.135730471383383,-0.0400207928464841,0.010415857401117));
#1106=CARTESIAN_POINT('',(0.135730471383383,-0.0403850302605407,0.0111976091281605));
#1107=CARTESIAN_POINT('',(0.135730471383383,-0.0405780397176676,0.011303));
#1108=CARTESIAN_POINT('',(0.135730471383383,-0.0406678422788783,0.011303));
#1109=CARTESIAN_POINT('',(0.1357304713413,-0.0406678423204999,0.011303));
#1110=CARTESIAN_POINT('',(0.135730471383383,-0.07451,0.011303));
#1111=CARTESIAN_POINT('',(0.1357304713413,-0.0429380488683744,0.011303));
#1112=CARTESIAN_POINT('',(0.135730471383383,-0.0429380488683745,0.011303));
#1113=CARTESIAN_POINT('',(0.135730471383383,-0.0430278514295852,0.011303));
#1114=CARTESIAN_POINT('',(0.135730471383383,-0.0432208605856154,0.011197609698837));
#1115=CARTESIAN_POINT('',(0.135730471383383,-0.0435850970871037,0.0104158596772679));
#1116=CARTESIAN_POINT('',(0.135730471383383,-0.0437000488683745,0.00936168374140461));
#1117=CARTESIAN_POINT('',(0.135730471383383,-0.0437000488683745,0.008763));
#1118=CARTESIAN_POINT('',(0.1357304713413,-0.0437000488683744,0.0087629999584963));
#1119=CARTESIAN_POINT('',(0.135730471383383,-0.0437000488683744,0.011303));
#1120=CARTESIAN_POINT('',(0.135730471383383,-0.07451,0.00955880273915273));
#1121=CARTESIAN_POINT('',(0.135730471383383,-0.07451,0.006223));
#1122=CARTESIAN_POINT('',(0.135730471383383,-0.140044989127607,0.006223));
#1123=CARTESIAN_POINT('',(0.135730471383383,-0.1554,0.006223));
#1124=CARTESIAN_POINT('',(0.135730471383383,-0.140044989127607,0.011303));
#1125=CARTESIAN_POINT('',(0.135730471258399,-0.140044989127607,0.008763));
#1126=CARTESIAN_POINT('',(0.135730471383383,-0.140044989127607,0.008763));
#1127=CARTESIAN_POINT('',(0.135730471383383,-0.140044989127607,0.0093616837414046));
#1128=CARTESIAN_POINT('',(0.135730471383383,-0.140159974031523,0.0104159217979633));
#1129=CARTESIAN_POINT('',(0.135730471383383,-0.140524185736863,0.011197625476675));
#1130=CARTESIAN_POINT('',(0.135730471383383,-0.140717186566396,0.011303));
#1131=CARTESIAN_POINT('',(0.135730471383383,-0.140806989127607,0.011303));
#1132=CARTESIAN_POINT('',(0.1357304713413,-0.140806989169228,0.011303));
#1133=CARTESIAN_POINT('',(0.135730471383383,-0.07451,0.011303));
#1134=CARTESIAN_POINT('',(0.135730471383383,-0.15413,0.011303));
#1135=CARTESIAN_POINT('',(0.135730471383383,-0.15413,0.010033));
#1136=CARTESIAN_POINT('',(0.135730471383383,-0.1554,0.010033));
#1137=CARTESIAN_POINT('',(0.135730471383383,-0.1554,0.006223));
#1138=CARTESIAN_POINT('',(0.340492,0.00638000000000008,0.006223));
#1139=CARTESIAN_POINT('',(0.170242,0.00638000000000008,0.006223));
#1140=CARTESIAN_POINT('',(-7.99999999998635E-6,0.00638000000000008,0.006223));
#1141=CARTESIAN_POINT('',(-8.000000000008E-6,0.00638000000000008,0.006223));
#1142=CARTESIAN_POINT('',(-7.99999999998635E-6,0.00638000000000008,0.010033));
#1143=CARTESIAN_POINT('',(0.255367,0.00638000000000008,0.010033));
#1144=CARTESIAN_POINT('',(0.146742,-0.00519999999999993,0.006223));
#1145=CARTESIAN_POINT('',(0.146742,-0.00519999999999993,0.008763));
#1146=CARTESIAN_POINT('',(0.035664456830214,-0.00519999999999991,0.008763));
#1147=CARTESIAN_POINT('',(0.035664456830214,-0.00519999999999991,0.006223));
#1148=CARTESIAN_POINT('',(0.035664456830214,-0.00519999999999992,0.006223));
#1149=CARTESIAN_POINT('',(0.170242,-0.00519999999999993,0.006223));
#1150=CARTESIAN_POINT('',(0.075607,-0.00947,0.008763));
#1151=CARTESIAN_POINT('',(0.004472,-0.01374,0.008763));
#1152=CARTESIAN_POINT('',(0.004472,-0.01374,0.008763));
#1153=CARTESIAN_POINT('',(0.004472,-0.0051999999999999,0.008763));
#1154=CARTESIAN_POINT('',(0.004472,-0.0051999999999999,0.008763));
#1155=CARTESIAN_POINT('',(0.0273195431697859,-0.0051999999999999,0.008763));
#1156=CARTESIAN_POINT('',(0.0273195431697859,-0.0051999999999999,0.008763));
#1157=CARTESIAN_POINT('',(0.031492,-0.00421999999999991,0.008763));
#1158=CARTESIAN_POINT('',(0.004472,-0.01374,0.006223));
#1159=CARTESIAN_POINT('',(0.170242,-0.01374,0.006223));
#1160=CARTESIAN_POINT('',(0.004472,-0.01374,0.006223));
#1161=CARTESIAN_POINT('',(0.004472,-0.01374,0.006223));
#1162=CARTESIAN_POINT('',(0.135730471362341,-0.0406743081051569,0.011303));
#1163=CARTESIAN_POINT('',(0.0223932515201387,-0.0406743081051569,0.011303));
#1164=CARTESIAN_POINT('',(0.135730471362341,-0.0405839667250896,0.011303));
#1165=CARTESIAN_POINT('',(0.0223932515201386,-0.0405839667250896,0.011303));
#1166=CARTESIAN_POINT('',(0.135730471362341,-0.0403904167622815,0.0112061052550866));
#1167=CARTESIAN_POINT('',(0.0223932515201387,-0.0403904167622815,0.0112061052550866));
#1168=CARTESIAN_POINT('',(0.135730471362341,-0.0400224039843807,0.0104260085750244));
#1169=CARTESIAN_POINT('',(0.0223932515201386,-0.0400224039843807,0.0104260085750244));
#1170=CARTESIAN_POINT('',(0.135730471362341,-0.0399058422788782,0.00936527586711497));
#1171=CARTESIAN_POINT('',(0.0223932515201387,-0.0399058422788782,0.00936527586711497));
#1172=CARTESIAN_POINT('',(0.135730471362341,-0.0399058422788782,0.008763));
#1173=CARTESIAN_POINT('',(0.0223932515201387,-0.0399058422788782,0.008763));
#1174=CARTESIAN_POINT('',(0.023831219012882,-0.0399058422788782,0.008763));
#1175=CARTESIAN_POINT('',(0.0611309697613876,-0.0399058422788782,0.008763));
#1176=CARTESIAN_POINT('',(0.0984307205098932,-0.0399058422788782,0.008763));
#1177=CARTESIAN_POINT('',(0.135730471258399,-0.0399058422788782,0.008763));
#1178=CARTESIAN_POINT('',(0.0238312190128818,-0.0399058422157532,0.00876299987555446));
#1179=CARTESIAN_POINT('',(0.0238312189497569,-0.0399058422788782,0.008763));
#1180=CARTESIAN_POINT('',(0.0238312189497569,-0.0399058422788782,0.00905175921536867));
#1181=CARTESIAN_POINT('',(0.0238046886445872,-0.0399320839482088,0.00952284859362858));
#1182=CARTESIAN_POINT('',(0.0237214642624327,-0.0400151640628738,0.010106224710894));
#1183=CARTESIAN_POINT('',(0.0236247007180302,-0.0401126124032164,0.0105222798792863));
#1184=CARTESIAN_POINT('',(0.0235352716631314,-0.0402013643118639,0.0107845772874621));
#1185=CARTESIAN_POINT('',(0.0233998243221135,-0.0403367842147431,0.0110781661395867));
#1186=CARTESIAN_POINT('',(0.0232320626331365,-0.0405078149818435,0.0112688069958209));
#1187=CARTESIAN_POINT('',(0.0231242495060529,-0.040615678939199,0.0113029999804737));
#1188=CARTESIAN_POINT('',(0.0230692190341081,-0.040667842194527,0.011303));
#1189=CARTESIAN_POINT('',(0.023069219034108,-0.0406678421945269,0.011303));
#1190=CARTESIAN_POINT('',(0.135730471383383,-0.0406678422788783,0.011303));
#1191=CARTESIAN_POINT('',(0.0981767206002914,-0.0406678422788783,0.011303));
#1192=CARTESIAN_POINT('',(0.0606229698171997,-0.0406678422788783,0.011303));
#1193=CARTESIAN_POINT('',(0.0230692190341081,-0.0406678422788783,0.011303));
#1194=CARTESIAN_POINT('',(0.286622232290541,-0.0399058422788782,0.011303));
#1195=CARTESIAN_POINT('',(0.170242,-0.0399058422788782,0.006223));
#1196=CARTESIAN_POINT('',(0.0238312189497568,-0.0399058422788782,0.006223));
#1197=CARTESIAN_POINT('',(0.0238312189497568,-0.0399058422788782,0.011303));
#1198=CARTESIAN_POINT('',(0.135730471362341,-0.140813454953885,0.011303));
#1199=CARTESIAN_POINT('',(-0.00204671910813548,-0.140813454953885,0.011303));
#1200=CARTESIAN_POINT('',(0.135730471362341,-0.140723113573818,0.011303));
#1201=CARTESIAN_POINT('',(-0.00204671910813556,-0.140723113573818,0.011303));
#1202=CARTESIAN_POINT('',(0.135730471362341,-0.140529571759742,0.0112061207020098));
#1203=CARTESIAN_POINT('',(-0.00204671910813561,-0.140529571759742,0.0112061207020098));
#1204=CARTESIAN_POINT('',(0.135730471362341,-0.140161585361425,0.0104260733365892));
#1205=CARTESIAN_POINT('',(-0.00204671910813559,-0.140161585361425,0.0104260733365892));
#1206=CARTESIAN_POINT('',(0.135730471362341,-0.140044989127607,0.00936527586711499));
#1207=CARTESIAN_POINT('',(-0.00204671910813559,-0.140044989127607,0.00936527586711499));
#1208=CARTESIAN_POINT('',(0.135730471362341,-0.140044989127607,0.008763));
#1209=CARTESIAN_POINT('',(-0.00204671910813548,-0.140044989127607,0.008763));
#1210=CARTESIAN_POINT('',(-0.000462986383017006,-0.140044989127607,0.008763));
#1211=CARTESIAN_POINT('',(0.0449348328307882,-0.140044989127607,0.008763));
#1212=CARTESIAN_POINT('',(0.0903326520445935,-0.140044989127607,0.008763));
#1213=CARTESIAN_POINT('',(0.135730471258399,-0.140044989127607,0.008763));
#1214=CARTESIAN_POINT('',(-0.000462986383016903,-0.140044989064482,0.00876299987557489));
#1215=CARTESIAN_POINT('',(-0.0004629864461419,-0.140044989127607,0.008763));
#1216=CARTESIAN_POINT('',(-0.000462986446141954,-0.140044989127607,0.00905164949868817));
#1217=CARTESIAN_POINT('',(-0.000489521174788482,-0.140071221323632,0.00952265096615043));
#1218=CARTESIAN_POINT('',(-0.00057275729653727,-0.140154298225633,0.0101060912879384));
#1219=CARTESIAN_POINT('',(-0.000669538577104901,-0.140251766779034,0.0105222837264903));
#1220=CARTESIAN_POINT('',(-0.000758970257010979,-0.140340536870325,0.0107846254685153));
#1221=CARTESIAN_POINT('',(-0.000894367385545982,-0.14047592408318,0.0110781561843792));
#1222=CARTESIAN_POINT('',(-0.00106212648741141,-0.140646959994449,0.0112688141743239));
#1223=CARTESIAN_POINT('',(-0.00116994761971896,-0.140754823697333,0.011302999980476));
#1224=CARTESIAN_POINT('',(-0.00122498636179061,-0.140806989043255,0.011303));
#1225=CARTESIAN_POINT('',(-0.00122498636179069,-0.140806989043255,0.011303));
#1226=CARTESIAN_POINT('',(0.135730471383383,-0.140806989127607,0.011303));
#1227=CARTESIAN_POINT('',(0.0900786521349917,-0.140806989127607,0.011303));
#1228=CARTESIAN_POINT('',(0.0444268328866004,-0.140806989127607,0.011303));
#1229=CARTESIAN_POINT('',(-0.00122498636179086,-0.140806989127607,0.011303));
#1230=CARTESIAN_POINT('',(0.24847417139097,-0.140044989127607,0.011303));
#1231=CARTESIAN_POINT('',(0.170242,-0.140044989127607,0.006223));
#1232=CARTESIAN_POINT('',(-0.000462986446142194,-0.140044989127607,0.006223));
#1233=CARTESIAN_POINT('',(-0.000462986446141883,-0.140044989127607,0.011303));
#1234=CARTESIAN_POINT('',(0.170242,-0.07451,0.006223));
#1235=CARTESIAN_POINT('',(0.031492,-0.00421999999999991,0.006223));
#1236=CARTESIAN_POINT('',(0.0273195431697859,-0.00519999999999991,0.006223));
#1237=CARTESIAN_POINT('',(0.170242,-0.00519999999999991,0.006223));
#1238=CARTESIAN_POINT('',(0.004472,-0.00519999999999991,0.006223));
#1239=CARTESIAN_POINT('',(0.004472,-0.07451,0.006223));
#1240=CARTESIAN_POINT('',(0.170242,-0.0198081848288371,0.006223));
#1241=CARTESIAN_POINT('',(0.0238312189497568,-0.0198081848288371,0.006223));
#1242=CARTESIAN_POINT('',(0.0238312189497568,-0.07451,0.006223));
#1243=CARTESIAN_POINT('',(0.170242,-0.0437000488683744,0.006223));
#1244=CARTESIAN_POINT('',(-0.000462986446142508,-0.0437000488683741,0.006223));
#1245=CARTESIAN_POINT('',(-0.00046298644614251,-0.07451,0.006223));
#1246=CARTESIAN_POINT('',(0.170242,-0.1554,0.006223));
#1247=CARTESIAN_POINT('',(-7.99999999997385E-6,-0.1554,0.006223));
#1248=CARTESIAN_POINT('',(-7.99999999996081E-6,-0.14397,0.006223));
#1249=CARTESIAN_POINT('',(-0.011438,-0.14397,0.006223));
#1250=CARTESIAN_POINT('',(-0.011438,-0.07451,0.006223));
#1251=CARTESIAN_POINT('',(-0.011438,-0.00504999999999991,0.006223));
#1252=CARTESIAN_POINT('',(-7.9999999999647E-6,-0.00504999999999992,0.006223));
#1253=CARTESIAN_POINT('',(-0.003818,-0.10595,0.006223));
#1254=CARTESIAN_POINT('',(-0.0017225,-0.10595,0.006223));
#1255=CARTESIAN_POINT('',(-0.003818,-0.03799,0.006223));
#1256=CARTESIAN_POINT('',(-0.0017225,-0.03799,0.006223));
#1257=CARTESIAN_POINT('',(0.054672,-0.14778,0.006223));
#1258=CARTESIAN_POINT('',(0.0567675,-0.14778,0.006223));
#1259=CARTESIAN_POINT('',(0.031492,-0.00421999999999991,0.006223));
#1260=CARTESIAN_POINT('',(0.0335875,-0.00421999999999991,0.006223));
#1261=CARTESIAN_POINT('',(0.0195858422788784,-0.07451,0.006223));
#1262=CARTESIAN_POINT('',(0.0195858422788784,-0.0399058422788782,0.006223));
#1263=CARTESIAN_POINT('',(0.0195858422788784,-0.0198081848288371,0.006223));
#1264=CARTESIAN_POINT('',(0.170242,-0.0198081848288371,0.006223));
#1265=CARTESIAN_POINT('',(-1.18151711631819E-5,-0.0198081848288371,0.006223));
#1266=CARTESIAN_POINT('',(-1.18151711631931E-5,-0.07451,0.006223));
#1267=CARTESIAN_POINT('',(-1.18151711631907E-5,-0.0399058422788782,0.006223));
#1268=CARTESIAN_POINT('',(0.170242,-0.0399058422788782,0.006223));
#1269=CARTESIAN_POINT('',(0.170242,-0.07451,0.011303));
#1270=CARTESIAN_POINT('',(0.255367,0.00511000000000008,0.011303));
#1271=CARTESIAN_POINT('',(-7.99999999997116E-6,0.00511000000000008,0.011303));
#1272=CARTESIAN_POINT('',(-7.9999999999647E-6,-0.00504999999999992,0.011303));
#1273=CARTESIAN_POINT('',(-0.010168,-0.00504999999999992,0.011303));
#1274=CARTESIAN_POINT('',(-0.010168,-0.03978,0.011303));
#1275=CARTESIAN_POINT('',(-0.010168,-0.14397,0.011303));
#1276=CARTESIAN_POINT('',(-7.99999999996081E-6,-0.14397,0.011303));
#1277=CARTESIAN_POINT('',(-7.99999999997026E-6,-0.15413,0.011303));
#1278=CARTESIAN_POINT('',(0.085117,-0.15413,0.011303));
#1279=CARTESIAN_POINT('',(-0.001224986446142,-0.140806989043255,0.011303));
#1280=CARTESIAN_POINT('',(-0.00122498644614216,-0.108184009013079,0.011303));
#1281=CARTESIAN_POINT('',(-0.00122498644614233,-0.0755610289829019,0.011303));
#1282=CARTESIAN_POINT('',(-0.0012249864461425,-0.0429380489527252,0.011303));
#1283=CARTESIAN_POINT('',(-0.00122498636179131,-0.0429380489527251,0.011303));
#1284=CARTESIAN_POINT('',(-0.0012249863617913,-0.042938048868374,0.011303));
#1285=CARTESIAN_POINT('',(0.0444268328866001,-0.0429380488683742,0.011303));
#1286=CARTESIAN_POINT('',(0.0900786521349916,-0.0429380488683743,0.011303));
#1287=CARTESIAN_POINT('',(0.135730471383383,-0.0429380488683745,0.011303));
#1288=CARTESIAN_POINT('',(0.0230692189497568,-0.0406678421945271,0.011303));
#1289=CARTESIAN_POINT('',(0.0230692189497568,-0.0334606231007475,0.011303));
#1290=CARTESIAN_POINT('',(0.0230692189497568,-0.026253404006968,0.011303));
#1291=CARTESIAN_POINT('',(0.0230692189497568,-0.0190461849131884,0.011303));
#1292=CARTESIAN_POINT('',(0.023069219034108,-0.0190461849131883,0.011303));
#1293=CARTESIAN_POINT('',(0.023069219034108,-0.0190461848288372,0.011303));
#1294=CARTESIAN_POINT('',(0.0606229698171997,-0.0190461848288372,0.011303));
#1295=CARTESIAN_POINT('',(0.0981767206002914,-0.0190461848288372,0.011303));
#1296=CARTESIAN_POINT('',(0.135730471383383,-0.0190461848288372,0.011303));
#1297=CARTESIAN_POINT('',(0.0203478422788784,-0.0190461849131884,0.011303));
#1298=CARTESIAN_POINT('',(0.0203478422788784,-0.026253404006968,0.011303));
#1299=CARTESIAN_POINT('',(0.0203478422788784,-0.0334606231007475,0.011303));
#1300=CARTESIAN_POINT('',(0.0203478422788784,-0.040667842194527,0.011303));
#1301=CARTESIAN_POINT('',(0.0203478421945271,-0.0406678421945269,0.011303));
#1302=CARTESIAN_POINT('',(0.0203478421945272,-0.0190461849131883,0.011303));
#1303=CARTESIAN_POINT('',(0.0203478421945272,-0.0406678422788783,0.011303));
#1304=CARTESIAN_POINT('',(0.0133072897674142,-0.0406678422788783,0.011303));
#1305=CARTESIAN_POINT('',(0.00626673734030119,-0.0406678422788783,0.011303));
#1306=CARTESIAN_POINT('',(-0.000773815086811791,-0.0406678422788783,0.011303));
#1307=CARTESIAN_POINT('',(-0.000773815086811971,-0.0406678421945269,0.011303));
#1308=CARTESIAN_POINT('',(-0.000773815171162984,-0.0406678421945271,0.011303));
#1309=CARTESIAN_POINT('',(-0.000773815171162984,-0.0334606231007475,0.011303));
#1310=CARTESIAN_POINT('',(-0.000773815171162984,-0.026253404006968,0.011303));
#1311=CARTESIAN_POINT('',(-0.000773815171162984,-0.0190461849131884,0.011303));
#1312=CARTESIAN_POINT('',(-0.000773815086811957,-0.0190461849131883,0.011303));
#1313=CARTESIAN_POINT('',(-0.000773815086811763,-0.0190461848288372,0.011303));
#1314=CARTESIAN_POINT('',(0.00626673734030122,-0.0190461848288372,0.011303));
#1315=CARTESIAN_POINT('',(0.0133072897674142,-0.0190461848288372,0.011303));
#1316=CARTESIAN_POINT('',(0.0203478421945272,-0.0190461848288372,0.011303));
#1317=CARTESIAN_POINT('',(-0.003818,-0.10595,0.006223));
#1318=CARTESIAN_POINT('',(-0.003818,-0.10595,0.008763));
#1319=CARTESIAN_POINT('',(-0.0017225,-0.10595,0.008763));
#1320=CARTESIAN_POINT('',(-0.003818,-0.10595,0.008763));
#1321=CARTESIAN_POINT('',(-0.003818,-0.03799,0.006223));
#1322=CARTESIAN_POINT('',(-0.003818,-0.03799,0.008763));
#1323=CARTESIAN_POINT('',(-0.0017225,-0.03799,0.008763));
#1324=CARTESIAN_POINT('',(-0.003818,-0.03799,0.008763));
#1325=CARTESIAN_POINT('',(0.054672,-0.14778,0.006223));
#1326=CARTESIAN_POINT('',(0.054672,-0.14778,0.008763));
#1327=CARTESIAN_POINT('',(0.0567675,-0.14778,0.008763));
#1328=CARTESIAN_POINT('',(0.054672,-0.14778,0.008763));
#1329=CARTESIAN_POINT('',(0.031492,-0.00421999999999991,0.006223));
#1330=CARTESIAN_POINT('',(0.031492,-0.00421999999999991,0.008763));
#1331=CARTESIAN_POINT('',(0.0335875,-0.00421999999999991,0.008763));
#1332=CARTESIAN_POINT('',(0.031492,-0.00421999999999991,0.008763));
#1333=CARTESIAN_POINT('',(0.004472,-0.0051999999999999,0.006223));
#1334=CARTESIAN_POINT('',(0.004472,-0.0051999999999999,0.006223));
#1335=CARTESIAN_POINT('',(0.0273195431697859,-0.0051999999999999,0.006223));
#1336=CARTESIAN_POINT('',(0.0273195431697859,-0.0051999999999999,0.006223));
#1337=CARTESIAN_POINT('',(0.031492,-0.00421999999999991,0.006223));
#1338=CARTESIAN_POINT('',(0.085117,-0.15413,0.010033));
#1339=CARTESIAN_POINT('',(-7.99999999998025E-6,-0.15413,0.010033));
#1340=CARTESIAN_POINT('',(-7.99999999997355E-6,-0.1554,0.010033));
#1341=CARTESIAN_POINT('',(0.085117,-0.1554,0.010033));
#1342=CARTESIAN_POINT('',(-7.99999999996081E-6,-0.14397,0.010033));
#1343=CARTESIAN_POINT('',(-0.010168,-0.14397,0.010033));
#1344=CARTESIAN_POINT('',(-0.011438,-0.14397,0.010033));
#1345=CARTESIAN_POINT('',(-7.99999999996081E-6,-0.14397,0.010033));
#1346=CARTESIAN_POINT('',(-0.010168,-0.03978,0.010033));
#1347=CARTESIAN_POINT('',(-0.010168,-0.00504999999999992,0.010033));
#1348=CARTESIAN_POINT('',(-0.011438,-0.00504999999999991,0.010033));
#1349=CARTESIAN_POINT('',(-0.011438,-0.03978,0.010033));
#1350=CARTESIAN_POINT('',(-7.9999999999647E-6,-0.00504999999999992,0.010033));
#1351=CARTESIAN_POINT('',(-7.99999999997761E-6,0.00511000000000008,0.010033));
#1352=CARTESIAN_POINT('',(-7.9999999999647E-6,-0.00504999999999992,0.010033));
#1353=CARTESIAN_POINT('',(0.255367,0.00511000000000008,0.010033));
#1354=CARTESIAN_POINT('',(0.135730471362341,-0.0437000488683743,0.00874144734355671));
#1355=CARTESIAN_POINT('',(-0.00204671910813609,-0.0437000488683738,0.00874144734355671));
#1356=CARTESIAN_POINT('',(0.135730471362341,-0.0437000488683743,0.00934372319436853));
#1357=CARTESIAN_POINT('',(-0.00204671910813609,-0.0437000488683738,0.00934372319436853));
#1358=CARTESIAN_POINT('',(0.135730471362341,-0.0435888848476257,0.0104041347393015));
#1359=CARTESIAN_POINT('',(-0.002046719108136,-0.0435888848476252,0.0104041347393015));
#1360=CARTESIAN_POINT('',(0.135730471362341,-0.0432225783586238,0.011196398000766));
#1361=CARTESIAN_POINT('',(-0.00204671910813606,-0.0432225783586232,0.011196398000766));
#1362=CARTESIAN_POINT('',(0.135730471362341,-0.0430283902459961,0.011303));
#1363=CARTESIAN_POINT('',(-0.00204671910813609,-0.0430283902459955,0.011303));
#1364=CARTESIAN_POINT('',(0.135730471362341,-0.0429380488683743,0.011303));
#1365=CARTESIAN_POINT('',(-0.00204671910813609,-0.0429380488683738,0.011303));
#1366=CARTESIAN_POINT('',(-0.0012249863617913,-0.0429380489527252,0.011303));
#1367=CARTESIAN_POINT('',(-0.00117280617552691,-0.042990229138991,0.0113029999804674));
#1368=CARTESIAN_POINT('',(-0.00106997665446183,-0.0430966399716466,0.0112724653288968));
#1369=CARTESIAN_POINT('',(-0.000888881066673133,-0.0432744279310233,0.0110651338454928));
#1370=CARTESIAN_POINT('',(-0.000775265754440307,-0.043385301338763,0.0108320625703814));
#1371=CARTESIAN_POINT('',(-0.000627662826397609,-0.0435363357966067,0.0104019203613756));
#1372=CARTESIAN_POINT('',(-0.0004963416774151,-0.0436672013775361,0.00967286972355969));
#1373=CARTESIAN_POINT('',(-0.000462986446142497,-0.0437000488683738,0.00905056721138544));
#1374=CARTESIAN_POINT('',(-0.000462986446142497,-0.0437000488683738,0.008763));
#1375=CARTESIAN_POINT('',(-0.000462986383017501,-0.0437000489314989,0.0087629998755548));
#1376=CARTESIAN_POINT('',(0.135730471383383,-0.0437000488683744,0.008763));
#1377=CARTESIAN_POINT('',(0.0903326521279161,-0.0437000488683742,0.008763));
#1378=CARTESIAN_POINT('',(0.0449348328724493,-0.0437000488683741,0.008763));
#1379=CARTESIAN_POINT('',(-0.000462986383017513,-0.0437000488683739,0.008763));
#1380=CARTESIAN_POINT('',(-0.000462986446142516,-0.0423508353121819,0.008763));
#1381=CARTESIAN_POINT('',(-0.000462986446141872,-0.141394202683798,0.008763));
#1382=CARTESIAN_POINT('',(-0.000462986446142516,-0.0423508353121819,0.00936168374114664));
#1383=CARTESIAN_POINT('',(-0.000462986446141872,-0.141394202683798,0.00936168374114664));
#1384=CARTESIAN_POINT('',(-0.000577915572959491,-0.0423508353121819,0.0104158171903313));
#1385=CARTESIAN_POINT('',(-0.000577915572958848,-0.141394202683798,0.0104158171903313));
#1386=CARTESIAN_POINT('',(-0.000942169155696398,-0.0423508353121819,0.0111975991343929));
#1387=CARTESIAN_POINT('',(-0.000942169155695755,-0.141394202683798,0.0111975991343929));
#1388=CARTESIAN_POINT('',(-0.00113518388448195,-0.042350835312182,0.0113029999998149));
#1389=CARTESIAN_POINT('',(-0.0011351838844813,-0.141394202683798,0.0113029999998149));
#1390=CARTESIAN_POINT('',(-0.00122498644567819,-0.0423508353121819,0.011303));
#1391=CARTESIAN_POINT('',(-0.00122498644567755,-0.141394202683798,0.011303));
#1392=CARTESIAN_POINT('',(-0.000462986446142505,-0.0437000489314989,0.008763));
#1393=CARTESIAN_POINT('',(-0.000462986446142298,-0.0758150289758264,0.008763));
#1394=CARTESIAN_POINT('',(-0.00046298644614209,-0.107930009020154,0.008763));
#1395=CARTESIAN_POINT('',(-0.000462986446141883,-0.140044989064482,0.008763));
#1396=CARTESIAN_POINT('',(-0.000462986446142505,-0.0437000488683739,0.011303));
#1397=CARTESIAN_POINT('',(-0.000462986446142502,-0.0437000488683739,0.011303));
#1398=CARTESIAN_POINT('',(-0.000462986446141883,-0.140044989127607,0.011303));
#1399=CARTESIAN_POINT('',(-1.18151711631836E-5,-0.0189164549695003,0.008763));
#1400=CARTESIAN_POINT('',(-1.18151711631836E-5,-0.040797572138215,0.008763));
#1401=CARTESIAN_POINT('',(-1.18151711631836E-5,-0.0189164549695003,0.0093616837402368));
#1402=CARTESIAN_POINT('',(-1.18151711631836E-5,-0.040797572138215,0.0093616837402368));
#1403=CARTESIAN_POINT('',(-0.000126547978121749,-0.0189164549695003,0.0104154490626532));
#1404=CARTESIAN_POINT('',(-0.000126547978121749,-0.040797572138215,0.0104154490626532));
#1405=CARTESIAN_POINT('',(-0.000490954091444258,-0.0189164549695003,0.0111975159774328));
#1406=CARTESIAN_POINT('',(-0.000490954091444258,-0.040797572138215,0.0111975159774328));
#1407=CARTESIAN_POINT('',(-0.00068401260791548,-0.0189164549695003,0.0113029999991615));
#1408=CARTESIAN_POINT('',(-0.00068401260791548,-0.040797572138215,0.0113029999991615));
#1409=CARTESIAN_POINT('',(-0.000773815169061141,-0.0189164549695003,0.011303));
#1410=CARTESIAN_POINT('',(-0.000773815169061141,-0.040797572138215,0.011303));
#1411=CARTESIAN_POINT('',(-0.000773815086811925,-0.040667842194527,0.011303));
#1412=CARTESIAN_POINT('',(-0.000721648652647886,-0.040615675760368,0.0113029999804542));
#1413=CARTESIAN_POINT('',(-0.000615257590301676,-0.0405128712458335,0.0112724667660011));
#1414=CARTESIAN_POINT('',(-0.000437422265968448,-0.0403317053183468,0.0110650576852383));
#1415=CARTESIAN_POINT('',(-0.000326649051383071,-0.0402182128862819,0.0108323346834861));
#1416=CARTESIAN_POINT('',(-0.00017538330985877,-0.0400704662460332,0.0104017827962812));
#1417=CARTESIAN_POINT('',(-4.46217224371897E-5,-0.0399392166893642,0.0096730185549255));
#1418=CARTESIAN_POINT('',(-1.18151711631836E-5,-0.0399058422788782,0.00905065100535024));
#1419=CARTESIAN_POINT('',(-1.18151711631836E-5,-0.0399058422788782,0.008763));
#1420=CARTESIAN_POINT('',(-1.18151080381838E-5,-0.0399058422157532,0.00876299987553378));
#1421=CARTESIAN_POINT('',(-1.18151711631836E-5,-0.0198081848919621,0.008763));
#1422=CARTESIAN_POINT('',(-1.18151711631836E-5,-0.0265074039998925,0.008763));
#1423=CARTESIAN_POINT('',(-1.18151711631836E-5,-0.0332066231078228,0.008763));
#1424=CARTESIAN_POINT('',(-1.18151711631836E-5,-0.0399058422157532,0.008763));
#1425=CARTESIAN_POINT('',(-1.18151080381829E-5,-0.0198081848919621,0.00876299987553351));
#1426=CARTESIAN_POINT('',(-1.18151711631836E-5,-0.0198081848288371,0.008763));
#1427=CARTESIAN_POINT('',(-1.18151711631836E-5,-0.0198081848288371,0.00905192408010087));
#1428=CARTESIAN_POINT('',(-3.80267135744491E-5,-0.0197816587111545,0.00952309683167372));
#1429=CARTESIAN_POINT('',(-0.000121077272867721,-0.0196984425273098,0.0101063696094504));
#1430=CARTESIAN_POINT('',(-0.000218519862601733,-0.0196016979590976,0.0105222786160771));
#1431=CARTESIAN_POINT('',(-0.0003073061750487,-0.0195122546280026,0.0107845842992456));
#1432=CARTESIAN_POINT('',(-0.000442772811545821,-0.0193767811576752,0.0110781578728473));
#1433=CARTESIAN_POINT('',(-0.000613811618323404,-0.0192090199472874,0.011268788258355));
#1434=CARTESIAN_POINT('',(-0.000721665264581624,-0.0191012111041374,0.0113029999804604));
#1435=CARTESIAN_POINT('',(-0.000773815086811936,-0.0190461849131884,0.011303));
#1436=CARTESIAN_POINT('',(0.0203478422788784,-0.0189164549695003,0.011303));
#1437=CARTESIAN_POINT('',(0.0203478422788784,-0.040797572138215,0.011303));
#1438=CARTESIAN_POINT('',(0.0202580397176677,-0.0189164549695003,0.011303));
#1439=CARTESIAN_POINT('',(0.0202580397176677,-0.040797572138215,0.011303));
#1440=CARTESIAN_POINT('',(0.0200649970472858,-0.0189164549695003,0.0111975461096381));
#1441=CARTESIAN_POINT('',(0.0200649970472858,-0.040797572138215,0.0111975461096381));
#1442=CARTESIAN_POINT('',(0.0197006506177132,-0.0189164549695003,0.0104155906853198));
#1443=CARTESIAN_POINT('',(0.0197006506177132,-0.040797572138215,0.0104155906853198));
#1444=CARTESIAN_POINT('',(0.0195858422788784,-0.0189164549695003,0.00936168374140461));
#1445=CARTESIAN_POINT('',(0.0195858422788784,-0.040797572138215,0.00936168374140461));
#1446=CARTESIAN_POINT('',(0.0195858422788784,-0.0189164549695003,0.008763));
#1447=CARTESIAN_POINT('',(0.0195858422788784,-0.040797572138215,0.008763));
#1448=CARTESIAN_POINT('',(0.0203478421945271,-0.0190461849131883,0.011303));
#1449=CARTESIAN_POINT('',(0.0202956712004924,-0.0190983559072214,0.0113029999804585));
#1450=CARTESIAN_POINT('',(0.0201892734987175,-0.0192011686104776,0.0112724661936565));
#1451=CARTESIAN_POINT('',(0.0200114538382336,-0.0193823113683396,0.0110650825475076));
#1452=CARTESIAN_POINT('',(0.0199006491498259,-0.0194958431569576,0.0108322482011273));
#1453=CARTESIAN_POINT('',(0.0197494587168042,-0.0196435441095378,0.0104018267095301));
#1454=CARTESIAN_POINT('',(0.0196186635083247,-0.0197748165100402,0.0096729676373391));
#1455=CARTESIAN_POINT('',(0.0195858422788784,-0.0198081848288371,0.00905062144488248));
#1456=CARTESIAN_POINT('',(0.0195858422788784,-0.0198081848288371,0.008763));
#1457=CARTESIAN_POINT('',(0.0195858422157534,-0.0198081848919621,0.00876299987553375));
#1458=CARTESIAN_POINT('',(0.0195858422788784,-0.0399058422157532,0.008763));
#1459=CARTESIAN_POINT('',(0.0195858422788784,-0.0332066231078228,0.008763));
#1460=CARTESIAN_POINT('',(0.0195858422788784,-0.0265074039998925,0.008763));
#1461=CARTESIAN_POINT('',(0.0195858422788784,-0.0198081848919621,0.008763));
#1462=CARTESIAN_POINT('',(0.0195858422157534,-0.0399058422157532,0.00876299987544901));
#1463=CARTESIAN_POINT('',(0.0195858422788784,-0.0399058422788782,0.008763));
#1464=CARTESIAN_POINT('',(0.0195858422788784,-0.0399058422788782,0.00905057356632384));
#1465=CARTESIAN_POINT('',(0.0196118459428492,-0.0399323427913762,0.00952059441259774));
#1466=CARTESIAN_POINT('',(0.0196948021709005,-0.0400155169156489,0.0101047177536698));
#1467=CARTESIAN_POINT('',(0.01979256526542,-0.0401121393974324,0.0105225067350498));
#1468=CARTESIAN_POINT('',(0.0198817518793903,-0.040201716428696,0.0107855150187752));
#1469=CARTESIAN_POINT('',(0.0200165415660585,-0.0403374761892718,0.0110776645616008));
#1470=CARTESIAN_POINT('',(0.0201878198701678,-0.040506284219747,0.0112688713391539));
#1471=CARTESIAN_POINT('',(0.0202956712035974,-0.0406133712643166,0.0113029999804584));
#1472=CARTESIAN_POINT('',(0.0203478421945267,-0.0406678421945268,0.011303));
#1473=CARTESIAN_POINT('',(0.0204745721382152,-0.0198081848288371,0.008763));
#1474=CARTESIAN_POINT('',(-0.000900545030500001,-0.0198081848288371,0.008763));
#1475=CARTESIAN_POINT('',(0.0204745721382152,-0.0198081848288371,0.00936168374020916));
#1476=CARTESIAN_POINT('',(-0.000900545030499994,-0.0198081848288371,0.00936168374020916));
#1477=CARTESIAN_POINT('',(0.0204745721382152,-0.0196934621194573,0.0104154301311365));
#1478=CARTESIAN_POINT('',(-0.000900545030499994,-0.0196934621194573,0.0104154301311365));
#1479=CARTESIAN_POINT('',(0.0204745721382152,-0.0193290479258828,0.0111975121378289));
#1480=CARTESIAN_POINT('',(-0.000900545030499994,-0.0193290479258828,0.0111975121378289));
#1481=CARTESIAN_POINT('',(0.0204745721382152,-0.019135987392133,0.0113029999991416));
#1482=CARTESIAN_POINT('',(-0.000900545030499994,-0.019135987392133,0.0113029999991416));
#1483=CARTESIAN_POINT('',(0.0204745721382152,-0.0190461848309889,0.011303));
#1484=CARTESIAN_POINT('',(-0.000900545030499984,-0.0190461848309889,0.011303));
#1485=CARTESIAN_POINT('',(0.0195858422157534,-0.0198081848288371,0.008763));
#1486=CARTESIAN_POINT('',(0.0130532897744895,-0.0198081848288371,0.008763));
#1487=CARTESIAN_POINT('',(0.00652073733322568,-0.0198081848288371,0.008763));
#1488=CARTESIAN_POINT('',(-1.18151080381788E-5,-0.0198081848288371,0.008763));
#1489=CARTESIAN_POINT('',(0.0204745721382152,-0.0406678422788782,0.011303));
#1490=CARTESIAN_POINT('',(-0.000900545030499994,-0.0406678422788782,0.011303));
#1491=CARTESIAN_POINT('',(0.0204745721382152,-0.0405780397176675,0.011303));
#1492=CARTESIAN_POINT('',(-0.000900545030499987,-0.0405780397176675,0.011303));
#1493=CARTESIAN_POINT('',(0.0204745721382152,-0.0403849970472856,0.0111975461096382));
#1494=CARTESIAN_POINT('',(-0.000900545030499997,-0.0403849970472856,0.0111975461096382));
#1495=CARTESIAN_POINT('',(0.0204745721382152,-0.0400206506177131,0.0104155906853199));
#1496=CARTESIAN_POINT('',(-0.000900545030500004,-0.0400206506177131,0.0104155906853199));
#1497=CARTESIAN_POINT('',(0.0204745721382152,-0.0399058422788782,0.00936168374140463));
#1498=CARTESIAN_POINT('',(-0.000900545030499994,-0.0399058422788782,0.00936168374140463));
#1499=CARTESIAN_POINT('',(0.0204745721382152,-0.0399058422788782,0.008763));
#1500=CARTESIAN_POINT('',(-0.000900545030499994,-0.0399058422788782,0.008763));
#1501=CARTESIAN_POINT('',(-1.18151080382017E-5,-0.0399058422788782,0.008763));
#1502=CARTESIAN_POINT('',(0.00652073733322567,-0.0399058422788782,0.008763));
#1503=CARTESIAN_POINT('',(0.0130532897744895,-0.0399058422788782,0.008763));
#1504=CARTESIAN_POINT('',(0.0195858422157534,-0.0399058422788782,0.008763));
#1505=CARTESIAN_POINT('',(0.0195858422788784,-0.0399058422788782,0.011303));
#1506=CARTESIAN_POINT('',(0.0195858422788784,-0.0399058422788782,0.011303));
#1507=CARTESIAN_POINT('',(-1.18151711631836E-5,-0.0399058422788782,0.011303));
#1508=CARTESIAN_POINT('',(0.0195858422788784,-0.0198081848288371,0.011303));
#1509=CARTESIAN_POINT('',(0.0195858422788784,-0.0198081848288371,0.011303));
#1510=CARTESIAN_POINT('',(0.135730471362341,-0.0198081848288371,0.0087414473435567));
#1511=CARTESIAN_POINT('',(0.0223932515201387,-0.0198081848288371,0.0087414473435567));
#1512=CARTESIAN_POINT('',(0.135730471362341,-0.0198081848288371,0.00934372319436852));
#1513=CARTESIAN_POINT('',(0.0223932515201387,-0.0198081848288371,0.00934372319436852));
#1514=CARTESIAN_POINT('',(0.135730471362341,-0.0196970344685347,0.0104041091215991));
#1515=CARTESIAN_POINT('',(0.0223932515201385,-0.0196970344685347,0.0104041091215991));
#1516=CARTESIAN_POINT('',(0.135730471362341,-0.0193307177491897,0.011196391499592));
#1517=CARTESIAN_POINT('',(0.0223932515201387,-0.0193307177491897,0.011196391499592));
#1518=CARTESIAN_POINT('',(0.135730471362341,-0.0191365262064589,0.011303));
#1519=CARTESIAN_POINT('',(0.0223932515201386,-0.0191365262064589,0.011303));
#1520=CARTESIAN_POINT('',(0.135730471362341,-0.0190461848288371,0.011303));
#1521=CARTESIAN_POINT('',(0.0223932515201387,-0.0190461848288371,0.011303));
#1522=CARTESIAN_POINT('',(0.0230692190341081,-0.0190461849131884,0.011303));
#1523=CARTESIAN_POINT('',(0.023121398332776,-0.0190983642118599,0.0113029999804665));
#1524=CARTESIAN_POINT('',(0.0232242262033854,-0.0192047737886405,0.0112724654091494));
#1525=CARTESIAN_POINT('',(0.0234053265642386,-0.0193825649762457,0.0110651284953352));
#1526=CARTESIAN_POINT('',(0.0235189332746774,-0.0194934311949729,0.0108320814369965));
#1527=CARTESIAN_POINT('',(0.0236665462597262,-0.0196444813079083,0.010401910606077));
#1528=CARTESIAN_POINT('',(0.023797862377716,-0.0197753397152467,0.00967287924661311));
#1529=CARTESIAN_POINT('',(0.0238312189497568,-0.0198081848288371,0.0090505723209881));
#1530=CARTESIAN_POINT('',(0.0238312189497568,-0.0198081848288371,0.008763));
#1531=CARTESIAN_POINT('',(0.0238312190128818,-0.0198081848919621,0.00876299987553447));
#1532=CARTESIAN_POINT('',(0.135730471383383,-0.0198081848288371,0.008763));
#1533=CARTESIAN_POINT('',(0.0984307205932159,-0.0198081848288371,0.008763));
#1534=CARTESIAN_POINT('',(0.0611309698030489,-0.0198081848288371,0.008763));
#1535=CARTESIAN_POINT('',(0.0238312190128818,-0.0198081848288371,0.008763));
#1536=CARTESIAN_POINT('',(0.0238312189497568,-0.0189164549695003,0.008763));
#1537=CARTESIAN_POINT('',(0.0238312189497568,-0.040797572138215,0.008763));
#1538=CARTESIAN_POINT('',(0.0238312189497568,-0.0189164549695003,0.00936168374023682));
#1539=CARTESIAN_POINT('',(0.0238312189497568,-0.040797572138215,0.00936168374023682));
#1540=CARTESIAN_POINT('',(0.0237164025409705,-0.0189164549695003,0.0104156058146952));
#1541=CARTESIAN_POINT('',(0.0237164025409705,-0.040797572138215,0.0104156058146952));
#1542=CARTESIAN_POINT('',(0.0233520624132252,-0.0189164549695003,0.0111975494693004));
#1543=CARTESIAN_POINT('',(0.0233520624132252,-0.040797572138215,0.0111975494693004));
#1544=CARTESIAN_POINT('',(0.0231590215130044,-0.0189164549695003,0.0113029999991618));
#1545=CARTESIAN_POINT('',(0.0231590215130044,-0.040797572138215,0.0113029999991618));
#1546=CARTESIAN_POINT('',(0.0230692189518589,-0.0189164549695003,0.011303));
#1547=CARTESIAN_POINT('',(0.0230692189518589,-0.040797572138215,0.011303));
#1548=CARTESIAN_POINT('',(0.0238312189497568,-0.0198081848919621,0.008763));
#1549=CARTESIAN_POINT('',(0.0238312189497568,-0.0265074039998925,0.008763));
#1550=CARTESIAN_POINT('',(0.0238312189497568,-0.0332066231078228,0.008763));
#1551=CARTESIAN_POINT('',(0.0238312189497568,-0.0399058422157532,0.008763));
#1552=CARTESIAN_POINT('',(0.0238312189497568,-0.0198081848288371,0.011303));
#1553=CARTESIAN_POINT('',(0.0238312189497568,-0.0198081848288371,0.011303));
#1554=CARTESIAN_POINT('',(0.0238312189497568,-0.0399058422788782,0.011303));
#1555=CARTESIAN_POINT('',(-1.18151711631836E-5,-0.0399058422788782,0.011303));
#1556=CARTESIAN_POINT('',(-1.1815171163176E-5,-0.0198081848288371,0.011303));
#1557=CARTESIAN_POINT('',(-1.18151711631836E-5,-0.0198081848288371,0.011303));
#1558=CARTESIAN_POINT('',(-7.99999999998136E-6,-0.1554,0.006223));
#1559=CARTESIAN_POINT('',(-7.99999999998689E-6,-0.1554,0.006223));
#1560=CARTESIAN_POINT('',(-7.99999999996081E-6,-0.14397,0.006223));
#1561=CARTESIAN_POINT('',(-0.011438,-0.14397,0.006223));
#1562=CARTESIAN_POINT('',(-0.011438,-0.00504999999999992,0.006223));
#1563=CARTESIAN_POINT('',(-0.011438,-0.00504999999999991,0.006223));
#1564=CARTESIAN_POINT('',(-7.9999999999647E-6,-0.00504999999999992,0.006223));
#1565=MECHANICAL_DESIGN_GEOMETRIC_PRESENTATION_REPRESENTATION('',(#814),
#1566);
#1566=(
GEOMETRIC_REPRESENTATION_CONTEXT(3)
GLOBAL_UNCERTAINTY_ASSIGNED_CONTEXT((#1567))
GLOBAL_UNIT_ASSIGNED_CONTEXT((#1570,#1569,#1568))
REPRESENTATION_CONTEXT('top shell left half:1__Body1',
'TOP_LEVEL_ASSEMBLY_PART')
);
#1567=UNCERTAINTY_MEASURE_WITH_UNIT(LENGTH_MEASURE(2.E-5),#1570,
'DISTANCE_ACCURACY_VALUE','Maximum Tolerance applied to model');
#1568=(
NAMED_UNIT(*)
SI_UNIT($,.STERADIAN.)
SOLID_ANGLE_UNIT()
);
#1569=(
NAMED_UNIT(*)
PLANE_ANGLE_UNIT()
SI_UNIT($,.RADIAN.)
);
#1570=(
LENGTH_UNIT()
NAMED_UNIT(*)
SI_UNIT($,.METRE.)
);
#1571=PRODUCT_DEFINITION_SHAPE('','',#1572);
#1572=PRODUCT_DEFINITION('','',#1574,#1573);
#1573=PRODUCT_DEFINITION_CONTEXT('',#1580,'design');
#1574=PRODUCT_DEFINITION_FORMATION_WITH_SPECIFIED_SOURCE('','',#1576,
 .NOT_KNOWN.);
#1575=PRODUCT_RELATED_PRODUCT_CATEGORY('','',(#1576));
#1576=PRODUCT('top shell left half:1__Body1',
'top shell left half:1__Body1','top shell left half:1__Body1',(#1578));
#1577=PRODUCT_CATEGORY('','');
#1578=PRODUCT_CONTEXT('',#1580,'mechanical');
#1579=APPLICATION_PROTOCOL_DEFINITION('international standard',
'ap242_managed_model_based_3d_engineering',2020,#1580);
#1580=APPLICATION_CONTEXT('managed model based 3d engineering');
ENDSEC;
END-ISO-10303-21;
