M48
; DRILL file KiCad 10.0.5 date 2026-08-25T11:07:33
; FORMAT={-:-/ absolute / metric / decimal}
; #@! TF.CreationDate,2026-08-25T11:07:33+05:30
; #@! TF.GenerationSoftware,Kicad,Pcbnew,10.0.5
; #@! TF.FileFunction,Plated,1,2,PTH
FMAT,2
METRIC
; #@! TA.AperFunction,Plated,PTH,ViaDrill
T1C0.300
; #@! TA.AperFunction,Plated,PTH,ComponentDrill
T2C0.550
; #@! TA.AperFunction,Plated,PTH,ViaDrill
T3C0.800
; #@! TA.AperFunction,Plated,PTH,ComponentDrill
T4C0.850
; #@! TA.AperFunction,Plated,PTH,ViaDrill
T5C0.950
; #@! TA.AperFunction,Plated,PTH,ViaDrill
T6C1.000
; #@! TA.AperFunction,Plated,PTH,ViaDrill
T7C1.500
; #@! TA.AperFunction,Plated,PTH,ComponentDrill
T8C1.500
; #@! TA.AperFunction,Plated,PTH,ViaDrill
T9C1.700
; #@! TA.AperFunction,Plated,PTH,ViaDrill
T10C1.850
; #@! TA.AperFunction,Plated,PTH,ViaDrill
T11C2.200
; #@! TA.AperFunction,Plated,PTH,ViaDrill
T12C2.300
; #@! TA.AperFunction,Plated,PTH,ViaDrill
T13C3.048
; #@! TA.AperFunction,Plated,PTH,ViaDrill
T14C3.988
; #@! TA.AperFunction,Plated,PTH,ViaDrill
T15C4.000
%
G90
G05
T1
X36.75Y-105.5
X37.25Y-55.25
X39.75Y-93.0
X40.5Y-62.501
X46.0Y-55.499
X51.5Y-138.5
X54.75Y-136.0
X72.25Y-132.75
X72.75Y-159.25
X81.25Y-113.75
X89.0Y-144.25
X93.5Y-152.0
X95.5Y-165.75
X97.75Y-144.5
X107.75Y-89.5
X108.0Y-130.0
X121.0Y-89.5
X130.11Y-89.25
X135.75Y-138.25
X139.5Y-151.25
X149.0Y-149.25
X149.0Y-154.0
X155.25Y-73.75
X155.5Y-130.0
X155.5Y-133.25
X156.0Y-152.25
X156.75Y-149.0
X157.0Y-132.5
X158.25Y-129.0
X159.25Y-130.25
X159.25Y-133.25
X162.5Y-142.25
X162.5Y-148.75
X167.75Y-131.75
X176.75Y-89.102
X177.75Y-166.0
X179.575Y-63.425
X184.951Y-128.899
X192.75Y-121.0
X193.5Y-111.0
X194.76Y-105.76
X221.25Y-148.5
X224.0Y-56.6
X226.6Y-55.8
X228.25Y-89.5
X244.41Y-97.25
X249.2Y-55.05
X260.0Y-130.0
X260.0Y-132.5
X263.5Y-105.75
X263.5Y-109.0
X264.25Y-124.0
X267.25Y-96.5
X273.0Y-147.75
X274.776Y-132.474
X276.8Y-66.6
X277.5Y-147.75
X277.5Y-149.25
X277.6Y-190.8
X277.75Y-111.25
X278.25Y-112.92
X279.4Y-67.35
X287.4Y-55.6
X288.667Y-116.92
X289.155Y-55.6
X291.0Y-125.75
X296.0Y-55.651
X299.5Y-53.5
X307.25Y-131.75
X307.75Y-58.5
X307.75Y-88.75
X310.0Y-130.5
X310.0Y-136.75
X311.5Y-132.0
X318.0Y-137.0
X320.75Y-146.85
X324.25Y-187.5
X324.5Y-173.5
X325.75Y-146.75
X325.75Y-152.25
X327.0Y-184.75
X335.0Y-149.5
X341.95Y-91.75
X350.25Y-94.5
X352.5Y-99.0
X353.25Y-97.25
X354.25Y-99.602
X354.996Y-113.746
X360.625Y-56.375
X361.546Y-63.25
X362.0Y-57.0
X362.5Y-148.75
X364.5Y-110.75
X366.5Y-150.25
X367.75Y-72.5
X369.25Y-69.0
T3
X38.38Y-87.0
X38.38Y-111.0
X40.19Y-187.0
X43.0Y-130.0
X45.19Y-149.0
X46.0Y-87.0
X46.0Y-111.0
X47.81Y-187.0
X50.19Y-168.0
X50.62Y-130.0
X52.81Y-149.0
X57.38Y-111.0
X57.81Y-168.0
X62.38Y-87.0
X64.19Y-187.0
X65.0Y-111.0
X67.19Y-130.0
X70.0Y-87.0
X71.19Y-149.0
X71.81Y-187.0
X74.81Y-130.0
X76.38Y-111.0
X78.81Y-149.0
X81.19Y-168.0
X81.38Y-87.0
X84.0Y-111.0
X86.19Y-130.0
X88.0Y-187.0
X88.81Y-168.0
X89.0Y-87.0
X90.19Y-149.0
X93.81Y-130.0
X95.38Y-111.0
X95.62Y-187.0
X97.81Y-149.0
X100.0Y-168.0
X100.38Y-87.0
X103.0Y-111.0
X105.19Y-130.0
X107.62Y-168.0
X108.0Y-87.0
X109.19Y-149.0
X112.81Y-130.0
X114.38Y-111.0
X116.81Y-149.0
X119.19Y-168.0
X119.38Y-87.0
X122.0Y-111.0
X124.0Y-130.0
X126.81Y-168.0
X127.0Y-87.0
X129.0Y-149.0
X131.62Y-130.0
X133.38Y-111.0
X136.62Y-149.0
X138.19Y-168.0
X141.0Y-111.0
X143.19Y-130.0
X143.38Y-87.0
X145.81Y-168.0
X147.19Y-149.0
X150.81Y-130.0
X151.0Y-87.0
X152.38Y-111.0
X154.81Y-149.0
X157.38Y-168.0
X159.38Y-187.0
X160.0Y-111.0
X162.19Y-130.0
X162.38Y-87.0
X165.0Y-168.0
X166.19Y-149.0
X167.0Y-187.0
X169.81Y-130.0
X170.0Y-87.0
X171.38Y-111.0
X173.81Y-149.0
X176.19Y-168.0
X179.0Y-111.0
X181.19Y-130.0
X181.38Y-87.0
X183.81Y-168.0
X185.38Y-149.0
X188.81Y-130.0
X189.0Y-87.0
X190.38Y-111.0
X193.0Y-149.0
X195.19Y-168.0
X198.0Y-111.0
X200.19Y-130.0
X200.38Y-87.0
X202.81Y-168.0
X204.19Y-149.0
X207.81Y-130.0
X208.0Y-87.0
X209.38Y-111.0
X211.81Y-149.0
X214.19Y-168.0
X217.0Y-111.0
X219.19Y-130.0
X221.81Y-168.0
X223.19Y-149.0
X224.19Y-87.0
X226.81Y-130.0
X228.19Y-187.0
X228.38Y-111.0
X230.81Y-149.0
X231.81Y-87.0
X233.19Y-168.0
X235.81Y-187.0
X236.0Y-111.0
X238.19Y-130.0
X240.81Y-168.0
X243.19Y-149.0
X243.38Y-87.0
X245.81Y-130.0
X247.19Y-187.0
X247.38Y-111.0
X250.81Y-149.0
X251.0Y-87.0
X252.19Y-168.0
X254.81Y-187.0
X255.0Y-111.0
X257.19Y-130.0
X259.81Y-168.0
X262.19Y-149.0
X262.38Y-87.0
X264.81Y-130.0
X266.19Y-111.0
X266.19Y-187.0
X269.81Y-149.0
X270.0Y-87.0
X273.81Y-111.0
X273.81Y-187.0
X276.19Y-130.0
X278.19Y-168.0
X281.38Y-87.0
X283.81Y-130.0
X285.81Y-168.0
X289.0Y-87.0
X293.19Y-149.0
X295.19Y-192.0
X295.38Y-111.0
X298.875Y-54.8
X300.19Y-130.0
X300.81Y-149.0
X302.81Y-192.0
X303.0Y-111.0
X303.875Y-54.8
X304.38Y-87.0
X307.81Y-130.0
X310.13Y-56.0
X312.0Y-87.0
X314.19Y-173.0
X314.19Y-192.0
X317.75Y-56.0
X321.81Y-173.0
X321.81Y-192.0
X333.19Y-192.0
X340.605Y-147.028
X340.605Y-166.028
X340.81Y-192.0
X348.225Y-147.028
X348.225Y-166.028
X359.19Y-126.0
X359.605Y-161.028
X359.845Y-66.192
X359.845Y-85.192
X366.81Y-126.0
X367.225Y-161.028
X367.465Y-66.192
X367.465Y-85.192
T5
X194.19Y-62.86
X196.69Y-62.86
X198.69Y-62.86
X201.19Y-62.86
X219.33Y-62.86
X221.83Y-62.86
X223.83Y-62.86
X226.33Y-62.86
X244.47Y-62.86
X246.97Y-62.86
X248.97Y-62.86
X251.47Y-62.86
X269.61Y-62.86
X272.11Y-62.86
X274.11Y-62.86
X276.61Y-62.86
T6
X327.86Y-51.12
X327.86Y-53.66
X327.86Y-56.2
X327.86Y-58.74
X327.86Y-61.28
X327.86Y-63.82
X327.86Y-66.36
X327.86Y-68.9
X327.86Y-71.44
X327.86Y-73.98
X327.86Y-76.52
X327.86Y-79.06
X327.86Y-81.6
X327.86Y-84.14
X327.86Y-86.68
X327.86Y-89.22
X327.86Y-91.76
X327.86Y-94.3
X327.86Y-96.84
X327.86Y-99.38
X345.64Y-51.12
X345.64Y-53.66
X345.64Y-56.2
X345.64Y-58.74
X345.64Y-61.28
X345.64Y-63.82
X345.64Y-66.36
X345.64Y-68.9
X345.64Y-71.44
X345.64Y-73.98
X345.64Y-76.52
X345.64Y-79.06
X345.64Y-81.6
X345.64Y-84.14
X345.64Y-86.68
X345.64Y-89.22
X345.64Y-91.76
X345.64Y-94.3
X345.64Y-96.84
X345.64Y-99.38
X356.25Y-73.25
X356.25Y-75.75
X356.25Y-78.25
X356.25Y-92.3
X356.25Y-94.8
X356.25Y-97.3
X357.505Y-110.055
X357.505Y-112.595
X357.505Y-115.135
X357.505Y-117.675
X370.75Y-73.25
X370.75Y-78.25
X370.75Y-92.3
X370.75Y-97.3
T7
X38.035Y-76.597
X38.035Y-100.41
X40.416Y-176.61
X42.797Y-119.46
X44.385Y-74.057
X44.385Y-97.87
X45.179Y-138.51
X46.766Y-174.07
X49.148Y-116.92
X49.941Y-157.56
X51.529Y-135.97
X56.291Y-155.02
X57.085Y-100.41
X61.847Y-76.597
X63.435Y-97.87
X64.229Y-176.61
X66.61Y-119.46
X68.197Y-74.057
X70.579Y-174.07
X71.373Y-138.51
X72.96Y-116.92
X76.135Y-100.41
X77.722Y-135.97
X80.897Y-76.597
X80.897Y-157.56
X82.485Y-97.87
X85.66Y-119.46
X87.248Y-74.057
X87.248Y-155.02
X88.041Y-176.61
X90.422Y-138.51
X92.01Y-116.92
X94.391Y-174.07
X95.185Y-100.41
X96.772Y-135.97
X99.947Y-76.597
X99.947Y-157.56
X101.535Y-97.87
X104.71Y-119.46
X106.297Y-74.057
X106.297Y-155.02
X109.472Y-138.51
X111.06Y-116.92
X114.235Y-100.41
X115.822Y-135.97
X118.997Y-76.597
X118.997Y-157.56
X120.585Y-97.87
X123.76Y-119.46
X125.347Y-74.057
X125.347Y-155.02
X128.523Y-138.51
X130.11Y-116.92
X133.285Y-100.41
X134.873Y-135.97
X138.047Y-157.56
X139.635Y-97.87
X142.81Y-76.597
X142.81Y-119.46
X144.397Y-155.02
X147.572Y-138.51
X149.16Y-74.057
X149.16Y-116.92
X152.335Y-100.41
X153.922Y-135.97
X157.097Y-157.56
X158.685Y-97.87
X159.479Y-176.61
X161.86Y-76.597
X161.86Y-119.46
X163.447Y-155.02
X165.829Y-174.07
X166.623Y-138.51
X168.21Y-74.057
X168.21Y-116.92
X171.385Y-100.41
X172.972Y-135.97
X176.147Y-157.56
X177.735Y-97.87
X180.91Y-76.597
X180.91Y-119.46
X182.498Y-155.02
X185.672Y-138.51
X187.26Y-74.057
X187.26Y-116.92
X190.435Y-100.41
X192.022Y-135.97
X195.197Y-157.56
X196.785Y-97.87
X199.96Y-76.597
X199.96Y-119.46
X201.547Y-155.02
X204.722Y-138.51
X206.31Y-74.057
X206.31Y-116.92
X209.485Y-100.41
X211.072Y-135.97
X214.248Y-157.56
X215.835Y-97.87
X219.01Y-119.46
X220.597Y-155.02
X223.772Y-76.597
X223.772Y-138.51
X225.36Y-116.92
X228.535Y-100.41
X228.535Y-176.61
X230.123Y-74.057
X230.123Y-135.97
X233.297Y-157.56
X234.885Y-97.87
X234.885Y-174.07
X238.06Y-119.46
X239.647Y-155.02
X242.822Y-76.597
X242.822Y-138.51
X244.41Y-116.92
X247.585Y-100.41
X247.585Y-176.61
X249.172Y-74.057
X249.172Y-135.97
X252.347Y-157.56
X253.935Y-97.87
X253.935Y-174.07
X257.11Y-119.46
X258.697Y-155.02
X261.873Y-76.597
X261.873Y-138.51
X263.46Y-116.92
X266.635Y-100.41
X266.635Y-176.61
X268.222Y-74.057
X268.222Y-135.97
X272.985Y-97.87
X272.985Y-174.07
X276.16Y-119.46
X278.541Y-157.56
X280.923Y-76.597
X282.51Y-116.92
X284.891Y-155.02
X287.272Y-74.057
X292.829Y-138.51
X295.21Y-100.41
X295.21Y-181.373
X299.179Y-135.97
X299.972Y-119.46
X301.56Y-97.87
X301.56Y-178.832
X304.735Y-76.597
X306.322Y-116.92
X311.085Y-74.057
X314.26Y-162.322
X314.26Y-181.373
X320.61Y-159.782
X320.61Y-178.832
X333.31Y-181.373
X339.66Y-178.832
X340.25Y-136.25
X340.25Y-155.3
X346.6Y-133.71
X346.6Y-152.76
X359.3Y-131.487
X359.3Y-150.537
X365.65Y-128.947
X365.65Y-147.998
T9
X36.765Y-79.138
X36.765Y-102.95
X39.146Y-179.15
X41.527Y-122.0
X43.909Y-141.05
X46.925Y-79.138
X46.925Y-102.95
X48.671Y-160.1
X49.306Y-179.15
X51.688Y-122.0
X54.069Y-141.05
X55.815Y-102.95
X58.831Y-160.1
X60.578Y-79.138
X62.959Y-179.15
X65.34Y-122.0
X65.975Y-102.95
X70.102Y-141.05
X70.737Y-79.138
X73.119Y-179.15
X74.865Y-102.95
X75.5Y-122.0
X79.627Y-79.138
X79.627Y-160.1
X80.263Y-141.05
X84.39Y-122.0
X85.025Y-102.95
X86.771Y-179.15
X89.152Y-141.05
X89.787Y-79.138
X89.787Y-160.1
X93.915Y-102.95
X94.55Y-122.0
X96.931Y-179.15
X98.677Y-79.138
X98.677Y-160.1
X99.312Y-141.05
X103.44Y-122.0
X104.075Y-102.95
X108.203Y-141.05
X108.837Y-79.138
X108.837Y-160.1
X112.965Y-102.95
X113.6Y-122.0
X117.727Y-79.138
X117.727Y-160.1
X118.362Y-141.05
X122.49Y-122.0
X123.125Y-102.95
X127.252Y-141.05
X127.887Y-79.138
X127.887Y-160.1
X132.015Y-102.95
X132.65Y-122.0
X136.778Y-160.1
X137.412Y-141.05
X141.54Y-79.138
X141.54Y-122.0
X142.175Y-102.95
X146.302Y-141.05
X146.938Y-160.1
X151.065Y-102.95
X151.7Y-79.138
X151.7Y-122.0
X155.827Y-160.1
X156.463Y-141.05
X158.209Y-179.15
X160.59Y-79.138
X160.59Y-122.0
X161.225Y-102.95
X165.352Y-141.05
X165.987Y-160.1
X168.369Y-179.15
X170.115Y-102.95
X170.75Y-79.138
X170.75Y-122.0
X174.877Y-160.1
X175.512Y-141.05
X179.64Y-79.138
X179.64Y-122.0
X180.275Y-102.95
X184.403Y-141.05
X185.037Y-160.1
X189.165Y-102.95
X189.8Y-79.138
X189.8Y-122.0
X193.927Y-160.1
X194.562Y-141.05
X198.69Y-79.138
X198.69Y-122.0
X199.325Y-102.95
X203.452Y-141.05
X204.087Y-160.1
X208.215Y-102.95
X208.85Y-79.138
X208.85Y-122.0
X212.977Y-160.1
X213.612Y-141.05
X217.74Y-122.0
X218.375Y-102.95
X222.502Y-79.138
X222.502Y-141.05
X223.137Y-160.1
X227.265Y-102.95
X227.265Y-179.15
X227.9Y-122.0
X232.028Y-160.1
X232.662Y-79.138
X232.662Y-141.05
X236.79Y-122.0
X237.425Y-102.95
X237.425Y-179.15
X241.552Y-79.138
X241.552Y-141.05
X242.188Y-160.1
X246.315Y-102.95
X246.315Y-179.15
X246.95Y-122.0
X251.077Y-160.1
X251.712Y-79.138
X251.712Y-141.05
X255.84Y-122.0
X256.475Y-102.95
X256.475Y-179.15
X260.602Y-79.138
X260.602Y-141.05
X261.238Y-160.1
X265.365Y-102.95
X265.365Y-179.15
X266.0Y-122.0
X270.762Y-79.138
X270.762Y-141.05
X274.89Y-122.0
X275.525Y-102.95
X275.525Y-179.15
X277.271Y-160.1
X279.652Y-79.138
X285.05Y-122.0
X287.431Y-160.1
X289.812Y-79.138
X291.559Y-141.05
X293.94Y-102.95
X293.94Y-183.912
X298.702Y-122.0
X301.719Y-141.05
X303.465Y-79.138
X304.1Y-102.95
X304.1Y-183.912
X308.863Y-122.0
X312.99Y-164.862
X312.99Y-183.912
X313.625Y-79.138
X323.15Y-164.862
X323.15Y-183.912
X332.04Y-183.912
X338.98Y-138.79
X338.98Y-157.84
X342.2Y-183.912
X349.14Y-138.79
X349.14Y-157.84
X358.03Y-134.028
X358.03Y-153.077
X368.19Y-134.028
X368.19Y-153.077
T10
X334.325Y-54.28
X339.175Y-54.28
T11
X334.025Y-51.25
X339.475Y-51.25
T12
X191.12Y-60.15
X204.26Y-60.15
X216.26Y-60.15
X229.4Y-60.15
X241.4Y-60.15
X254.54Y-60.15
X266.54Y-60.15
X279.68Y-60.15
T13
X41.813Y-153.115
X65.689Y-153.115
X113.289Y-172.165
X213.289Y-172.165
X270.413Y-153.115
X284.701Y-134.065
X287.082Y-95.965
X294.289Y-153.115
X308.577Y-134.065
X310.958Y-95.965
T14
X41.813Y-168.325
X65.689Y-168.325
X113.289Y-187.375
X213.289Y-187.375
X270.413Y-168.325
X284.701Y-149.275
X287.082Y-111.175
X294.289Y-168.325
X308.577Y-149.275
X310.958Y-111.175
T15
X41.845Y-79.138
X41.845Y-102.95
X44.226Y-179.15
X46.607Y-122.0
X48.989Y-141.05
X53.751Y-160.1
X60.895Y-102.95
X65.657Y-79.138
X68.039Y-179.15
X70.42Y-122.0
X75.182Y-141.05
X79.945Y-102.95
X84.707Y-79.138
X84.707Y-160.1
X89.47Y-122.0
X91.851Y-179.15
X94.233Y-141.05
X98.995Y-102.95
X103.757Y-79.138
X103.757Y-160.1
X108.52Y-122.0
X113.282Y-141.05
X118.045Y-102.95
X122.807Y-79.138
X122.807Y-160.1
X127.57Y-122.0
X132.332Y-141.05
X137.095Y-102.95
X141.857Y-160.1
X146.62Y-79.138
X146.62Y-122.0
X151.382Y-141.05
X156.145Y-102.95
X160.907Y-160.1
X163.289Y-179.15
X165.67Y-79.138
X165.67Y-122.0
X170.433Y-141.05
X175.195Y-102.95
X179.957Y-160.1
X184.72Y-79.138
X184.72Y-122.0
X189.482Y-141.05
X194.245Y-102.95
X199.007Y-160.1
X203.77Y-79.138
X203.77Y-122.0
X208.532Y-141.05
X213.295Y-102.95
X218.057Y-160.1
X222.82Y-122.0
X227.582Y-79.138
X227.582Y-141.05
X232.345Y-102.95
X232.345Y-179.15
X237.107Y-160.1
X241.87Y-122.0
X246.632Y-79.138
X246.632Y-141.05
X251.395Y-102.95
X251.395Y-179.15
X256.157Y-160.1
X260.92Y-122.0
X265.683Y-79.138
X265.683Y-141.05
X270.445Y-102.95
X270.445Y-179.15
X279.97Y-122.0
X282.351Y-160.1
X284.732Y-79.138
X296.639Y-141.05
X299.02Y-102.95
X299.02Y-183.912
X303.782Y-122.0
X308.545Y-79.138
X318.07Y-164.862
X318.07Y-183.912
X337.12Y-183.912
X344.06Y-138.79
X344.06Y-157.84
X363.11Y-134.028
X363.11Y-153.077
T2
G00X297.5Y-51.725
M15
G01X297.5Y-52.375
M16
G05
G00X305.25Y-51.725
M15
G01X305.25Y-52.375
M16
G05
T4
G00X297.65Y-55.575
M15
G01X297.65Y-56.125
M16
G05
G00X305.1Y-55.575
M15
G01X305.1Y-56.125
M16
G05
T8
G00X363.1Y-70.15
M15
G01X364.4Y-70.15
M16
G05
G00X363.1Y-81.35
M15
G01X364.4Y-81.35
M16
G05
G00X363.1Y-89.2
M15
G01X364.4Y-89.2
M16
G05
G00X363.1Y-100.4
M15
G01X364.4Y-100.4
M16
G05
M30
