%TF.GenerationSoftware,KiCad,Pcbnew,10.0.5*%
%TF.CreationDate,2026-08-25T11:07:27+05:30*%
%TF.ProjectId,kyps75,6b797073-3735-42e6-9b69-6361645f7063,rev?*%
%TF.SameCoordinates,Original*%
%TF.FileFunction,Paste,Bot*%
%TF.FilePolarity,Positive*%
%FSLAX46Y46*%
G04 Gerber Fmt 4.6, Leading zero omitted, Abs format (unit mm)*
G04 Created by KiCad (PCBNEW 10.0.5) date 2026-08-25 11:07:27*
%MOMM*%
%LPD*%
G01*
G04 APERTURE LIST*
%ADD10C,0.000000*%
G04 APERTURE END LIST*
D10*
G36*
X39300000Y-61100000D02*
G01*
X37800000Y-61100000D01*
X37800000Y-60100000D01*
X39300000Y-60100000D01*
X39300000Y-61100000D01*
G37*
G36*
X39300000Y-57900000D02*
G01*
X37800000Y-57900000D01*
X37800000Y-56900000D01*
X39300000Y-56900000D01*
X39300000Y-57900000D01*
G37*
G36*
X44200000Y-57900000D02*
G01*
X42700000Y-57900000D01*
X42700000Y-56900000D01*
X44200000Y-56900000D01*
X44200000Y-57900000D01*
G37*
G36*
X44200000Y-61100000D02*
G01*
X42700000Y-61100000D01*
X42700000Y-60100000D01*
X44200000Y-60100000D01*
X44200000Y-61100000D01*
G37*
G36*
X362300000Y-146100000D02*
G01*
X360800000Y-146100000D01*
X360800000Y-145100000D01*
X362300000Y-145100000D01*
X362300000Y-146100000D01*
G37*
G36*
X362300000Y-142900000D02*
G01*
X360800000Y-142900000D01*
X360800000Y-141900000D01*
X362300000Y-141900000D01*
X362300000Y-142900000D01*
G37*
G36*
X367200000Y-142900000D02*
G01*
X365700000Y-142900000D01*
X365700000Y-141900000D01*
X367200000Y-141900000D01*
X367200000Y-142900000D01*
G37*
G36*
X367200000Y-146100000D02*
G01*
X365700000Y-146100000D01*
X365700000Y-145100000D01*
X367200000Y-145100000D01*
X367200000Y-146100000D01*
G37*
G36*
X363300000Y-60200000D02*
G01*
X362300000Y-60200000D01*
X362300000Y-58700000D01*
X363300000Y-58700000D01*
X363300000Y-60200000D01*
G37*
G36*
X360100000Y-60200000D02*
G01*
X359100000Y-60200000D01*
X359100000Y-58700000D01*
X360100000Y-58700000D01*
X360100000Y-60200000D01*
G37*
G36*
X360100000Y-55300000D02*
G01*
X359100000Y-55300000D01*
X359100000Y-53800000D01*
X360100000Y-53800000D01*
X360100000Y-55300000D01*
G37*
G36*
X363300000Y-55300000D02*
G01*
X362300000Y-55300000D01*
X362300000Y-53800000D01*
X363300000Y-53800000D01*
X363300000Y-55300000D01*
G37*
G36*
X283300000Y-189700000D02*
G01*
X281800000Y-189700000D01*
X281800000Y-188700000D01*
X283300000Y-188700000D01*
X283300000Y-189700000D01*
G37*
G36*
X283300000Y-186500000D02*
G01*
X281800000Y-186500000D01*
X281800000Y-185500000D01*
X283300000Y-185500000D01*
X283300000Y-186500000D01*
G37*
G36*
X288200000Y-186500000D02*
G01*
X286700000Y-186500000D01*
X286700000Y-185500000D01*
X288200000Y-185500000D01*
X288200000Y-186500000D01*
G37*
G36*
X288200000Y-189700000D02*
G01*
X286700000Y-189700000D01*
X286700000Y-188700000D01*
X288200000Y-188700000D01*
X288200000Y-189700000D01*
G37*
G36*
X291845980Y-58810660D02*
G01*
X291859320Y-58812640D01*
X291872410Y-58815920D01*
X291885120Y-58820470D01*
X291897320Y-58826240D01*
X291908890Y-58833170D01*
X291919730Y-58841210D01*
X291929730Y-58850270D01*
X291938790Y-58860270D01*
X291946830Y-58871110D01*
X291953760Y-58882680D01*
X291959530Y-58894880D01*
X291964080Y-58907590D01*
X291967360Y-58920680D01*
X291969340Y-58934020D01*
X291970000Y-58947500D01*
X291970000Y-60272500D01*
X291969340Y-60285980D01*
X291967360Y-60299320D01*
X291964080Y-60312410D01*
X291959530Y-60325120D01*
X291953760Y-60337320D01*
X291946830Y-60348890D01*
X291938790Y-60359730D01*
X291929730Y-60369730D01*
X291919730Y-60378790D01*
X291908890Y-60386830D01*
X291897320Y-60393760D01*
X291885120Y-60399530D01*
X291872410Y-60404080D01*
X291859320Y-60407360D01*
X291845980Y-60409340D01*
X291832500Y-60410000D01*
X291557500Y-60410000D01*
X291544020Y-60409340D01*
X291530680Y-60407360D01*
X291517590Y-60404080D01*
X291504880Y-60399530D01*
X291492680Y-60393760D01*
X291481110Y-60386830D01*
X291470270Y-60378790D01*
X291460270Y-60369730D01*
X291451210Y-60359730D01*
X291443170Y-60348890D01*
X291436240Y-60337320D01*
X291430470Y-60325120D01*
X291425920Y-60312410D01*
X291422640Y-60299320D01*
X291420660Y-60285980D01*
X291420000Y-60272500D01*
X291420000Y-58947500D01*
X291420660Y-58934020D01*
X291422640Y-58920680D01*
X291425920Y-58907590D01*
X291430470Y-58894880D01*
X291436240Y-58882680D01*
X291443170Y-58871110D01*
X291451210Y-58860270D01*
X291460270Y-58850270D01*
X291470270Y-58841210D01*
X291481110Y-58833170D01*
X291492680Y-58826240D01*
X291504880Y-58820470D01*
X291517590Y-58815920D01*
X291530680Y-58812640D01*
X291544020Y-58810660D01*
X291557500Y-58810000D01*
X291832500Y-58810000D01*
X291845980Y-58810660D01*
G37*
G36*
X290575980Y-58810660D02*
G01*
X290589320Y-58812640D01*
X290602410Y-58815920D01*
X290615120Y-58820470D01*
X290627320Y-58826240D01*
X290638890Y-58833170D01*
X290649730Y-58841210D01*
X290659730Y-58850270D01*
X290668790Y-58860270D01*
X290676830Y-58871110D01*
X290683760Y-58882680D01*
X290689530Y-58894880D01*
X290694080Y-58907590D01*
X290697360Y-58920680D01*
X290699340Y-58934020D01*
X290700000Y-58947500D01*
X290700000Y-60272500D01*
X290699340Y-60285980D01*
X290697360Y-60299320D01*
X290694080Y-60312410D01*
X290689530Y-60325120D01*
X290683760Y-60337320D01*
X290676830Y-60348890D01*
X290668790Y-60359730D01*
X290659730Y-60369730D01*
X290649730Y-60378790D01*
X290638890Y-60386830D01*
X290627320Y-60393760D01*
X290615120Y-60399530D01*
X290602410Y-60404080D01*
X290589320Y-60407360D01*
X290575980Y-60409340D01*
X290562500Y-60410000D01*
X290287500Y-60410000D01*
X290274020Y-60409340D01*
X290260680Y-60407360D01*
X290247590Y-60404080D01*
X290234880Y-60399530D01*
X290222680Y-60393760D01*
X290211110Y-60386830D01*
X290200270Y-60378790D01*
X290190270Y-60369730D01*
X290181210Y-60359730D01*
X290173170Y-60348890D01*
X290166240Y-60337320D01*
X290160470Y-60325120D01*
X290155920Y-60312410D01*
X290152640Y-60299320D01*
X290150660Y-60285980D01*
X290150000Y-60272500D01*
X290150000Y-58947500D01*
X290150660Y-58934020D01*
X290152640Y-58920680D01*
X290155920Y-58907590D01*
X290160470Y-58894880D01*
X290166240Y-58882680D01*
X290173170Y-58871110D01*
X290181210Y-58860270D01*
X290190270Y-58850270D01*
X290200270Y-58841210D01*
X290211110Y-58833170D01*
X290222680Y-58826240D01*
X290234880Y-58820470D01*
X290247590Y-58815920D01*
X290260680Y-58812640D01*
X290274020Y-58810660D01*
X290287500Y-58810000D01*
X290562500Y-58810000D01*
X290575980Y-58810660D01*
G37*
G36*
X289305980Y-58810660D02*
G01*
X289319320Y-58812640D01*
X289332410Y-58815920D01*
X289345120Y-58820470D01*
X289357320Y-58826240D01*
X289368890Y-58833170D01*
X289379730Y-58841210D01*
X289389730Y-58850270D01*
X289398790Y-58860270D01*
X289406830Y-58871110D01*
X289413760Y-58882680D01*
X289419530Y-58894880D01*
X289424080Y-58907590D01*
X289427360Y-58920680D01*
X289429340Y-58934020D01*
X289430000Y-58947500D01*
X289430000Y-60272500D01*
X289429340Y-60285980D01*
X289427360Y-60299320D01*
X289424080Y-60312410D01*
X289419530Y-60325120D01*
X289413760Y-60337320D01*
X289406830Y-60348890D01*
X289398790Y-60359730D01*
X289389730Y-60369730D01*
X289379730Y-60378790D01*
X289368890Y-60386830D01*
X289357320Y-60393760D01*
X289345120Y-60399530D01*
X289332410Y-60404080D01*
X289319320Y-60407360D01*
X289305980Y-60409340D01*
X289292500Y-60410000D01*
X289017500Y-60410000D01*
X289004020Y-60409340D01*
X288990680Y-60407360D01*
X288977590Y-60404080D01*
X288964880Y-60399530D01*
X288952680Y-60393760D01*
X288941110Y-60386830D01*
X288930270Y-60378790D01*
X288920270Y-60369730D01*
X288911210Y-60359730D01*
X288903170Y-60348890D01*
X288896240Y-60337320D01*
X288890470Y-60325120D01*
X288885920Y-60312410D01*
X288882640Y-60299320D01*
X288880660Y-60285980D01*
X288880000Y-60272500D01*
X288880000Y-58947500D01*
X288880660Y-58934020D01*
X288882640Y-58920680D01*
X288885920Y-58907590D01*
X288890470Y-58894880D01*
X288896240Y-58882680D01*
X288903170Y-58871110D01*
X288911210Y-58860270D01*
X288920270Y-58850270D01*
X288930270Y-58841210D01*
X288941110Y-58833170D01*
X288952680Y-58826240D01*
X288964880Y-58820470D01*
X288977590Y-58815920D01*
X288990680Y-58812640D01*
X289004020Y-58810660D01*
X289017500Y-58810000D01*
X289292500Y-58810000D01*
X289305980Y-58810660D01*
G37*
G36*
X288035980Y-58810660D02*
G01*
X288049320Y-58812640D01*
X288062410Y-58815920D01*
X288075120Y-58820470D01*
X288087320Y-58826240D01*
X288098890Y-58833170D01*
X288109730Y-58841210D01*
X288119730Y-58850270D01*
X288128790Y-58860270D01*
X288136830Y-58871110D01*
X288143760Y-58882680D01*
X288149530Y-58894880D01*
X288154080Y-58907590D01*
X288157360Y-58920680D01*
X288159340Y-58934020D01*
X288160000Y-58947500D01*
X288160000Y-60272500D01*
X288159340Y-60285980D01*
X288157360Y-60299320D01*
X288154080Y-60312410D01*
X288149530Y-60325120D01*
X288143760Y-60337320D01*
X288136830Y-60348890D01*
X288128790Y-60359730D01*
X288119730Y-60369730D01*
X288109730Y-60378790D01*
X288098890Y-60386830D01*
X288087320Y-60393760D01*
X288075120Y-60399530D01*
X288062410Y-60404080D01*
X288049320Y-60407360D01*
X288035980Y-60409340D01*
X288022500Y-60410000D01*
X287747500Y-60410000D01*
X287734020Y-60409340D01*
X287720680Y-60407360D01*
X287707590Y-60404080D01*
X287694880Y-60399530D01*
X287682680Y-60393760D01*
X287671110Y-60386830D01*
X287660270Y-60378790D01*
X287650270Y-60369730D01*
X287641210Y-60359730D01*
X287633170Y-60348890D01*
X287626240Y-60337320D01*
X287620470Y-60325120D01*
X287615920Y-60312410D01*
X287612640Y-60299320D01*
X287610660Y-60285980D01*
X287610000Y-60272500D01*
X287610000Y-58947500D01*
X287610660Y-58934020D01*
X287612640Y-58920680D01*
X287615920Y-58907590D01*
X287620470Y-58894880D01*
X287626240Y-58882680D01*
X287633170Y-58871110D01*
X287641210Y-58860270D01*
X287650270Y-58850270D01*
X287660270Y-58841210D01*
X287671110Y-58833170D01*
X287682680Y-58826240D01*
X287694880Y-58820470D01*
X287707590Y-58815920D01*
X287720680Y-58812640D01*
X287734020Y-58810660D01*
X287747500Y-58810000D01*
X288022500Y-58810000D01*
X288035980Y-58810660D01*
G37*
G36*
X286765980Y-58810660D02*
G01*
X286779320Y-58812640D01*
X286792410Y-58815920D01*
X286805120Y-58820470D01*
X286817320Y-58826240D01*
X286828890Y-58833170D01*
X286839730Y-58841210D01*
X286849730Y-58850270D01*
X286858790Y-58860270D01*
X286866830Y-58871110D01*
X286873760Y-58882680D01*
X286879530Y-58894880D01*
X286884080Y-58907590D01*
X286887360Y-58920680D01*
X286889340Y-58934020D01*
X286890000Y-58947500D01*
X286890000Y-60272500D01*
X286889340Y-60285980D01*
X286887360Y-60299320D01*
X286884080Y-60312410D01*
X286879530Y-60325120D01*
X286873760Y-60337320D01*
X286866830Y-60348890D01*
X286858790Y-60359730D01*
X286849730Y-60369730D01*
X286839730Y-60378790D01*
X286828890Y-60386830D01*
X286817320Y-60393760D01*
X286805120Y-60399530D01*
X286792410Y-60404080D01*
X286779320Y-60407360D01*
X286765980Y-60409340D01*
X286752500Y-60410000D01*
X286477500Y-60410000D01*
X286464020Y-60409340D01*
X286450680Y-60407360D01*
X286437590Y-60404080D01*
X286424880Y-60399530D01*
X286412680Y-60393760D01*
X286401110Y-60386830D01*
X286390270Y-60378790D01*
X286380270Y-60369730D01*
X286371210Y-60359730D01*
X286363170Y-60348890D01*
X286356240Y-60337320D01*
X286350470Y-60325120D01*
X286345920Y-60312410D01*
X286342640Y-60299320D01*
X286340660Y-60285980D01*
X286340000Y-60272500D01*
X286340000Y-58947500D01*
X286340660Y-58934020D01*
X286342640Y-58920680D01*
X286345920Y-58907590D01*
X286350470Y-58894880D01*
X286356240Y-58882680D01*
X286363170Y-58871110D01*
X286371210Y-58860270D01*
X286380270Y-58850270D01*
X286390270Y-58841210D01*
X286401110Y-58833170D01*
X286412680Y-58826240D01*
X286424880Y-58820470D01*
X286437590Y-58815920D01*
X286450680Y-58812640D01*
X286464020Y-58810660D01*
X286477500Y-58810000D01*
X286752500Y-58810000D01*
X286765980Y-58810660D01*
G37*
G36*
X285495980Y-58810660D02*
G01*
X285509320Y-58812640D01*
X285522410Y-58815920D01*
X285535120Y-58820470D01*
X285547320Y-58826240D01*
X285558890Y-58833170D01*
X285569730Y-58841210D01*
X285579730Y-58850270D01*
X285588790Y-58860270D01*
X285596830Y-58871110D01*
X285603760Y-58882680D01*
X285609530Y-58894880D01*
X285614080Y-58907590D01*
X285617360Y-58920680D01*
X285619340Y-58934020D01*
X285620000Y-58947500D01*
X285620000Y-60272500D01*
X285619340Y-60285980D01*
X285617360Y-60299320D01*
X285614080Y-60312410D01*
X285609530Y-60325120D01*
X285603760Y-60337320D01*
X285596830Y-60348890D01*
X285588790Y-60359730D01*
X285579730Y-60369730D01*
X285569730Y-60378790D01*
X285558890Y-60386830D01*
X285547320Y-60393760D01*
X285535120Y-60399530D01*
X285522410Y-60404080D01*
X285509320Y-60407360D01*
X285495980Y-60409340D01*
X285482500Y-60410000D01*
X285207500Y-60410000D01*
X285194020Y-60409340D01*
X285180680Y-60407360D01*
X285167590Y-60404080D01*
X285154880Y-60399530D01*
X285142680Y-60393760D01*
X285131110Y-60386830D01*
X285120270Y-60378790D01*
X285110270Y-60369730D01*
X285101210Y-60359730D01*
X285093170Y-60348890D01*
X285086240Y-60337320D01*
X285080470Y-60325120D01*
X285075920Y-60312410D01*
X285072640Y-60299320D01*
X285070660Y-60285980D01*
X285070000Y-60272500D01*
X285070000Y-58947500D01*
X285070660Y-58934020D01*
X285072640Y-58920680D01*
X285075920Y-58907590D01*
X285080470Y-58894880D01*
X285086240Y-58882680D01*
X285093170Y-58871110D01*
X285101210Y-58860270D01*
X285110270Y-58850270D01*
X285120270Y-58841210D01*
X285131110Y-58833170D01*
X285142680Y-58826240D01*
X285154880Y-58820470D01*
X285167590Y-58815920D01*
X285180680Y-58812640D01*
X285194020Y-58810660D01*
X285207500Y-58810000D01*
X285482500Y-58810000D01*
X285495980Y-58810660D01*
G37*
G36*
X284225980Y-58810660D02*
G01*
X284239320Y-58812640D01*
X284252410Y-58815920D01*
X284265120Y-58820470D01*
X284277320Y-58826240D01*
X284288890Y-58833170D01*
X284299730Y-58841210D01*
X284309730Y-58850270D01*
X284318790Y-58860270D01*
X284326830Y-58871110D01*
X284333760Y-58882680D01*
X284339530Y-58894880D01*
X284344080Y-58907590D01*
X284347360Y-58920680D01*
X284349340Y-58934020D01*
X284350000Y-58947500D01*
X284350000Y-60272500D01*
X284349340Y-60285980D01*
X284347360Y-60299320D01*
X284344080Y-60312410D01*
X284339530Y-60325120D01*
X284333760Y-60337320D01*
X284326830Y-60348890D01*
X284318790Y-60359730D01*
X284309730Y-60369730D01*
X284299730Y-60378790D01*
X284288890Y-60386830D01*
X284277320Y-60393760D01*
X284265120Y-60399530D01*
X284252410Y-60404080D01*
X284239320Y-60407360D01*
X284225980Y-60409340D01*
X284212500Y-60410000D01*
X283937500Y-60410000D01*
X283924020Y-60409340D01*
X283910680Y-60407360D01*
X283897590Y-60404080D01*
X283884880Y-60399530D01*
X283872680Y-60393760D01*
X283861110Y-60386830D01*
X283850270Y-60378790D01*
X283840270Y-60369730D01*
X283831210Y-60359730D01*
X283823170Y-60348890D01*
X283816240Y-60337320D01*
X283810470Y-60325120D01*
X283805920Y-60312410D01*
X283802640Y-60299320D01*
X283800660Y-60285980D01*
X283800000Y-60272500D01*
X283800000Y-58947500D01*
X283800660Y-58934020D01*
X283802640Y-58920680D01*
X283805920Y-58907590D01*
X283810470Y-58894880D01*
X283816240Y-58882680D01*
X283823170Y-58871110D01*
X283831210Y-58860270D01*
X283840270Y-58850270D01*
X283850270Y-58841210D01*
X283861110Y-58833170D01*
X283872680Y-58826240D01*
X283884880Y-58820470D01*
X283897590Y-58815920D01*
X283910680Y-58812640D01*
X283924020Y-58810660D01*
X283937500Y-58810000D01*
X284212500Y-58810000D01*
X284225980Y-58810660D01*
G37*
G36*
X282955980Y-58810660D02*
G01*
X282969320Y-58812640D01*
X282982410Y-58815920D01*
X282995120Y-58820470D01*
X283007320Y-58826240D01*
X283018890Y-58833170D01*
X283029730Y-58841210D01*
X283039730Y-58850270D01*
X283048790Y-58860270D01*
X283056830Y-58871110D01*
X283063760Y-58882680D01*
X283069530Y-58894880D01*
X283074080Y-58907590D01*
X283077360Y-58920680D01*
X283079340Y-58934020D01*
X283080000Y-58947500D01*
X283080000Y-60272500D01*
X283079340Y-60285980D01*
X283077360Y-60299320D01*
X283074080Y-60312410D01*
X283069530Y-60325120D01*
X283063760Y-60337320D01*
X283056830Y-60348890D01*
X283048790Y-60359730D01*
X283039730Y-60369730D01*
X283029730Y-60378790D01*
X283018890Y-60386830D01*
X283007320Y-60393760D01*
X282995120Y-60399530D01*
X282982410Y-60404080D01*
X282969320Y-60407360D01*
X282955980Y-60409340D01*
X282942500Y-60410000D01*
X282667500Y-60410000D01*
X282654020Y-60409340D01*
X282640680Y-60407360D01*
X282627590Y-60404080D01*
X282614880Y-60399530D01*
X282602680Y-60393760D01*
X282591110Y-60386830D01*
X282580270Y-60378790D01*
X282570270Y-60369730D01*
X282561210Y-60359730D01*
X282553170Y-60348890D01*
X282546240Y-60337320D01*
X282540470Y-60325120D01*
X282535920Y-60312410D01*
X282532640Y-60299320D01*
X282530660Y-60285980D01*
X282530000Y-60272500D01*
X282530000Y-58947500D01*
X282530660Y-58934020D01*
X282532640Y-58920680D01*
X282535920Y-58907590D01*
X282540470Y-58894880D01*
X282546240Y-58882680D01*
X282553170Y-58871110D01*
X282561210Y-58860270D01*
X282570270Y-58850270D01*
X282580270Y-58841210D01*
X282591110Y-58833170D01*
X282602680Y-58826240D01*
X282614880Y-58820470D01*
X282627590Y-58815920D01*
X282640680Y-58812640D01*
X282654020Y-58810660D01*
X282667500Y-58810000D01*
X282942500Y-58810000D01*
X282955980Y-58810660D01*
G37*
G36*
X282955980Y-52310660D02*
G01*
X282969320Y-52312640D01*
X282982410Y-52315920D01*
X282995120Y-52320470D01*
X283007320Y-52326240D01*
X283018890Y-52333170D01*
X283029730Y-52341210D01*
X283039730Y-52350270D01*
X283048790Y-52360270D01*
X283056830Y-52371110D01*
X283063760Y-52382680D01*
X283069530Y-52394880D01*
X283074080Y-52407590D01*
X283077360Y-52420680D01*
X283079340Y-52434020D01*
X283080000Y-52447500D01*
X283080000Y-53772500D01*
X283079340Y-53785980D01*
X283077360Y-53799320D01*
X283074080Y-53812410D01*
X283069530Y-53825120D01*
X283063760Y-53837320D01*
X283056830Y-53848890D01*
X283048790Y-53859730D01*
X283039730Y-53869730D01*
X283029730Y-53878790D01*
X283018890Y-53886830D01*
X283007320Y-53893760D01*
X282995120Y-53899530D01*
X282982410Y-53904080D01*
X282969320Y-53907360D01*
X282955980Y-53909340D01*
X282942500Y-53910000D01*
X282667500Y-53910000D01*
X282654020Y-53909340D01*
X282640680Y-53907360D01*
X282627590Y-53904080D01*
X282614880Y-53899530D01*
X282602680Y-53893760D01*
X282591110Y-53886830D01*
X282580270Y-53878790D01*
X282570270Y-53869730D01*
X282561210Y-53859730D01*
X282553170Y-53848890D01*
X282546240Y-53837320D01*
X282540470Y-53825120D01*
X282535920Y-53812410D01*
X282532640Y-53799320D01*
X282530660Y-53785980D01*
X282530000Y-53772500D01*
X282530000Y-52447500D01*
X282530660Y-52434020D01*
X282532640Y-52420680D01*
X282535920Y-52407590D01*
X282540470Y-52394880D01*
X282546240Y-52382680D01*
X282553170Y-52371110D01*
X282561210Y-52360270D01*
X282570270Y-52350270D01*
X282580270Y-52341210D01*
X282591110Y-52333170D01*
X282602680Y-52326240D01*
X282614880Y-52320470D01*
X282627590Y-52315920D01*
X282640680Y-52312640D01*
X282654020Y-52310660D01*
X282667500Y-52310000D01*
X282942500Y-52310000D01*
X282955980Y-52310660D01*
G37*
G36*
X284225980Y-52310660D02*
G01*
X284239320Y-52312640D01*
X284252410Y-52315920D01*
X284265120Y-52320470D01*
X284277320Y-52326240D01*
X284288890Y-52333170D01*
X284299730Y-52341210D01*
X284309730Y-52350270D01*
X284318790Y-52360270D01*
X284326830Y-52371110D01*
X284333760Y-52382680D01*
X284339530Y-52394880D01*
X284344080Y-52407590D01*
X284347360Y-52420680D01*
X284349340Y-52434020D01*
X284350000Y-52447500D01*
X284350000Y-53772500D01*
X284349340Y-53785980D01*
X284347360Y-53799320D01*
X284344080Y-53812410D01*
X284339530Y-53825120D01*
X284333760Y-53837320D01*
X284326830Y-53848890D01*
X284318790Y-53859730D01*
X284309730Y-53869730D01*
X284299730Y-53878790D01*
X284288890Y-53886830D01*
X284277320Y-53893760D01*
X284265120Y-53899530D01*
X284252410Y-53904080D01*
X284239320Y-53907360D01*
X284225980Y-53909340D01*
X284212500Y-53910000D01*
X283937500Y-53910000D01*
X283924020Y-53909340D01*
X283910680Y-53907360D01*
X283897590Y-53904080D01*
X283884880Y-53899530D01*
X283872680Y-53893760D01*
X283861110Y-53886830D01*
X283850270Y-53878790D01*
X283840270Y-53869730D01*
X283831210Y-53859730D01*
X283823170Y-53848890D01*
X283816240Y-53837320D01*
X283810470Y-53825120D01*
X283805920Y-53812410D01*
X283802640Y-53799320D01*
X283800660Y-53785980D01*
X283800000Y-53772500D01*
X283800000Y-52447500D01*
X283800660Y-52434020D01*
X283802640Y-52420680D01*
X283805920Y-52407590D01*
X283810470Y-52394880D01*
X283816240Y-52382680D01*
X283823170Y-52371110D01*
X283831210Y-52360270D01*
X283840270Y-52350270D01*
X283850270Y-52341210D01*
X283861110Y-52333170D01*
X283872680Y-52326240D01*
X283884880Y-52320470D01*
X283897590Y-52315920D01*
X283910680Y-52312640D01*
X283924020Y-52310660D01*
X283937500Y-52310000D01*
X284212500Y-52310000D01*
X284225980Y-52310660D01*
G37*
G36*
X285495980Y-52310660D02*
G01*
X285509320Y-52312640D01*
X285522410Y-52315920D01*
X285535120Y-52320470D01*
X285547320Y-52326240D01*
X285558890Y-52333170D01*
X285569730Y-52341210D01*
X285579730Y-52350270D01*
X285588790Y-52360270D01*
X285596830Y-52371110D01*
X285603760Y-52382680D01*
X285609530Y-52394880D01*
X285614080Y-52407590D01*
X285617360Y-52420680D01*
X285619340Y-52434020D01*
X285620000Y-52447500D01*
X285620000Y-53772500D01*
X285619340Y-53785980D01*
X285617360Y-53799320D01*
X285614080Y-53812410D01*
X285609530Y-53825120D01*
X285603760Y-53837320D01*
X285596830Y-53848890D01*
X285588790Y-53859730D01*
X285579730Y-53869730D01*
X285569730Y-53878790D01*
X285558890Y-53886830D01*
X285547320Y-53893760D01*
X285535120Y-53899530D01*
X285522410Y-53904080D01*
X285509320Y-53907360D01*
X285495980Y-53909340D01*
X285482500Y-53910000D01*
X285207500Y-53910000D01*
X285194020Y-53909340D01*
X285180680Y-53907360D01*
X285167590Y-53904080D01*
X285154880Y-53899530D01*
X285142680Y-53893760D01*
X285131110Y-53886830D01*
X285120270Y-53878790D01*
X285110270Y-53869730D01*
X285101210Y-53859730D01*
X285093170Y-53848890D01*
X285086240Y-53837320D01*
X285080470Y-53825120D01*
X285075920Y-53812410D01*
X285072640Y-53799320D01*
X285070660Y-53785980D01*
X285070000Y-53772500D01*
X285070000Y-52447500D01*
X285070660Y-52434020D01*
X285072640Y-52420680D01*
X285075920Y-52407590D01*
X285080470Y-52394880D01*
X285086240Y-52382680D01*
X285093170Y-52371110D01*
X285101210Y-52360270D01*
X285110270Y-52350270D01*
X285120270Y-52341210D01*
X285131110Y-52333170D01*
X285142680Y-52326240D01*
X285154880Y-52320470D01*
X285167590Y-52315920D01*
X285180680Y-52312640D01*
X285194020Y-52310660D01*
X285207500Y-52310000D01*
X285482500Y-52310000D01*
X285495980Y-52310660D01*
G37*
G36*
X286765980Y-52310660D02*
G01*
X286779320Y-52312640D01*
X286792410Y-52315920D01*
X286805120Y-52320470D01*
X286817320Y-52326240D01*
X286828890Y-52333170D01*
X286839730Y-52341210D01*
X286849730Y-52350270D01*
X286858790Y-52360270D01*
X286866830Y-52371110D01*
X286873760Y-52382680D01*
X286879530Y-52394880D01*
X286884080Y-52407590D01*
X286887360Y-52420680D01*
X286889340Y-52434020D01*
X286890000Y-52447500D01*
X286890000Y-53772500D01*
X286889340Y-53785980D01*
X286887360Y-53799320D01*
X286884080Y-53812410D01*
X286879530Y-53825120D01*
X286873760Y-53837320D01*
X286866830Y-53848890D01*
X286858790Y-53859730D01*
X286849730Y-53869730D01*
X286839730Y-53878790D01*
X286828890Y-53886830D01*
X286817320Y-53893760D01*
X286805120Y-53899530D01*
X286792410Y-53904080D01*
X286779320Y-53907360D01*
X286765980Y-53909340D01*
X286752500Y-53910000D01*
X286477500Y-53910000D01*
X286464020Y-53909340D01*
X286450680Y-53907360D01*
X286437590Y-53904080D01*
X286424880Y-53899530D01*
X286412680Y-53893760D01*
X286401110Y-53886830D01*
X286390270Y-53878790D01*
X286380270Y-53869730D01*
X286371210Y-53859730D01*
X286363170Y-53848890D01*
X286356240Y-53837320D01*
X286350470Y-53825120D01*
X286345920Y-53812410D01*
X286342640Y-53799320D01*
X286340660Y-53785980D01*
X286340000Y-53772500D01*
X286340000Y-52447500D01*
X286340660Y-52434020D01*
X286342640Y-52420680D01*
X286345920Y-52407590D01*
X286350470Y-52394880D01*
X286356240Y-52382680D01*
X286363170Y-52371110D01*
X286371210Y-52360270D01*
X286380270Y-52350270D01*
X286390270Y-52341210D01*
X286401110Y-52333170D01*
X286412680Y-52326240D01*
X286424880Y-52320470D01*
X286437590Y-52315920D01*
X286450680Y-52312640D01*
X286464020Y-52310660D01*
X286477500Y-52310000D01*
X286752500Y-52310000D01*
X286765980Y-52310660D01*
G37*
G36*
X288035980Y-52310660D02*
G01*
X288049320Y-52312640D01*
X288062410Y-52315920D01*
X288075120Y-52320470D01*
X288087320Y-52326240D01*
X288098890Y-52333170D01*
X288109730Y-52341210D01*
X288119730Y-52350270D01*
X288128790Y-52360270D01*
X288136830Y-52371110D01*
X288143760Y-52382680D01*
X288149530Y-52394880D01*
X288154080Y-52407590D01*
X288157360Y-52420680D01*
X288159340Y-52434020D01*
X288160000Y-52447500D01*
X288160000Y-53772500D01*
X288159340Y-53785980D01*
X288157360Y-53799320D01*
X288154080Y-53812410D01*
X288149530Y-53825120D01*
X288143760Y-53837320D01*
X288136830Y-53848890D01*
X288128790Y-53859730D01*
X288119730Y-53869730D01*
X288109730Y-53878790D01*
X288098890Y-53886830D01*
X288087320Y-53893760D01*
X288075120Y-53899530D01*
X288062410Y-53904080D01*
X288049320Y-53907360D01*
X288035980Y-53909340D01*
X288022500Y-53910000D01*
X287747500Y-53910000D01*
X287734020Y-53909340D01*
X287720680Y-53907360D01*
X287707590Y-53904080D01*
X287694880Y-53899530D01*
X287682680Y-53893760D01*
X287671110Y-53886830D01*
X287660270Y-53878790D01*
X287650270Y-53869730D01*
X287641210Y-53859730D01*
X287633170Y-53848890D01*
X287626240Y-53837320D01*
X287620470Y-53825120D01*
X287615920Y-53812410D01*
X287612640Y-53799320D01*
X287610660Y-53785980D01*
X287610000Y-53772500D01*
X287610000Y-52447500D01*
X287610660Y-52434020D01*
X287612640Y-52420680D01*
X287615920Y-52407590D01*
X287620470Y-52394880D01*
X287626240Y-52382680D01*
X287633170Y-52371110D01*
X287641210Y-52360270D01*
X287650270Y-52350270D01*
X287660270Y-52341210D01*
X287671110Y-52333170D01*
X287682680Y-52326240D01*
X287694880Y-52320470D01*
X287707590Y-52315920D01*
X287720680Y-52312640D01*
X287734020Y-52310660D01*
X287747500Y-52310000D01*
X288022500Y-52310000D01*
X288035980Y-52310660D01*
G37*
G36*
X289305980Y-52310660D02*
G01*
X289319320Y-52312640D01*
X289332410Y-52315920D01*
X289345120Y-52320470D01*
X289357320Y-52326240D01*
X289368890Y-52333170D01*
X289379730Y-52341210D01*
X289389730Y-52350270D01*
X289398790Y-52360270D01*
X289406830Y-52371110D01*
X289413760Y-52382680D01*
X289419530Y-52394880D01*
X289424080Y-52407590D01*
X289427360Y-52420680D01*
X289429340Y-52434020D01*
X289430000Y-52447500D01*
X289430000Y-53772500D01*
X289429340Y-53785980D01*
X289427360Y-53799320D01*
X289424080Y-53812410D01*
X289419530Y-53825120D01*
X289413760Y-53837320D01*
X289406830Y-53848890D01*
X289398790Y-53859730D01*
X289389730Y-53869730D01*
X289379730Y-53878790D01*
X289368890Y-53886830D01*
X289357320Y-53893760D01*
X289345120Y-53899530D01*
X289332410Y-53904080D01*
X289319320Y-53907360D01*
X289305980Y-53909340D01*
X289292500Y-53910000D01*
X289017500Y-53910000D01*
X289004020Y-53909340D01*
X288990680Y-53907360D01*
X288977590Y-53904080D01*
X288964880Y-53899530D01*
X288952680Y-53893760D01*
X288941110Y-53886830D01*
X288930270Y-53878790D01*
X288920270Y-53869730D01*
X288911210Y-53859730D01*
X288903170Y-53848890D01*
X288896240Y-53837320D01*
X288890470Y-53825120D01*
X288885920Y-53812410D01*
X288882640Y-53799320D01*
X288880660Y-53785980D01*
X288880000Y-53772500D01*
X288880000Y-52447500D01*
X288880660Y-52434020D01*
X288882640Y-52420680D01*
X288885920Y-52407590D01*
X288890470Y-52394880D01*
X288896240Y-52382680D01*
X288903170Y-52371110D01*
X288911210Y-52360270D01*
X288920270Y-52350270D01*
X288930270Y-52341210D01*
X288941110Y-52333170D01*
X288952680Y-52326240D01*
X288964880Y-52320470D01*
X288977590Y-52315920D01*
X288990680Y-52312640D01*
X289004020Y-52310660D01*
X289017500Y-52310000D01*
X289292500Y-52310000D01*
X289305980Y-52310660D01*
G37*
G36*
X290575980Y-52310660D02*
G01*
X290589320Y-52312640D01*
X290602410Y-52315920D01*
X290615120Y-52320470D01*
X290627320Y-52326240D01*
X290638890Y-52333170D01*
X290649730Y-52341210D01*
X290659730Y-52350270D01*
X290668790Y-52360270D01*
X290676830Y-52371110D01*
X290683760Y-52382680D01*
X290689530Y-52394880D01*
X290694080Y-52407590D01*
X290697360Y-52420680D01*
X290699340Y-52434020D01*
X290700000Y-52447500D01*
X290700000Y-53772500D01*
X290699340Y-53785980D01*
X290697360Y-53799320D01*
X290694080Y-53812410D01*
X290689530Y-53825120D01*
X290683760Y-53837320D01*
X290676830Y-53848890D01*
X290668790Y-53859730D01*
X290659730Y-53869730D01*
X290649730Y-53878790D01*
X290638890Y-53886830D01*
X290627320Y-53893760D01*
X290615120Y-53899530D01*
X290602410Y-53904080D01*
X290589320Y-53907360D01*
X290575980Y-53909340D01*
X290562500Y-53910000D01*
X290287500Y-53910000D01*
X290274020Y-53909340D01*
X290260680Y-53907360D01*
X290247590Y-53904080D01*
X290234880Y-53899530D01*
X290222680Y-53893760D01*
X290211110Y-53886830D01*
X290200270Y-53878790D01*
X290190270Y-53869730D01*
X290181210Y-53859730D01*
X290173170Y-53848890D01*
X290166240Y-53837320D01*
X290160470Y-53825120D01*
X290155920Y-53812410D01*
X290152640Y-53799320D01*
X290150660Y-53785980D01*
X290150000Y-53772500D01*
X290150000Y-52447500D01*
X290150660Y-52434020D01*
X290152640Y-52420680D01*
X290155920Y-52407590D01*
X290160470Y-52394880D01*
X290166240Y-52382680D01*
X290173170Y-52371110D01*
X290181210Y-52360270D01*
X290190270Y-52350270D01*
X290200270Y-52341210D01*
X290211110Y-52333170D01*
X290222680Y-52326240D01*
X290234880Y-52320470D01*
X290247590Y-52315920D01*
X290260680Y-52312640D01*
X290274020Y-52310660D01*
X290287500Y-52310000D01*
X290562500Y-52310000D01*
X290575980Y-52310660D01*
G37*
G36*
X291845980Y-52310660D02*
G01*
X291859320Y-52312640D01*
X291872410Y-52315920D01*
X291885120Y-52320470D01*
X291897320Y-52326240D01*
X291908890Y-52333170D01*
X291919730Y-52341210D01*
X291929730Y-52350270D01*
X291938790Y-52360270D01*
X291946830Y-52371110D01*
X291953760Y-52382680D01*
X291959530Y-52394880D01*
X291964080Y-52407590D01*
X291967360Y-52420680D01*
X291969340Y-52434020D01*
X291970000Y-52447500D01*
X291970000Y-53772500D01*
X291969340Y-53785980D01*
X291967360Y-53799320D01*
X291964080Y-53812410D01*
X291959530Y-53825120D01*
X291953760Y-53837320D01*
X291946830Y-53848890D01*
X291938790Y-53859730D01*
X291929730Y-53869730D01*
X291919730Y-53878790D01*
X291908890Y-53886830D01*
X291897320Y-53893760D01*
X291885120Y-53899530D01*
X291872410Y-53904080D01*
X291859320Y-53907360D01*
X291845980Y-53909340D01*
X291832500Y-53910000D01*
X291557500Y-53910000D01*
X291544020Y-53909340D01*
X291530680Y-53907360D01*
X291517590Y-53904080D01*
X291504880Y-53899530D01*
X291492680Y-53893760D01*
X291481110Y-53886830D01*
X291470270Y-53878790D01*
X291460270Y-53869730D01*
X291451210Y-53859730D01*
X291443170Y-53848890D01*
X291436240Y-53837320D01*
X291430470Y-53825120D01*
X291425920Y-53812410D01*
X291422640Y-53799320D01*
X291420660Y-53785980D01*
X291420000Y-53772500D01*
X291420000Y-52447500D01*
X291420660Y-52434020D01*
X291422640Y-52420680D01*
X291425920Y-52407590D01*
X291430470Y-52394880D01*
X291436240Y-52382680D01*
X291443170Y-52371110D01*
X291451210Y-52360270D01*
X291460270Y-52350270D01*
X291470270Y-52341210D01*
X291481110Y-52333170D01*
X291492680Y-52326240D01*
X291504880Y-52320470D01*
X291517590Y-52315920D01*
X291530680Y-52312640D01*
X291544020Y-52310660D01*
X291557500Y-52310000D01*
X291832500Y-52310000D01*
X291845980Y-52310660D01*
G37*
G36*
X359850000Y-186500000D02*
G01*
X358350000Y-186500000D01*
X358350000Y-185500000D01*
X359850000Y-185500000D01*
X359850000Y-186500000D01*
G37*
G36*
X359850000Y-183300000D02*
G01*
X358350000Y-183300000D01*
X358350000Y-182300000D01*
X359850000Y-182300000D01*
X359850000Y-183300000D01*
G37*
G36*
X364750000Y-183300000D02*
G01*
X363250000Y-183300000D01*
X363250000Y-182300000D01*
X364750000Y-182300000D01*
X364750000Y-183300000D01*
G37*
G36*
X364750000Y-186500000D02*
G01*
X363250000Y-186500000D01*
X363250000Y-185500000D01*
X364750000Y-185500000D01*
X364750000Y-186500000D01*
G37*
G36*
X132850000Y-189700000D02*
G01*
X131350000Y-189700000D01*
X131350000Y-188700000D01*
X132850000Y-188700000D01*
X132850000Y-189700000D01*
G37*
G36*
X132850000Y-186500000D02*
G01*
X131350000Y-186500000D01*
X131350000Y-185500000D01*
X132850000Y-185500000D01*
X132850000Y-186500000D01*
G37*
G36*
X137750000Y-186500000D02*
G01*
X136250000Y-186500000D01*
X136250000Y-185500000D01*
X137750000Y-185500000D01*
X137750000Y-186500000D01*
G37*
G36*
X137750000Y-189700000D02*
G01*
X136250000Y-189700000D01*
X136250000Y-188700000D01*
X137750000Y-188700000D01*
X137750000Y-189700000D01*
G37*
G36*
X37300000Y-94100000D02*
G01*
X35800000Y-94100000D01*
X35800000Y-93100000D01*
X37300000Y-93100000D01*
X37300000Y-94100000D01*
G37*
G36*
X37300000Y-90900000D02*
G01*
X35800000Y-90900000D01*
X35800000Y-89900000D01*
X37300000Y-89900000D01*
X37300000Y-90900000D01*
G37*
G36*
X42200000Y-90900000D02*
G01*
X40700000Y-90900000D01*
X40700000Y-89900000D01*
X42200000Y-89900000D01*
X42200000Y-90900000D01*
G37*
G36*
X42200000Y-94100000D02*
G01*
X40700000Y-94100000D01*
X40700000Y-93100000D01*
X42200000Y-93100000D01*
X42200000Y-94100000D01*
G37*
G36*
X54300000Y-189100000D02*
G01*
X52800000Y-189100000D01*
X52800000Y-188100000D01*
X54300000Y-188100000D01*
X54300000Y-189100000D01*
G37*
G36*
X54300000Y-185900000D02*
G01*
X52800000Y-185900000D01*
X52800000Y-184900000D01*
X54300000Y-184900000D01*
X54300000Y-185900000D01*
G37*
G36*
X59200000Y-185900000D02*
G01*
X57700000Y-185900000D01*
X57700000Y-184900000D01*
X59200000Y-184900000D01*
X59200000Y-185900000D01*
G37*
G36*
X59200000Y-189100000D02*
G01*
X57700000Y-189100000D01*
X57700000Y-188100000D01*
X59200000Y-188100000D01*
X59200000Y-189100000D01*
G37*
G36*
X37900000Y-140300000D02*
G01*
X36900000Y-140300000D01*
X36900000Y-138800000D01*
X37900000Y-138800000D01*
X37900000Y-140300000D01*
G37*
G36*
X41100000Y-140300000D02*
G01*
X40100000Y-140300000D01*
X40100000Y-138800000D01*
X41100000Y-138800000D01*
X41100000Y-140300000D01*
G37*
G36*
X41100000Y-145200000D02*
G01*
X40100000Y-145200000D01*
X40100000Y-143700000D01*
X41100000Y-143700000D01*
X41100000Y-145200000D01*
G37*
G36*
X37900000Y-145200000D02*
G01*
X36900000Y-145200000D01*
X36900000Y-143700000D01*
X37900000Y-143700000D01*
X37900000Y-145200000D01*
G37*
G36*
X362850000Y-115100000D02*
G01*
X361350000Y-115100000D01*
X361350000Y-114100000D01*
X362850000Y-114100000D01*
X362850000Y-115100000D01*
G37*
G36*
X362850000Y-111900000D02*
G01*
X361350000Y-111900000D01*
X361350000Y-110900000D01*
X362850000Y-110900000D01*
X362850000Y-111900000D01*
G37*
G36*
X367750000Y-111900000D02*
G01*
X366250000Y-111900000D01*
X366250000Y-110900000D01*
X367750000Y-110900000D01*
X367750000Y-111900000D01*
G37*
G36*
X367750000Y-115100000D02*
G01*
X366250000Y-115100000D01*
X366250000Y-114100000D01*
X367750000Y-114100000D01*
X367750000Y-115100000D01*
G37*
G36*
X190300000Y-189700000D02*
G01*
X188800000Y-189700000D01*
X188800000Y-188700000D01*
X190300000Y-188700000D01*
X190300000Y-189700000D01*
G37*
G36*
X190300000Y-186500000D02*
G01*
X188800000Y-186500000D01*
X188800000Y-185500000D01*
X190300000Y-185500000D01*
X190300000Y-186500000D01*
G37*
G36*
X195200000Y-186500000D02*
G01*
X193700000Y-186500000D01*
X193700000Y-185500000D01*
X195200000Y-185500000D01*
X195200000Y-186500000D01*
G37*
G36*
X195200000Y-189700000D02*
G01*
X193700000Y-189700000D01*
X193700000Y-188700000D01*
X195200000Y-188700000D01*
X195200000Y-189700000D01*
G37*
M02*
