%TF.GenerationSoftware,KiCad,Pcbnew,10.0.5*%
%TF.CreationDate,2026-08-25T11:07:28+05:30*%
%TF.ProjectId,kyps75,6b797073-3735-42e6-9b69-6361645f7063,rev?*%
%TF.SameCoordinates,Original*%
%TF.FileFunction,Profile,NP*%
%FSLAX46Y46*%
G04 Gerber Fmt 4.6, Leading zero omitted, Abs format (unit mm)*
G04 Created by KiCad (PCBNEW 10.0.5) date 2026-08-25 11:07:28*
%MOMM*%
%LPD*%
G01*
G04 APERTURE LIST*
%TA.AperFunction,Profile*%
%ADD10C,0.050000*%
%TD*%
G04 APERTURE END LIST*
D10*
X372750000Y-188500000D02*
G75*
G02*
X367750000Y-193500000I-5000000J0D01*
G01*
X372750000Y-54500000D02*
X372750000Y-188500000D01*
X186500000Y-53750000D02*
X186500000Y-49500000D01*
X367750000Y-49500000D02*
X355250000Y-49500000D01*
X186500000Y-49500000D02*
X350750000Y-49500000D01*
X182000000Y-53750000D02*
X182000000Y-49500000D01*
X350750000Y-53750000D02*
X350750000Y-49500000D01*
X182000000Y-49500000D02*
X66000000Y-49500000D01*
X32250000Y-54500000D02*
G75*
G02*
X37250000Y-49500000I5000000J0D01*
G01*
X367750000Y-49500000D02*
G75*
G02*
X372750000Y-54500000I0J-5000000D01*
G01*
X355250000Y-53750000D02*
X355250000Y-49500000D01*
X37250000Y-193500000D02*
G75*
G02*
X32250000Y-188500000I10J5000010D01*
G01*
X367750000Y-193500000D02*
X37250000Y-193500000D01*
X186500000Y-53750000D02*
G75*
G02*
X182000000Y-53750000I-2250000J0D01*
G01*
X32250000Y-188500000D02*
X32250000Y-54500000D01*
X66000000Y-53750000D02*
X66000000Y-49500000D01*
X61500000Y-53750000D02*
X61500000Y-49500000D01*
X66000000Y-53750000D02*
G75*
G02*
X61500000Y-53750000I-2250000J0D01*
G01*
X355250000Y-53750000D02*
G75*
G02*
X350750000Y-53750000I-2250000J0D01*
G01*
X37250000Y-49500000D02*
X61500000Y-49500000D01*
M02*
