%TF.GenerationSoftware,KiCad,Pcbnew,10.0.5*%
%TF.CreationDate,2026-08-25T11:07:27+05:30*%
%TF.ProjectId,kyps75,6b797073-3735-42e6-9b69-6361645f7063,rev?*%
%TF.SameCoordinates,Original*%
%TF.FileFunction,Paste,Top*%
%TF.FilePolarity,Positive*%
%FSLAX46Y46*%
G04 Gerber Fmt 4.6, Leading zero omitted, Abs format (unit mm)*
G04 Created by KiCad (PCBNEW 10.0.5) date 2026-08-25 11:07:27*
%MOMM*%
%LPD*%
G01*
G04 APERTURE LIST*
%ADD10C,0.000000*%
G04 APERTURE END LIST*
D10*
G36*
X114900000Y-62200000D02*
G01*
X113900000Y-62200000D01*
X113900000Y-60700000D01*
X114900000Y-60700000D01*
X114900000Y-62200000D01*
G37*
G36*
X118100000Y-62200000D02*
G01*
X117100000Y-62200000D01*
X117100000Y-60700000D01*
X118100000Y-60700000D01*
X118100000Y-62200000D01*
G37*
G36*
X118100000Y-57300000D02*
G01*
X117100000Y-57300000D01*
X117100000Y-55800000D01*
X118100000Y-55800000D01*
X118100000Y-57300000D01*
G37*
G36*
X114900000Y-57300000D02*
G01*
X113900000Y-57300000D01*
X113900000Y-55800000D01*
X114900000Y-55800000D01*
X114900000Y-57300000D01*
G37*
G36*
X302900000Y-56550000D02*
G01*
X302450000Y-56550000D01*
X302450000Y-55250000D01*
X302900000Y-55250000D01*
X302900000Y-56550000D01*
G37*
G36*
X302250000Y-56550000D02*
G01*
X301800000Y-56550000D01*
X301800000Y-55250000D01*
X302250000Y-55250000D01*
X302250000Y-56550000D01*
G37*
G36*
X301600000Y-56550000D02*
G01*
X301150000Y-56550000D01*
X301150000Y-55250000D01*
X301600000Y-55250000D01*
X301600000Y-56550000D01*
G37*
G36*
X300950000Y-56550000D02*
G01*
X300500000Y-56550000D01*
X300500000Y-55250000D01*
X300950000Y-55250000D01*
X300950000Y-56550000D01*
G37*
G36*
X300300000Y-56550000D02*
G01*
X299850000Y-56550000D01*
X299850000Y-55250000D01*
X300300000Y-55250000D01*
X300300000Y-56550000D01*
G37*
G36*
X69900000Y-62200000D02*
G01*
X68900000Y-62200000D01*
X68900000Y-60700000D01*
X69900000Y-60700000D01*
X69900000Y-62200000D01*
G37*
G36*
X73100000Y-62200000D02*
G01*
X72100000Y-62200000D01*
X72100000Y-60700000D01*
X73100000Y-60700000D01*
X73100000Y-62200000D01*
G37*
G36*
X73100000Y-57300000D02*
G01*
X72100000Y-57300000D01*
X72100000Y-55800000D01*
X73100000Y-55800000D01*
X73100000Y-57300000D01*
G37*
G36*
X69900000Y-57300000D02*
G01*
X68900000Y-57300000D01*
X68900000Y-55800000D01*
X69900000Y-55800000D01*
X69900000Y-57300000D01*
G37*
G36*
X287454610Y-62211200D02*
G01*
X287478880Y-62214800D01*
X287502680Y-62220760D01*
X287525780Y-62229030D01*
X287547960Y-62239520D01*
X287569000Y-62252130D01*
X287588710Y-62266750D01*
X287606890Y-62283220D01*
X287623360Y-62301400D01*
X287637980Y-62321110D01*
X287650590Y-62342150D01*
X287661080Y-62364330D01*
X287669350Y-62387430D01*
X287675310Y-62411230D01*
X287678910Y-62435500D01*
X287680110Y-62460000D01*
X287680110Y-63760000D01*
X287678910Y-63784500D01*
X287675310Y-63808770D01*
X287669350Y-63832570D01*
X287661080Y-63855670D01*
X287650590Y-63877850D01*
X287637980Y-63898890D01*
X287623360Y-63918600D01*
X287606890Y-63936780D01*
X287588710Y-63953250D01*
X287569000Y-63967870D01*
X287547960Y-63980480D01*
X287525780Y-63990970D01*
X287502680Y-63999240D01*
X287478880Y-64005200D01*
X287454610Y-64008800D01*
X287430110Y-64010000D01*
X286605110Y-64010000D01*
X286580610Y-64008800D01*
X286556340Y-64005200D01*
X286532540Y-63999240D01*
X286509440Y-63990970D01*
X286487260Y-63980480D01*
X286466220Y-63967870D01*
X286446510Y-63953250D01*
X286428330Y-63936780D01*
X286411860Y-63918600D01*
X286397240Y-63898890D01*
X286384630Y-63877850D01*
X286374140Y-63855670D01*
X286365870Y-63832570D01*
X286359910Y-63808770D01*
X286356310Y-63784500D01*
X286355110Y-63760000D01*
X286355110Y-62460000D01*
X286356310Y-62435500D01*
X286359910Y-62411230D01*
X286365870Y-62387430D01*
X286374140Y-62364330D01*
X286384630Y-62342150D01*
X286397240Y-62321110D01*
X286411860Y-62301400D01*
X286428330Y-62283220D01*
X286446510Y-62266750D01*
X286466220Y-62252130D01*
X286487260Y-62239520D01*
X286509440Y-62229030D01*
X286532540Y-62220760D01*
X286556340Y-62214800D01*
X286580610Y-62211200D01*
X286605110Y-62210000D01*
X287430110Y-62210000D01*
X287454610Y-62211200D01*
G37*
G36*
X284329610Y-62211200D02*
G01*
X284353880Y-62214800D01*
X284377680Y-62220760D01*
X284400780Y-62229030D01*
X284422960Y-62239520D01*
X284444000Y-62252130D01*
X284463710Y-62266750D01*
X284481890Y-62283220D01*
X284498360Y-62301400D01*
X284512980Y-62321110D01*
X284525590Y-62342150D01*
X284536080Y-62364330D01*
X284544350Y-62387430D01*
X284550310Y-62411230D01*
X284553910Y-62435500D01*
X284555110Y-62460000D01*
X284555110Y-63760000D01*
X284553910Y-63784500D01*
X284550310Y-63808770D01*
X284544350Y-63832570D01*
X284536080Y-63855670D01*
X284525590Y-63877850D01*
X284512980Y-63898890D01*
X284498360Y-63918600D01*
X284481890Y-63936780D01*
X284463710Y-63953250D01*
X284444000Y-63967870D01*
X284422960Y-63980480D01*
X284400780Y-63990970D01*
X284377680Y-63999240D01*
X284353880Y-64005200D01*
X284329610Y-64008800D01*
X284305110Y-64010000D01*
X283480110Y-64010000D01*
X283455610Y-64008800D01*
X283431340Y-64005200D01*
X283407540Y-63999240D01*
X283384440Y-63990970D01*
X283362260Y-63980480D01*
X283341220Y-63967870D01*
X283321510Y-63953250D01*
X283303330Y-63936780D01*
X283286860Y-63918600D01*
X283272240Y-63898890D01*
X283259630Y-63877850D01*
X283249140Y-63855670D01*
X283240870Y-63832570D01*
X283234910Y-63808770D01*
X283231310Y-63784500D01*
X283230110Y-63760000D01*
X283230110Y-62460000D01*
X283231310Y-62435500D01*
X283234910Y-62411230D01*
X283240870Y-62387430D01*
X283249140Y-62364330D01*
X283259630Y-62342150D01*
X283272240Y-62321110D01*
X283286860Y-62301400D01*
X283303330Y-62283220D01*
X283321510Y-62266750D01*
X283341220Y-62252130D01*
X283362260Y-62239520D01*
X283384440Y-62229030D01*
X283407540Y-62220760D01*
X283431340Y-62214800D01*
X283455610Y-62211200D01*
X283480110Y-62210000D01*
X284305110Y-62210000D01*
X284329610Y-62211200D01*
G37*
G36*
X313424500Y-64966310D02*
G01*
X313448770Y-64969910D01*
X313472570Y-64975870D01*
X313495670Y-64984140D01*
X313517850Y-64994630D01*
X313538890Y-65007240D01*
X313558600Y-65021860D01*
X313576780Y-65038330D01*
X313593250Y-65056510D01*
X313607870Y-65076220D01*
X313620480Y-65097260D01*
X313630970Y-65119440D01*
X313639240Y-65142540D01*
X313645200Y-65166340D01*
X313648800Y-65190610D01*
X313650000Y-65215110D01*
X313650000Y-66040110D01*
X313648800Y-66064610D01*
X313645200Y-66088880D01*
X313639240Y-66112680D01*
X313630970Y-66135780D01*
X313620480Y-66157960D01*
X313607870Y-66179000D01*
X313593250Y-66198710D01*
X313576780Y-66216890D01*
X313558600Y-66233360D01*
X313538890Y-66247980D01*
X313517850Y-66260590D01*
X313495670Y-66271080D01*
X313472570Y-66279350D01*
X313448770Y-66285310D01*
X313424500Y-66288910D01*
X313400000Y-66290110D01*
X312100000Y-66290110D01*
X312075500Y-66288910D01*
X312051230Y-66285310D01*
X312027430Y-66279350D01*
X312004330Y-66271080D01*
X311982150Y-66260590D01*
X311961110Y-66247980D01*
X311941400Y-66233360D01*
X311923220Y-66216890D01*
X311906750Y-66198710D01*
X311892130Y-66179000D01*
X311879520Y-66157960D01*
X311869030Y-66135780D01*
X311860760Y-66112680D01*
X311854800Y-66088880D01*
X311851200Y-66064610D01*
X311850000Y-66040110D01*
X311850000Y-65215110D01*
X311851200Y-65190610D01*
X311854800Y-65166340D01*
X311860760Y-65142540D01*
X311869030Y-65119440D01*
X311879520Y-65097260D01*
X311892130Y-65076220D01*
X311906750Y-65056510D01*
X311923220Y-65038330D01*
X311941400Y-65021860D01*
X311961110Y-65007240D01*
X311982150Y-64994630D01*
X312004330Y-64984140D01*
X312027430Y-64975870D01*
X312051230Y-64969910D01*
X312075500Y-64966310D01*
X312100000Y-64965110D01*
X313400000Y-64965110D01*
X313424500Y-64966310D01*
G37*
G36*
X313424500Y-61841310D02*
G01*
X313448770Y-61844910D01*
X313472570Y-61850870D01*
X313495670Y-61859140D01*
X313517850Y-61869630D01*
X313538890Y-61882240D01*
X313558600Y-61896860D01*
X313576780Y-61913330D01*
X313593250Y-61931510D01*
X313607870Y-61951220D01*
X313620480Y-61972260D01*
X313630970Y-61994440D01*
X313639240Y-62017540D01*
X313645200Y-62041340D01*
X313648800Y-62065610D01*
X313650000Y-62090110D01*
X313650000Y-62915110D01*
X313648800Y-62939610D01*
X313645200Y-62963880D01*
X313639240Y-62987680D01*
X313630970Y-63010780D01*
X313620480Y-63032960D01*
X313607870Y-63054000D01*
X313593250Y-63073710D01*
X313576780Y-63091890D01*
X313558600Y-63108360D01*
X313538890Y-63122980D01*
X313517850Y-63135590D01*
X313495670Y-63146080D01*
X313472570Y-63154350D01*
X313448770Y-63160310D01*
X313424500Y-63163910D01*
X313400000Y-63165110D01*
X312100000Y-63165110D01*
X312075500Y-63163910D01*
X312051230Y-63160310D01*
X312027430Y-63154350D01*
X312004330Y-63146080D01*
X311982150Y-63135590D01*
X311961110Y-63122980D01*
X311941400Y-63108360D01*
X311923220Y-63091890D01*
X311906750Y-63073710D01*
X311892130Y-63054000D01*
X311879520Y-63032960D01*
X311869030Y-63010780D01*
X311860760Y-62987680D01*
X311854800Y-62963880D01*
X311851200Y-62939610D01*
X311850000Y-62915110D01*
X311850000Y-62090110D01*
X311851200Y-62065610D01*
X311854800Y-62041340D01*
X311860760Y-62017540D01*
X311869030Y-61994440D01*
X311879520Y-61972260D01*
X311892130Y-61951220D01*
X311906750Y-61931510D01*
X311923220Y-61913330D01*
X311941400Y-61896860D01*
X311961110Y-61882240D01*
X311982150Y-61869630D01*
X312004330Y-61859140D01*
X312027430Y-61850870D01*
X312051230Y-61844910D01*
X312075500Y-61841310D01*
X312100000Y-61840110D01*
X313400000Y-61840110D01*
X313424500Y-61841310D01*
G37*
G36*
X39900000Y-62200000D02*
G01*
X38900000Y-62200000D01*
X38900000Y-60700000D01*
X39900000Y-60700000D01*
X39900000Y-62200000D01*
G37*
G36*
X43100000Y-62200000D02*
G01*
X42100000Y-62200000D01*
X42100000Y-60700000D01*
X43100000Y-60700000D01*
X43100000Y-62200000D01*
G37*
G36*
X43100000Y-57300000D02*
G01*
X42100000Y-57300000D01*
X42100000Y-55800000D01*
X43100000Y-55800000D01*
X43100000Y-57300000D01*
G37*
G36*
X39900000Y-57300000D02*
G01*
X38900000Y-57300000D01*
X38900000Y-55800000D01*
X39900000Y-55800000D01*
X39900000Y-57300000D01*
G37*
G36*
X129900000Y-62200000D02*
G01*
X128900000Y-62200000D01*
X128900000Y-60700000D01*
X129900000Y-60700000D01*
X129900000Y-62200000D01*
G37*
G36*
X133100000Y-62200000D02*
G01*
X132100000Y-62200000D01*
X132100000Y-60700000D01*
X133100000Y-60700000D01*
X133100000Y-62200000D01*
G37*
G36*
X133100000Y-57300000D02*
G01*
X132100000Y-57300000D01*
X132100000Y-55800000D01*
X133100000Y-55800000D01*
X133100000Y-57300000D01*
G37*
G36*
X129900000Y-57300000D02*
G01*
X128900000Y-57300000D01*
X128900000Y-55800000D01*
X129900000Y-55800000D01*
X129900000Y-57300000D01*
G37*
G36*
X235924500Y-64966310D02*
G01*
X235948770Y-64969910D01*
X235972570Y-64975870D01*
X235995670Y-64984140D01*
X236017850Y-64994630D01*
X236038890Y-65007240D01*
X236058600Y-65021860D01*
X236076780Y-65038330D01*
X236093250Y-65056510D01*
X236107870Y-65076220D01*
X236120480Y-65097260D01*
X236130970Y-65119440D01*
X236139240Y-65142540D01*
X236145200Y-65166340D01*
X236148800Y-65190610D01*
X236150000Y-65215110D01*
X236150000Y-66040110D01*
X236148800Y-66064610D01*
X236145200Y-66088880D01*
X236139240Y-66112680D01*
X236130970Y-66135780D01*
X236120480Y-66157960D01*
X236107870Y-66179000D01*
X236093250Y-66198710D01*
X236076780Y-66216890D01*
X236058600Y-66233360D01*
X236038890Y-66247980D01*
X236017850Y-66260590D01*
X235995670Y-66271080D01*
X235972570Y-66279350D01*
X235948770Y-66285310D01*
X235924500Y-66288910D01*
X235900000Y-66290110D01*
X234600000Y-66290110D01*
X234575500Y-66288910D01*
X234551230Y-66285310D01*
X234527430Y-66279350D01*
X234504330Y-66271080D01*
X234482150Y-66260590D01*
X234461110Y-66247980D01*
X234441400Y-66233360D01*
X234423220Y-66216890D01*
X234406750Y-66198710D01*
X234392130Y-66179000D01*
X234379520Y-66157960D01*
X234369030Y-66135780D01*
X234360760Y-66112680D01*
X234354800Y-66088880D01*
X234351200Y-66064610D01*
X234350000Y-66040110D01*
X234350000Y-65215110D01*
X234351200Y-65190610D01*
X234354800Y-65166340D01*
X234360760Y-65142540D01*
X234369030Y-65119440D01*
X234379520Y-65097260D01*
X234392130Y-65076220D01*
X234406750Y-65056510D01*
X234423220Y-65038330D01*
X234441400Y-65021860D01*
X234461110Y-65007240D01*
X234482150Y-64994630D01*
X234504330Y-64984140D01*
X234527430Y-64975870D01*
X234551230Y-64969910D01*
X234575500Y-64966310D01*
X234600000Y-64965110D01*
X235900000Y-64965110D01*
X235924500Y-64966310D01*
G37*
G36*
X235924500Y-61841310D02*
G01*
X235948770Y-61844910D01*
X235972570Y-61850870D01*
X235995670Y-61859140D01*
X236017850Y-61869630D01*
X236038890Y-61882240D01*
X236058600Y-61896860D01*
X236076780Y-61913330D01*
X236093250Y-61931510D01*
X236107870Y-61951220D01*
X236120480Y-61972260D01*
X236130970Y-61994440D01*
X236139240Y-62017540D01*
X236145200Y-62041340D01*
X236148800Y-62065610D01*
X236150000Y-62090110D01*
X236150000Y-62915110D01*
X236148800Y-62939610D01*
X236145200Y-62963880D01*
X236139240Y-62987680D01*
X236130970Y-63010780D01*
X236120480Y-63032960D01*
X236107870Y-63054000D01*
X236093250Y-63073710D01*
X236076780Y-63091890D01*
X236058600Y-63108360D01*
X236038890Y-63122980D01*
X236017850Y-63135590D01*
X235995670Y-63146080D01*
X235972570Y-63154350D01*
X235948770Y-63160310D01*
X235924500Y-63163910D01*
X235900000Y-63165110D01*
X234600000Y-63165110D01*
X234575500Y-63163910D01*
X234551230Y-63160310D01*
X234527430Y-63154350D01*
X234504330Y-63146080D01*
X234482150Y-63135590D01*
X234461110Y-63122980D01*
X234441400Y-63108360D01*
X234423220Y-63091890D01*
X234406750Y-63073710D01*
X234392130Y-63054000D01*
X234379520Y-63032960D01*
X234369030Y-63010780D01*
X234360760Y-62987680D01*
X234354800Y-62963880D01*
X234351200Y-62939610D01*
X234350000Y-62915110D01*
X234350000Y-62090110D01*
X234351200Y-62065610D01*
X234354800Y-62041340D01*
X234360760Y-62017540D01*
X234369030Y-61994440D01*
X234379520Y-61972260D01*
X234392130Y-61951220D01*
X234406750Y-61931510D01*
X234423220Y-61913330D01*
X234441400Y-61896860D01*
X234461110Y-61882240D01*
X234482150Y-61869630D01*
X234504330Y-61859140D01*
X234527430Y-61850870D01*
X234551230Y-61844910D01*
X234575500Y-61841310D01*
X234600000Y-61840110D01*
X235900000Y-61840110D01*
X235924500Y-61841310D01*
G37*
G36*
X359550000Y-55900000D02*
G01*
X358050000Y-55900000D01*
X358050000Y-54900000D01*
X359550000Y-54900000D01*
X359550000Y-55900000D01*
G37*
G36*
X359550000Y-59100000D02*
G01*
X358050000Y-59100000D01*
X358050000Y-58100000D01*
X359550000Y-58100000D01*
X359550000Y-59100000D01*
G37*
G36*
X364450000Y-59100000D02*
G01*
X362950000Y-59100000D01*
X362950000Y-58100000D01*
X364450000Y-58100000D01*
X364450000Y-59100000D01*
G37*
G36*
X364450000Y-55900000D02*
G01*
X362950000Y-55900000D01*
X362950000Y-54900000D01*
X364450000Y-54900000D01*
X364450000Y-55900000D01*
G37*
G36*
X99900000Y-62200000D02*
G01*
X98900000Y-62200000D01*
X98900000Y-60700000D01*
X99900000Y-60700000D01*
X99900000Y-62200000D01*
G37*
G36*
X103100000Y-62200000D02*
G01*
X102100000Y-62200000D01*
X102100000Y-60700000D01*
X103100000Y-60700000D01*
X103100000Y-62200000D01*
G37*
G36*
X103100000Y-57300000D02*
G01*
X102100000Y-57300000D01*
X102100000Y-55800000D01*
X103100000Y-55800000D01*
X103100000Y-57300000D01*
G37*
G36*
X99900000Y-57300000D02*
G01*
X98900000Y-57300000D01*
X98900000Y-55800000D01*
X99900000Y-55800000D01*
X99900000Y-57300000D01*
G37*
G36*
X174900000Y-62200000D02*
G01*
X173900000Y-62200000D01*
X173900000Y-60700000D01*
X174900000Y-60700000D01*
X174900000Y-62200000D01*
G37*
G36*
X178100000Y-62200000D02*
G01*
X177100000Y-62200000D01*
X177100000Y-60700000D01*
X178100000Y-60700000D01*
X178100000Y-62200000D01*
G37*
G36*
X178100000Y-57300000D02*
G01*
X177100000Y-57300000D01*
X177100000Y-55800000D01*
X178100000Y-55800000D01*
X178100000Y-57300000D01*
G37*
G36*
X174900000Y-57300000D02*
G01*
X173900000Y-57300000D01*
X173900000Y-55800000D01*
X174900000Y-55800000D01*
X174900000Y-57300000D01*
G37*
G36*
X144900000Y-62200000D02*
G01*
X143900000Y-62200000D01*
X143900000Y-60700000D01*
X144900000Y-60700000D01*
X144900000Y-62200000D01*
G37*
G36*
X148100000Y-62200000D02*
G01*
X147100000Y-62200000D01*
X147100000Y-60700000D01*
X148100000Y-60700000D01*
X148100000Y-62200000D01*
G37*
G36*
X148100000Y-57300000D02*
G01*
X147100000Y-57300000D01*
X147100000Y-55800000D01*
X148100000Y-55800000D01*
X148100000Y-57300000D01*
G37*
G36*
X144900000Y-57300000D02*
G01*
X143900000Y-57300000D01*
X143900000Y-55800000D01*
X144900000Y-55800000D01*
X144900000Y-57300000D01*
G37*
G36*
X84900000Y-62200000D02*
G01*
X83900000Y-62200000D01*
X83900000Y-60700000D01*
X84900000Y-60700000D01*
X84900000Y-62200000D01*
G37*
G36*
X88100000Y-62200000D02*
G01*
X87100000Y-62200000D01*
X87100000Y-60700000D01*
X88100000Y-60700000D01*
X88100000Y-62200000D01*
G37*
G36*
X88100000Y-57300000D02*
G01*
X87100000Y-57300000D01*
X87100000Y-55800000D01*
X88100000Y-55800000D01*
X88100000Y-57300000D01*
G37*
G36*
X84900000Y-57300000D02*
G01*
X83900000Y-57300000D01*
X83900000Y-55800000D01*
X84900000Y-55800000D01*
X84900000Y-57300000D01*
G37*
G36*
X185924500Y-64716310D02*
G01*
X185948770Y-64719910D01*
X185972570Y-64725870D01*
X185995670Y-64734140D01*
X186017850Y-64744630D01*
X186038890Y-64757240D01*
X186058600Y-64771860D01*
X186076780Y-64788330D01*
X186093250Y-64806510D01*
X186107870Y-64826220D01*
X186120480Y-64847260D01*
X186130970Y-64869440D01*
X186139240Y-64892540D01*
X186145200Y-64916340D01*
X186148800Y-64940610D01*
X186150000Y-64965110D01*
X186150000Y-65790110D01*
X186148800Y-65814610D01*
X186145200Y-65838880D01*
X186139240Y-65862680D01*
X186130970Y-65885780D01*
X186120480Y-65907960D01*
X186107870Y-65929000D01*
X186093250Y-65948710D01*
X186076780Y-65966890D01*
X186058600Y-65983360D01*
X186038890Y-65997980D01*
X186017850Y-66010590D01*
X185995670Y-66021080D01*
X185972570Y-66029350D01*
X185948770Y-66035310D01*
X185924500Y-66038910D01*
X185900000Y-66040110D01*
X184600000Y-66040110D01*
X184575500Y-66038910D01*
X184551230Y-66035310D01*
X184527430Y-66029350D01*
X184504330Y-66021080D01*
X184482150Y-66010590D01*
X184461110Y-65997980D01*
X184441400Y-65983360D01*
X184423220Y-65966890D01*
X184406750Y-65948710D01*
X184392130Y-65929000D01*
X184379520Y-65907960D01*
X184369030Y-65885780D01*
X184360760Y-65862680D01*
X184354800Y-65838880D01*
X184351200Y-65814610D01*
X184350000Y-65790110D01*
X184350000Y-64965110D01*
X184351200Y-64940610D01*
X184354800Y-64916340D01*
X184360760Y-64892540D01*
X184369030Y-64869440D01*
X184379520Y-64847260D01*
X184392130Y-64826220D01*
X184406750Y-64806510D01*
X184423220Y-64788330D01*
X184441400Y-64771860D01*
X184461110Y-64757240D01*
X184482150Y-64744630D01*
X184504330Y-64734140D01*
X184527430Y-64725870D01*
X184551230Y-64719910D01*
X184575500Y-64716310D01*
X184600000Y-64715110D01*
X185900000Y-64715110D01*
X185924500Y-64716310D01*
G37*
G36*
X185924500Y-61591310D02*
G01*
X185948770Y-61594910D01*
X185972570Y-61600870D01*
X185995670Y-61609140D01*
X186017850Y-61619630D01*
X186038890Y-61632240D01*
X186058600Y-61646860D01*
X186076780Y-61663330D01*
X186093250Y-61681510D01*
X186107870Y-61701220D01*
X186120480Y-61722260D01*
X186130970Y-61744440D01*
X186139240Y-61767540D01*
X186145200Y-61791340D01*
X186148800Y-61815610D01*
X186150000Y-61840110D01*
X186150000Y-62665110D01*
X186148800Y-62689610D01*
X186145200Y-62713880D01*
X186139240Y-62737680D01*
X186130970Y-62760780D01*
X186120480Y-62782960D01*
X186107870Y-62804000D01*
X186093250Y-62823710D01*
X186076780Y-62841890D01*
X186058600Y-62858360D01*
X186038890Y-62872980D01*
X186017850Y-62885590D01*
X185995670Y-62896080D01*
X185972570Y-62904350D01*
X185948770Y-62910310D01*
X185924500Y-62913910D01*
X185900000Y-62915110D01*
X184600000Y-62915110D01*
X184575500Y-62913910D01*
X184551230Y-62910310D01*
X184527430Y-62904350D01*
X184504330Y-62896080D01*
X184482150Y-62885590D01*
X184461110Y-62872980D01*
X184441400Y-62858360D01*
X184423220Y-62841890D01*
X184406750Y-62823710D01*
X184392130Y-62804000D01*
X184379520Y-62782960D01*
X184369030Y-62760780D01*
X184360760Y-62737680D01*
X184354800Y-62713880D01*
X184351200Y-62689610D01*
X184350000Y-62665110D01*
X184350000Y-61840110D01*
X184351200Y-61815610D01*
X184354800Y-61791340D01*
X184360760Y-61767540D01*
X184369030Y-61744440D01*
X184379520Y-61722260D01*
X184392130Y-61701220D01*
X184406750Y-61681510D01*
X184423220Y-61663330D01*
X184441400Y-61646860D01*
X184461110Y-61632240D01*
X184482150Y-61619630D01*
X184504330Y-61609140D01*
X184527430Y-61600870D01*
X184551230Y-61594910D01*
X184575500Y-61591310D01*
X184600000Y-61590110D01*
X185900000Y-61590110D01*
X185924500Y-61591310D01*
G37*
G36*
X292999500Y-62211200D02*
G01*
X293023770Y-62214800D01*
X293047570Y-62220760D01*
X293070670Y-62229030D01*
X293092850Y-62239520D01*
X293113890Y-62252130D01*
X293133600Y-62266750D01*
X293151780Y-62283220D01*
X293168250Y-62301400D01*
X293182870Y-62321110D01*
X293195480Y-62342150D01*
X293205970Y-62364330D01*
X293214240Y-62387430D01*
X293220200Y-62411230D01*
X293223800Y-62435500D01*
X293225000Y-62460000D01*
X293225000Y-63760000D01*
X293223800Y-63784500D01*
X293220200Y-63808770D01*
X293214240Y-63832570D01*
X293205970Y-63855670D01*
X293195480Y-63877850D01*
X293182870Y-63898890D01*
X293168250Y-63918600D01*
X293151780Y-63936780D01*
X293133600Y-63953250D01*
X293113890Y-63967870D01*
X293092850Y-63980480D01*
X293070670Y-63990970D01*
X293047570Y-63999240D01*
X293023770Y-64005200D01*
X292999500Y-64008800D01*
X292975000Y-64010000D01*
X292150000Y-64010000D01*
X292125500Y-64008800D01*
X292101230Y-64005200D01*
X292077430Y-63999240D01*
X292054330Y-63990970D01*
X292032150Y-63980480D01*
X292011110Y-63967870D01*
X291991400Y-63953250D01*
X291973220Y-63936780D01*
X291956750Y-63918600D01*
X291942130Y-63898890D01*
X291929520Y-63877850D01*
X291919030Y-63855670D01*
X291910760Y-63832570D01*
X291904800Y-63808770D01*
X291901200Y-63784500D01*
X291900000Y-63760000D01*
X291900000Y-62460000D01*
X291901200Y-62435500D01*
X291904800Y-62411230D01*
X291910760Y-62387430D01*
X291919030Y-62364330D01*
X291929520Y-62342150D01*
X291942130Y-62321110D01*
X291956750Y-62301400D01*
X291973220Y-62283220D01*
X291991400Y-62266750D01*
X292011110Y-62252130D01*
X292032150Y-62239520D01*
X292054330Y-62229030D01*
X292077430Y-62220760D01*
X292101230Y-62214800D01*
X292125500Y-62211200D01*
X292150000Y-62210000D01*
X292975000Y-62210000D01*
X292999500Y-62211200D01*
G37*
G36*
X289874500Y-62211200D02*
G01*
X289898770Y-62214800D01*
X289922570Y-62220760D01*
X289945670Y-62229030D01*
X289967850Y-62239520D01*
X289988890Y-62252130D01*
X290008600Y-62266750D01*
X290026780Y-62283220D01*
X290043250Y-62301400D01*
X290057870Y-62321110D01*
X290070480Y-62342150D01*
X290080970Y-62364330D01*
X290089240Y-62387430D01*
X290095200Y-62411230D01*
X290098800Y-62435500D01*
X290100000Y-62460000D01*
X290100000Y-63760000D01*
X290098800Y-63784500D01*
X290095200Y-63808770D01*
X290089240Y-63832570D01*
X290080970Y-63855670D01*
X290070480Y-63877850D01*
X290057870Y-63898890D01*
X290043250Y-63918600D01*
X290026780Y-63936780D01*
X290008600Y-63953250D01*
X289988890Y-63967870D01*
X289967850Y-63980480D01*
X289945670Y-63990970D01*
X289922570Y-63999240D01*
X289898770Y-64005200D01*
X289874500Y-64008800D01*
X289850000Y-64010000D01*
X289025000Y-64010000D01*
X289000500Y-64008800D01*
X288976230Y-64005200D01*
X288952430Y-63999240D01*
X288929330Y-63990970D01*
X288907150Y-63980480D01*
X288886110Y-63967870D01*
X288866400Y-63953250D01*
X288848220Y-63936780D01*
X288831750Y-63918600D01*
X288817130Y-63898890D01*
X288804520Y-63877850D01*
X288794030Y-63855670D01*
X288785760Y-63832570D01*
X288779800Y-63808770D01*
X288776200Y-63784500D01*
X288775000Y-63760000D01*
X288775000Y-62460000D01*
X288776200Y-62435500D01*
X288779800Y-62411230D01*
X288785760Y-62387430D01*
X288794030Y-62364330D01*
X288804520Y-62342150D01*
X288817130Y-62321110D01*
X288831750Y-62301400D01*
X288848220Y-62283220D01*
X288866400Y-62266750D01*
X288886110Y-62252130D01*
X288907150Y-62239520D01*
X288929330Y-62229030D01*
X288952430Y-62220760D01*
X288976230Y-62214800D01*
X289000500Y-62211200D01*
X289025000Y-62210000D01*
X289850000Y-62210000D01*
X289874500Y-62211200D01*
G37*
G36*
X261174500Y-64966310D02*
G01*
X261198770Y-64969910D01*
X261222570Y-64975870D01*
X261245670Y-64984140D01*
X261267850Y-64994630D01*
X261288890Y-65007240D01*
X261308600Y-65021860D01*
X261326780Y-65038330D01*
X261343250Y-65056510D01*
X261357870Y-65076220D01*
X261370480Y-65097260D01*
X261380970Y-65119440D01*
X261389240Y-65142540D01*
X261395200Y-65166340D01*
X261398800Y-65190610D01*
X261400000Y-65215110D01*
X261400000Y-66040110D01*
X261398800Y-66064610D01*
X261395200Y-66088880D01*
X261389240Y-66112680D01*
X261380970Y-66135780D01*
X261370480Y-66157960D01*
X261357870Y-66179000D01*
X261343250Y-66198710D01*
X261326780Y-66216890D01*
X261308600Y-66233360D01*
X261288890Y-66247980D01*
X261267850Y-66260590D01*
X261245670Y-66271080D01*
X261222570Y-66279350D01*
X261198770Y-66285310D01*
X261174500Y-66288910D01*
X261150000Y-66290110D01*
X259850000Y-66290110D01*
X259825500Y-66288910D01*
X259801230Y-66285310D01*
X259777430Y-66279350D01*
X259754330Y-66271080D01*
X259732150Y-66260590D01*
X259711110Y-66247980D01*
X259691400Y-66233360D01*
X259673220Y-66216890D01*
X259656750Y-66198710D01*
X259642130Y-66179000D01*
X259629520Y-66157960D01*
X259619030Y-66135780D01*
X259610760Y-66112680D01*
X259604800Y-66088880D01*
X259601200Y-66064610D01*
X259600000Y-66040110D01*
X259600000Y-65215110D01*
X259601200Y-65190610D01*
X259604800Y-65166340D01*
X259610760Y-65142540D01*
X259619030Y-65119440D01*
X259629520Y-65097260D01*
X259642130Y-65076220D01*
X259656750Y-65056510D01*
X259673220Y-65038330D01*
X259691400Y-65021860D01*
X259711110Y-65007240D01*
X259732150Y-64994630D01*
X259754330Y-64984140D01*
X259777430Y-64975870D01*
X259801230Y-64969910D01*
X259825500Y-64966310D01*
X259850000Y-64965110D01*
X261150000Y-64965110D01*
X261174500Y-64966310D01*
G37*
G36*
X261174500Y-61841310D02*
G01*
X261198770Y-61844910D01*
X261222570Y-61850870D01*
X261245670Y-61859140D01*
X261267850Y-61869630D01*
X261288890Y-61882240D01*
X261308600Y-61896860D01*
X261326780Y-61913330D01*
X261343250Y-61931510D01*
X261357870Y-61951220D01*
X261370480Y-61972260D01*
X261380970Y-61994440D01*
X261389240Y-62017540D01*
X261395200Y-62041340D01*
X261398800Y-62065610D01*
X261400000Y-62090110D01*
X261400000Y-62915110D01*
X261398800Y-62939610D01*
X261395200Y-62963880D01*
X261389240Y-62987680D01*
X261380970Y-63010780D01*
X261370480Y-63032960D01*
X261357870Y-63054000D01*
X261343250Y-63073710D01*
X261326780Y-63091890D01*
X261308600Y-63108360D01*
X261288890Y-63122980D01*
X261267850Y-63135590D01*
X261245670Y-63146080D01*
X261222570Y-63154350D01*
X261198770Y-63160310D01*
X261174500Y-63163910D01*
X261150000Y-63165110D01*
X259850000Y-63165110D01*
X259825500Y-63163910D01*
X259801230Y-63160310D01*
X259777430Y-63154350D01*
X259754330Y-63146080D01*
X259732150Y-63135590D01*
X259711110Y-63122980D01*
X259691400Y-63108360D01*
X259673220Y-63091890D01*
X259656750Y-63073710D01*
X259642130Y-63054000D01*
X259629520Y-63032960D01*
X259619030Y-63010780D01*
X259610760Y-62987680D01*
X259604800Y-62963880D01*
X259601200Y-62939610D01*
X259600000Y-62915110D01*
X259600000Y-62090110D01*
X259601200Y-62065610D01*
X259604800Y-62041340D01*
X259610760Y-62017540D01*
X259619030Y-61994440D01*
X259629520Y-61972260D01*
X259642130Y-61951220D01*
X259656750Y-61931510D01*
X259673220Y-61913330D01*
X259691400Y-61896860D01*
X259711110Y-61882240D01*
X259732150Y-61869630D01*
X259754330Y-61859140D01*
X259777430Y-61850870D01*
X259801230Y-61844910D01*
X259825500Y-61841310D01*
X259850000Y-61840110D01*
X261150000Y-61840110D01*
X261174500Y-61841310D01*
G37*
G36*
X54900000Y-62200000D02*
G01*
X53900000Y-62200000D01*
X53900000Y-60700000D01*
X54900000Y-60700000D01*
X54900000Y-62200000D01*
G37*
G36*
X58100000Y-62200000D02*
G01*
X57100000Y-62200000D01*
X57100000Y-60700000D01*
X58100000Y-60700000D01*
X58100000Y-62200000D01*
G37*
G36*
X58100000Y-57300000D02*
G01*
X57100000Y-57300000D01*
X57100000Y-55800000D01*
X58100000Y-55800000D01*
X58100000Y-57300000D01*
G37*
G36*
X54900000Y-57300000D02*
G01*
X53900000Y-57300000D01*
X53900000Y-55800000D01*
X54900000Y-55800000D01*
X54900000Y-57300000D01*
G37*
G36*
X210924500Y-64761200D02*
G01*
X210948770Y-64764800D01*
X210972570Y-64770760D01*
X210995670Y-64779030D01*
X211017850Y-64789520D01*
X211038890Y-64802130D01*
X211058600Y-64816750D01*
X211076780Y-64833220D01*
X211093250Y-64851400D01*
X211107870Y-64871110D01*
X211120480Y-64892150D01*
X211130970Y-64914330D01*
X211139240Y-64937430D01*
X211145200Y-64961230D01*
X211148800Y-64985500D01*
X211150000Y-65010000D01*
X211150000Y-65835000D01*
X211148800Y-65859500D01*
X211145200Y-65883770D01*
X211139240Y-65907570D01*
X211130970Y-65930670D01*
X211120480Y-65952850D01*
X211107870Y-65973890D01*
X211093250Y-65993600D01*
X211076780Y-66011780D01*
X211058600Y-66028250D01*
X211038890Y-66042870D01*
X211017850Y-66055480D01*
X210995670Y-66065970D01*
X210972570Y-66074240D01*
X210948770Y-66080200D01*
X210924500Y-66083800D01*
X210900000Y-66085000D01*
X209600000Y-66085000D01*
X209575500Y-66083800D01*
X209551230Y-66080200D01*
X209527430Y-66074240D01*
X209504330Y-66065970D01*
X209482150Y-66055480D01*
X209461110Y-66042870D01*
X209441400Y-66028250D01*
X209423220Y-66011780D01*
X209406750Y-65993600D01*
X209392130Y-65973890D01*
X209379520Y-65952850D01*
X209369030Y-65930670D01*
X209360760Y-65907570D01*
X209354800Y-65883770D01*
X209351200Y-65859500D01*
X209350000Y-65835000D01*
X209350000Y-65010000D01*
X209351200Y-64985500D01*
X209354800Y-64961230D01*
X209360760Y-64937430D01*
X209369030Y-64914330D01*
X209379520Y-64892150D01*
X209392130Y-64871110D01*
X209406750Y-64851400D01*
X209423220Y-64833220D01*
X209441400Y-64816750D01*
X209461110Y-64802130D01*
X209482150Y-64789520D01*
X209504330Y-64779030D01*
X209527430Y-64770760D01*
X209551230Y-64764800D01*
X209575500Y-64761200D01*
X209600000Y-64760000D01*
X210900000Y-64760000D01*
X210924500Y-64761200D01*
G37*
G36*
X210924500Y-61636200D02*
G01*
X210948770Y-61639800D01*
X210972570Y-61645760D01*
X210995670Y-61654030D01*
X211017850Y-61664520D01*
X211038890Y-61677130D01*
X211058600Y-61691750D01*
X211076780Y-61708220D01*
X211093250Y-61726400D01*
X211107870Y-61746110D01*
X211120480Y-61767150D01*
X211130970Y-61789330D01*
X211139240Y-61812430D01*
X211145200Y-61836230D01*
X211148800Y-61860500D01*
X211150000Y-61885000D01*
X211150000Y-62710000D01*
X211148800Y-62734500D01*
X211145200Y-62758770D01*
X211139240Y-62782570D01*
X211130970Y-62805670D01*
X211120480Y-62827850D01*
X211107870Y-62848890D01*
X211093250Y-62868600D01*
X211076780Y-62886780D01*
X211058600Y-62903250D01*
X211038890Y-62917870D01*
X211017850Y-62930480D01*
X210995670Y-62940970D01*
X210972570Y-62949240D01*
X210948770Y-62955200D01*
X210924500Y-62958800D01*
X210900000Y-62960000D01*
X209600000Y-62960000D01*
X209575500Y-62958800D01*
X209551230Y-62955200D01*
X209527430Y-62949240D01*
X209504330Y-62940970D01*
X209482150Y-62930480D01*
X209461110Y-62917870D01*
X209441400Y-62903250D01*
X209423220Y-62886780D01*
X209406750Y-62868600D01*
X209392130Y-62848890D01*
X209379520Y-62827850D01*
X209369030Y-62805670D01*
X209360760Y-62782570D01*
X209354800Y-62758770D01*
X209351200Y-62734500D01*
X209350000Y-62710000D01*
X209350000Y-61885000D01*
X209351200Y-61860500D01*
X209354800Y-61836230D01*
X209360760Y-61812430D01*
X209369030Y-61789330D01*
X209379520Y-61767150D01*
X209392130Y-61746110D01*
X209406750Y-61726400D01*
X209423220Y-61708220D01*
X209441400Y-61691750D01*
X209461110Y-61677130D01*
X209482150Y-61664520D01*
X209504330Y-61654030D01*
X209527430Y-61645760D01*
X209551230Y-61639800D01*
X209575500Y-61636200D01*
X209600000Y-61635000D01*
X210900000Y-61635000D01*
X210924500Y-61636200D01*
G37*
G36*
X159900000Y-62200000D02*
G01*
X158900000Y-62200000D01*
X158900000Y-60700000D01*
X159900000Y-60700000D01*
X159900000Y-62200000D01*
G37*
G36*
X163100000Y-62200000D02*
G01*
X162100000Y-62200000D01*
X162100000Y-60700000D01*
X163100000Y-60700000D01*
X163100000Y-62200000D01*
G37*
G36*
X163100000Y-57300000D02*
G01*
X162100000Y-57300000D01*
X162100000Y-55800000D01*
X163100000Y-55800000D01*
X163100000Y-57300000D01*
G37*
G36*
X159900000Y-57300000D02*
G01*
X158900000Y-57300000D01*
X158900000Y-55800000D01*
X159900000Y-55800000D01*
X159900000Y-57300000D01*
G37*
M02*
